<?xml version="1.0" standalone="no"?>
<!DOCTYPE svg PUBLIC "-//W3C//DTD SVG 1.1//EN" "http://www.w3.org/Graphics/SVG/1.1/DTD/svg11.dtd" >
<svg xmlns="http://www.w3.org/2000/svg">
<metadata>
This is a custom SVG webfont generated by Font Squirrel.
Copyright   : Copyright c 2008 by Stefan Gandl All rights reserved
Designer    : Stefan Gandl
Foundry     : Stefan Gandl
Foundry URL : wwwneubauladencom
</metadata>
<defs>
<font id="NeubauGrotesk35Leicht" horiz-adv-x="1120" >
<font-face units-per-em="2048" ascent="1638" descent="-410" />
<missing-glyph horiz-adv-x="614" />
<glyph unicode=" "  horiz-adv-x="614" />
<glyph unicode="&#x09;" horiz-adv-x="614" />
<glyph unicode="&#xa0;" horiz-adv-x="614" />
<glyph unicode="!" horiz-adv-x="376" d="M174 0v264h29v-264h-29zM174 471v971h29v-971h-29z" />
<glyph unicode="&#x22;" horiz-adv-x="452" d="M133 975v469h29v-469h-29zM291 975v469h28v-469h-28z" />
<glyph unicode="#" horiz-adv-x="1114" d="M72 236v28h235v914h-235v28h235v236h29v-236h442v236h29v-236h235v-28h-235v-914h235v-28h-235v-236h-29v236h-442v-236h-29v236h-235zM336 264h442v914h-442v-914z" />
<glyph unicode="$" horiz-adv-x="1114" d="M72 1075q0 152 104.5 259.5t251.5 107.5h115v235h28v-235h115q115 0 208 -68.5t128 -175.5l-27 -10q-35 100 -119.5 162.5t-189.5 62.5h-258q-135 0 -231.5 -99.5t-96.5 -238.5q0 -141 94.5 -216t213.5 -99q43 -8 157.5 -23.5t149.5 -23.5q145 -33 236 -117t91 -227 q0 -152 -104 -260.5t-252 -108.5h-115v-236h-28v236h-115q-115 0 -208 68.5t-128 177.5l27 10q35 -100 120 -163.5t189 -63.5h258q135 0 231.5 99t96.5 241q0 135 -85 209.5t-214 101.5q-59 14 -175 29.5t-122 17.5q-152 23 -249 112t-97 236z" />
<glyph unicode="%" horiz-adv-x="1581" d="M92 987v176q0 115 82 197t199 82h16q117 0 199 -82t82 -197v-176q0 -117 -82 -198.5t-199 -81.5h-16q-117 0 -199 81.5t-82 198.5zM121 987q0 -104 73.5 -178t178.5 -74h16q104 0 178 74t74 178v176q0 102 -73.5 176t-178.5 74h-16q-104 0 -178 -73.5t-74 -176.5v-176z M354 0l842 1442h33l-840 -1442h-35zM911 281v176q0 115 82 196.5t199 81.5h18q115 0 197 -82t82 -196v-176q0 -117 -82 -199t-197 -82h-18q-117 0 -199 82t-82 199zM942 281q0 -104 72.5 -178t177.5 -74h18q102 0 176 73.5t74 178.5v176q0 102 -73.5 176t-176.5 74h-18 q-104 0 -177 -74t-73 -176v-176z" />
<glyph unicode="&#x26;" horiz-adv-x="1210" d="M123 369q0 117 68.5 212t175.5 134l-119 98q-125 106 -125 262q0 152 107.5 259.5t261.5 107.5q152 0 259 -107.5t107 -259.5q0 -154 -107.5 -261t-258.5 -107q-33 0 -64 -7l508 -419q12 39 12 88v352h29v-352q0 -55 -16 -109l309 -260h-45l-275 229 q-43 -102 -135 -165.5t-207 -63.5h-116q-154 0 -261.5 107.5t-107.5 261.5zM152 369q0 -141 99 -240.5t241 -99.5h116q109 0 196 61.5t122 159.5l-533 442q-104 -33 -172.5 -121.5t-68.5 -201.5zM152 1075q0 -147 114 -239l133 -111q51 10 93 10q139 0 238 99.5t99 240.5 q0 139 -99 238.5t-238 99.5q-141 0 -240.5 -99.5t-99.5 -238.5z" />
<glyph unicode="'" horiz-adv-x="294" d="M133 975v469h29v-469h-29z" />
<glyph unicode="(" horiz-adv-x="731" d="M174 487v471q0 201 142.5 343.5t342.5 142.5v-29q-188 0 -322 -134t-134 -323v-471q0 -190 134 -323t322 -133v-31q-201 0 -343 143t-142 344z" />
<glyph unicode=")" horiz-adv-x="731" d="M72 0v31q188 0 322 133t134 323v471q0 188 -134 322.5t-322 134.5v29q201 0 343 -142.5t142 -343.5v-471q0 -201 -142 -344t-343 -143z" />
<glyph unicode="*" horiz-adv-x="520" d="M31 1272l8 26l207 -65v215h28v-215l207 65l8 -26l-204 -68l127 -174l-25 -18l-127 176l-127 -176l-24 18l127 174z" />
<glyph unicode="+" horiz-adv-x="1196" d="M113 475v29h471v467h28v-467h471v-29h-471v-475h-28v475h-471z" />
<glyph unicode="," horiz-adv-x="407" d="M133 -186q113 66 113 192v260h28v-260q0 -74 -38.5 -134t-102.5 -91v33z" />
<glyph unicode="-" horiz-adv-x="710" d="M113 475v29h485v-29h-485z" />
<glyph unicode="." horiz-adv-x="294" d="M133 0v264h29v-264h-29z" />
<glyph unicode="/" horiz-adv-x="573" d="M31 0l481 1442h31l-482 -1442h-30z" />
<glyph unicode="0" d="M133 426v590q0 176 125 301t301 125q178 0 303 -125t125 -301v-590q0 -176 -125 -301t-303 -125q-176 0 -301 125t-125 301zM162 426q0 -164 116.5 -280.5t280.5 -116.5q166 0 282.5 116.5t116.5 280.5v590q0 164 -116.5 280.5t-282.5 116.5q-164 0 -280.5 -116.5 t-116.5 -280.5v-590z" />
<glyph unicode="1" d="M174 0v29h412v1384h-412v29h442v-1413h412v-29h-854z" />
<glyph unicode="2" d="M123 0v29l721 805q100 113 100 241q0 139 -99.5 238.5t-240.5 99.5h-117q-109 0 -195.5 -62.5t-123.5 -162.5l-29 8q39 109 134.5 177.5t213.5 68.5h117q154 0 261.5 -107.5t107.5 -259.5q0 -139 -113 -268l-698 -778h815v-29h-854z" />
<glyph unicode="3" d="M135 246l29 8q35 -100 123 -162.5t196 -62.5h117q139 0 238.5 99t99.5 241q0 139 -99.5 238.5t-238.5 99.5h-117v28h117q139 0 238.5 99.5t99.5 240.5q0 139 -99.5 238.5t-238.5 99.5h-117q-111 0 -197.5 -62.5t-121.5 -162.5l-29 8q39 109 134.5 177.5t213.5 68.5h117 q152 0 260.5 -107.5t108.5 -259.5q0 -125 -75 -222t-189 -132q115 -35 189.5 -132t74.5 -220q0 -154 -108.5 -261.5t-260.5 -107.5h-117q-119 0 -214 68.5t-134 177.5z" />
<glyph unicode="4" d="M92 471v29l367 942h30l-366 -942h795v471h28v-971h-28v471h-826z" />
<glyph unicode="5" d="M139 707v735h840v-29h-811v-678h457q152 0 260 -107.5t108 -258.5q0 -154 -108.5 -261.5t-259.5 -107.5h-117q-119 0 -214 68.5t-134 177.5l28 8q37 -100 124 -162.5t196 -62.5h117q139 0 239.5 99t100.5 241q0 139 -100.5 238.5t-239.5 99.5h-486z" />
<glyph unicode="6" d="M143 426v590q0 176 125 301t301 125q127 0 230.5 -67.5t156.5 -178.5l-26 -12q-49 102 -145.5 165.5t-215.5 63.5q-164 0 -280.5 -116.5t-116.5 -280.5v-316q49 121 156.5 196t240.5 75q178 0 303 -125t125 -301v-119q0 -176 -124.5 -301t-303.5 -125q-176 0 -301 125 t-125 301zM172 426q0 -164 117 -280.5t280 -116.5q166 0 283 116.5t117 280.5v119q0 164 -117 280.5t-283 116.5q-164 0 -280.5 -116.5t-116.5 -280.5v-119z" />
<glyph unicode="7" d="M113 1413v29h854v-29l-551 -1413h-31l549 1413h-821z" />
<glyph unicode="8" d="M133 369q0 123 75 220t189 132q-115 35 -189.5 132t-74.5 222q0 152 107.5 259.5t261.5 107.5h116q152 0 260.5 -107.5t108.5 -259.5q0 -125 -74.5 -222t-189.5 -132q115 -35 189.5 -132t74.5 -220q0 -152 -108.5 -260.5t-260.5 -108.5h-116q-154 0 -261.5 108.5 t-107.5 260.5zM162 369q0 -141 99 -240.5t241 -99.5h116q139 0 239.5 99t100.5 241q0 139 -100 238.5t-240 99.5h-116q-141 0 -240.5 -99.5t-99.5 -238.5zM162 1075q0 -141 99 -240.5t241 -99.5h116q139 0 239.5 99.5t100.5 240.5q0 139 -100 238.5t-240 99.5h-116 q-141 0 -240.5 -99.5t-99.5 -238.5z" />
<glyph unicode="9" d="M102 897v119q0 176 125 301t301 125q178 0 303 -125t125 -301v-590q0 -176 -124.5 -301t-303.5 -125q-125 0 -228 67.5t-157 178.5l27 12q49 -102 145.5 -165.5t212.5 -63.5q166 0 283 116.5t117 280.5v315q-49 -121 -156.5 -195.5t-243.5 -74.5q-176 0 -301 125 t-125 301zM131 897q0 -164 117 -280.5t280 -116.5q166 0 283 116.5t117 280.5v119q0 164 -117 280.5t-283 116.5q-164 0 -280.5 -116.5t-116.5 -280.5v-119z" />
<glyph unicode=":" horiz-adv-x="294" d="M133 0v264h29v-264h-29zM133 705v264h29v-264h-29z" />
<glyph unicode=";" horiz-adv-x="407" d="M133 -186q113 66 113 192v260h28v-260q0 -74 -38.5 -134t-102.5 -91v33zM246 436v266h28v-264z" />
<glyph unicode="&#x3c;" horiz-adv-x="1220" d="M195 475v25l831 475v-33l-795 -455l795 -452v-35z" />
<glyph unicode="=" horiz-adv-x="1196" d="M113 236v28h970v-28h-970zM113 705v30h970v-28z" />
<glyph unicode="&#x3e;" horiz-adv-x="1220" d="M195 0v35l794 452l-794 455v33l831 -475v-25z" />
<glyph unicode="?" horiz-adv-x="946" d="M20 1198q39 109 133.5 176.5t213.5 67.5h118q152 0 260.5 -107.5t108.5 -259t-108.5 -260t-260.5 -108.5h-45v-222h-28v250h73q139 0 238.5 99.5t99.5 240.5q0 139 -99 238.5t-239 99.5h-118q-109 0 -196 -62.5t-122 -162.5zM412 0v264h28v-264h-28z" />
<glyph unicode="@" horiz-adv-x="1236" d="M133 485v471q0 201 142.5 343.5t343 142.5t343 -142.5t142.5 -343.5v-352q0 -55 -39 -94t-92 -39q-55 0 -94 39t-39 94q-72 -133 -222 -133q-102 0 -175.5 73.5t-73.5 176.5q0 104 73.5 177t175.5 73q72 0 130.5 -36t91.5 -95v131h28v-367q0 -43 31 -73.5t74 -30.5 t72.5 30.5t29.5 73.5v352q0 188 -134 322.5t-322.5 134.5t-322.5 -134t-134 -323v-471q0 -188 134 -322t322 -134q125 0 231.5 63.5t166.5 169.5l26 -14q-63 -113 -175.5 -180.5t-248.5 -67.5q-201 0 -343 142t-142 343zM397 721q0 -90 65.5 -155.5t155.5 -65.5 q92 0 157 65.5t65 155.5q0 92 -64.5 156.5t-157.5 64.5q-90 0 -155.5 -64.5t-65.5 -156.5z" />
<glyph unicode="A" horiz-adv-x="1044" d="M31 0l477 1442h29l477 -1442h-31l-119 352h-684l-119 -352h-30zM190 383h664l-332 993z" />
<glyph unicode="B" horiz-adv-x="1257" d="M174 0v1442h614q147 0 252 -107.5t105 -259.5q0 -125 -72 -222t-184 -132q113 -35 184.5 -132t71.5 -220q0 -152 -104.5 -260.5t-252.5 -108.5h-614zM203 29h585q135 0 231.5 99t96.5 241q0 139 -96 238.5t-232 99.5h-585v-678zM203 735h585q135 0 231.5 99.5t96.5 240.5 q0 139 -96 238.5t-232 99.5h-585v-678z" />
<glyph unicode="C" horiz-adv-x="1142" d="M133 485v471q0 201 142.5 343.5t342.5 142.5q133 0 246 -66.5t176 -177.5l-26 -14q-59 104 -165 166.5t-231 62.5q-188 0 -322 -134t-134 -323v-471q0 -188 134 -322t322 -134q125 0 230.5 62.5t165.5 166.5l26 -14q-63 -111 -175.5 -177.5t-246.5 -66.5q-201 0 -343 142 t-142 343z" />
<glyph unicode="D" horiz-adv-x="1277" d="M174 0v1442h485q201 0 343.5 -142.5t142.5 -343.5v-471q0 -201 -142.5 -343t-343.5 -142h-485zM203 29h456q188 0 322.5 134t134.5 322v471q0 188 -134 322.5t-323 134.5h-456v-1384z" />
<glyph unicode="E" horiz-adv-x="1288" d="M174 0v1442h971v-29h-942v-678h942v-28h-942v-678h942v-29h-971z" />
<glyph unicode="F" horiz-adv-x="1257" d="M174 0v1442h971v-29h-942v-678h942v-28h-942v-707h-29z" />
<glyph unicode="G" horiz-adv-x="1247" d="M133 485v471q0 201 142.5 343.5t342.5 142.5q133 0 246 -66.5t176 -177.5l-26 -14q-59 104 -165 166.5t-231 62.5q-188 0 -322 -134t-134 -323v-471q0 -188 134 -322t322.5 -134t322.5 134t134 322v222h-457v28h486v-735h-29v319q-51 -141 -176 -230t-281 -89 q-201 0 -343 142t-142 343z" />
<glyph unicode="H" horiz-adv-x="1318" d="M174 0v1442h29v-707h913v707h29v-1442h-29v707h-913v-707h-29z" />
<glyph unicode="I" horiz-adv-x="376" d="M174 0v1442h29v-1442h-29z" />
<glyph unicode="J" horiz-adv-x="688" d="M31 0v31h75q166 0 282 116.5t116 280.5v1014h31v-1014q0 -176 -126 -302t-303 -126h-75z" />
<glyph unicode="K" horiz-adv-x="1200" d="M174 0v1442h29v-910l919 910h41l-575 -572l577 -870h-37l-561 850l-364 -361v-489h-29z" />
<glyph unicode="L" horiz-adv-x="1175" d="M174 0v1442h29v-1413h942v-29h-971z" />
<glyph unicode="M" horiz-adv-x="1630" d="M174 0v1442h25l616 -1399l619 1399h22v-1442h-29v1358l-598 -1358h-28l-598 1358v-1358h-29z" />
<glyph unicode="N" horiz-adv-x="1318" d="M174 0v1442h23l919 -1379v1379h29v-1442h-21l-921 1378v-1378h-29z" />
<glyph unicode="O" horiz-adv-x="1236" d="M133 485v471q0 201 142.5 343.5t343 142.5t343 -142.5t142.5 -343.5v-471q0 -201 -142.5 -343t-343 -142t-343 142t-142.5 343zM162 485q0 -188 134 -322t322.5 -134t322.5 134t134 322v471q0 188 -134 322.5t-322.5 134.5t-322.5 -134t-134 -323v-471z" />
<glyph unicode="P" horiz-adv-x="1206" d="M174 0v1442h614q147 0 252 -107.5t105 -259t-104.5 -260t-252.5 -108.5h-585v-707h-29zM203 735h585q135 0 231.5 99.5t96.5 240.5q0 139 -96 238.5t-232 99.5h-585v-678z" />
<glyph unicode="Q" horiz-adv-x="1253" d="M133 485v471q0 201 142.5 343.5t343 142.5t343 -142.5t142.5 -343.5v-471q0 -195 -131 -331l137 -140l-20 -20l-140 137q-137 -131 -332 -131q-201 0 -343 142t-142 343zM162 485q0 -188 134 -322t322.5 -134t322.5 134t134 322v471q0 188 -134 322.5t-322.5 134.5 t-322.5 -134t-134 -323v-471z" />
<glyph unicode="R" horiz-adv-x="1245" d="M174 0v1442h614q147 0 252 -107.5t105 -259.5q0 -139 -88 -242.5t-219 -121.5l315 -711h-33l-313 707h-604v-707h-29zM203 735h585q135 0 231.5 99.5t96.5 240.5q0 139 -96 238.5t-232 99.5h-585v-678z" />
<glyph unicode="S" horiz-adv-x="1155" d="M92 1075q0 152 104.5 259.5t252.5 107.5h258q115 0 208 -68.5t127 -175.5l-26 -10q-35 100 -120 162.5t-189 62.5h-258q-135 0 -231.5 -99.5t-96.5 -238.5q0 -141 94 -216t213 -99q43 -8 157.5 -23.5t149.5 -23.5q145 -33 236.5 -117t91.5 -227q0 -152 -104.5 -260.5 t-251.5 -108.5h-258q-115 0 -208.5 68.5t-127.5 177.5l26 10q35 -100 120 -163.5t190 -63.5h258q135 0 231 99t96 241q0 135 -85 209.5t-214 101.5q-59 14 -175 29.5t-122 17.5q-152 23 -249 112t-97 236z" />
<glyph unicode="T" horiz-adv-x="1032" d="M31 1413v29h970v-29h-471v-1413h-28v1413h-471z" />
<glyph unicode="U" horiz-adv-x="1277" d="M154 485v957h28v-957q0 -188 134.5 -322t322.5 -134t322.5 134t134.5 322v957h28v-957q0 -201 -142 -343t-343 -142t-343 142t-142 343z" />
<glyph unicode="V" horiz-adv-x="1030" d="M20 1442h31l465 -1395l463 1395h31l-480 -1442h-30z" />
<glyph unicode="W" horiz-adv-x="1366" d="M20 1442h31l307 -1374l310 1374h30l308 -1374l309 1374h31l-324 -1442h-31l-309 1376l-307 -1376h-31z" />
<glyph unicode="X" horiz-adv-x="1017" d="M10 0l482 721l-482 721h35l465 -694l463 694h35l-482 -721l482 -721h-35l-463 694l-465 -694h-35z" />
<glyph unicode="Y" horiz-adv-x="1038" d="M20 1442h35l465 -694l463 694h35l-483 -725v-717h-31v717z" />
<glyph unicode="Z" horiz-adv-x="1155" d="M92 0v29l936 1384h-936v29h971v-25l-936 -1388h936v-29h-971z" />
<glyph unicode="[" horiz-adv-x="573" d="M174 0v1444h328v-31h-299v-1382h299v-31h-328z" />
<glyph unicode="\" horiz-adv-x="573" d="M31 1444h30l482 -1444h-31z" />
<glyph unicode="]" horiz-adv-x="573" d="M72 0v31h299v1382h-299v31h327v-1444h-327z" />
<glyph unicode="^" horiz-adv-x="1075" d="M33 618l471 824h26l471 -826l-24 -14l-459 803l-459 -803z" />
<glyph unicode="_" horiz-adv-x="1196" d="M113 0v29h970v-29h-970z" />
<glyph unicode="`" horiz-adv-x="612" d="M92 1413l14 25l414 -236l-14 -24z" />
<glyph unicode="a" horiz-adv-x="1099" d="M102 249.5q0 104.5 73 177.5t177 73h355q221 0 221 162q0 133 -96.5 206.5t-243.5 73.5h-117q-109 0 -197 -63.5t-122 -163.5l-29 10q39 111 133 178.5t215 67.5h117q160 0 264 -80t104 -229v-662h-28v223q-43 -100 -134.5 -161.5t-205.5 -61.5h-236q-104 0 -177 72.5 t-73 177zM131 250q0 -90 65.5 -155.5t155.5 -65.5h236q141 0 240.5 99t99.5 241v188q-57 -86 -221 -86h-355q-90 0 -155.5 -64.5t-65.5 -156.5z" />
<glyph unicode="b" horiz-adv-x="1130" d="M174 0v1442h29v-742q49 121 156.5 196t240.5 75q178 0 303 -125t125 -301v-119q0 -176 -125 -301t-303 -125q-133 0 -240.5 75t-156.5 195v-270h-29zM203 426q0 -164 116.5 -280.5t280.5 -116.5q166 0 282.5 116.5t116.5 280.5v119q0 164 -116.5 280.5t-282.5 116.5 q-164 0 -280.5 -116.5t-116.5 -280.5v-119z" />
<glyph unicode="c" horiz-adv-x="997" d="M102 426v119q0 176 125 301t301 125q127 0 230.5 -66.5t156.5 -177.5l-26 -12q-49 102 -145.5 164.5t-215.5 62.5q-164 0 -280.5 -116.5t-116.5 -280.5v-119q0 -164 117 -280.5t280 -116.5q117 0 214.5 62.5t146.5 164.5l26 -12q-53 -111 -156.5 -177.5t-230.5 -66.5 q-176 0 -301 125t-125 301z" />
<glyph unicode="d" horiz-adv-x="1130" d="M102 426v119q0 176 125 301t301 125q135 0 243 -75t157 -196v742h28v-1442h-28v270q-49 -121 -156.5 -195.5t-243.5 -74.5q-176 0 -301 125t-125 301zM131 426q0 -164 117 -280.5t280 -116.5q166 0 283 116.5t117 280.5v119q0 164 -117 280.5t-283 116.5 q-164 0 -280.5 -116.5t-116.5 -280.5v-119z" />
<glyph unicode="e" horiz-adv-x="1058" d="M102 426v119q0 176 125 301t301 125q178 0 303 -125t125 -301v-74h-825v-45q0 -164 117 -280.5t280 -116.5q119 0 215.5 62.5t145.5 164.5l26 -12q-55 -111 -157.5 -177.5t-229.5 -66.5q-176 0 -301 125t-125 301zM131 500h797v45q0 164 -117 280.5t-283 116.5 q-164 0 -280.5 -116.5t-116.5 -280.5v-45z" />
<glyph unicode="f" horiz-adv-x="589" d="M-10 942v29h274v221q0 104 74 177t176 73h55v-29h-55q-90 0 -154.5 -64.5t-64.5 -156.5v-221h274v-29h-274v-942h-31v942h-274z" />
<glyph unicode="g" d="M102 426v119q0 176 125 301t301 125q135 0 243 -75t157 -196v271h28v-1016q0 -176 -124.5 -301t-303.5 -125q-125 0 -228 67.5t-157 178.5l27 12q49 -102 145.5 -165.5t212.5 -63.5q166 0 283 116.5t117 280.5v315q-49 -121 -156.5 -195.5t-243.5 -74.5q-176 0 -301 125 t-125 301zM131 426q0 -164 117 -280.5t280 -116.5q166 0 283 116.5t117 280.5v119q0 164 -117 280.5t-283 116.5q-164 0 -280.5 -116.5t-116.5 -280.5v-119z" />
<glyph unicode="h" horiz-adv-x="1161" d="M174 0v1442h29v-742q49 121 156.5 196t240.5 75q178 0 303 -125t125 -301v-545h-29v545q0 164 -116.5 280.5t-282.5 116.5q-164 0 -280.5 -116.5t-116.5 -280.5v-545h-29z" />
<glyph unicode="i" horiz-adv-x="356" d="M164 0v971h29v-971h-29zM164 1178v264h29v-264h-29z" />
<glyph unicode="j" horiz-adv-x="481" d="M10 -442h47q92 0 157 65.5t65 155.5v1192h28v-1192q0 -102 -72.5 -176t-177.5 -74h-47v29zM279 1178v264h28v-264h-28z" />
<glyph unicode="k" horiz-adv-x="1093" d="M174 0v1442h29v-1147l790 678h45l-374 -324l378 -649h-34l-367 631l-438 -375v-256h-29z" />
<glyph unicode="l" horiz-adv-x="376" d="M174 0v1442h29v-1442h-29z" />
<glyph unicode="m" horiz-adv-x="1435" d="M164 0v971h29v-154q37 70 103 112t148 42h19q92 0 163.5 -52.5t100.5 -136.5q29 84 100.5 136.5t163.5 52.5h19q117 0 198.5 -82t81.5 -197v-692h-30v692q0 102 -73 176t-177 74h-19q-102 0 -176 -73.5t-74 -176.5v-692h-28v692q0 102 -74 176t-176 74h-19 q-104 0 -177.5 -73.5t-73.5 -176.5v-692h-29z" />
<glyph unicode="n" horiz-adv-x="1150" d="M164 0v971h29v-271q49 121 156.5 196t240.5 75q178 0 303 -125t125 -301v-545h-29v545q0 164 -116.5 280.5t-282.5 116.5q-164 0 -280.5 -116.5t-116.5 -280.5v-545h-29z" />
<glyph unicode="o" horiz-adv-x="1058" d="M102 426v119q0 176 125 301t301 125q178 0 303 -125t125 -301v-119q0 -176 -124.5 -301t-303.5 -125q-176 0 -301 125t-125 301zM131 426q0 -164 117 -280.5t280 -116.5q166 0 283 116.5t117 280.5v119q0 164 -117 280.5t-283 116.5q-164 0 -280.5 -116.5t-116.5 -280.5 v-119z" />
<glyph unicode="p" d="M164 -471v1442h29v-271q49 121 156.5 196t240.5 75q178 0 303 -125t125 -301v-119q0 -176 -125 -301t-303 -125q-133 0 -240.5 75t-156.5 195v-741h-29zM193 426q0 -164 116.5 -280.5t280.5 -116.5q166 0 282.5 116.5t116.5 280.5v119q0 164 -116.5 280.5t-282.5 116.5 q-164 0 -280.5 -116.5t-116.5 -280.5v-119z" />
<glyph unicode="q" d="M102 426v119q0 176 125 301t301 125q135 0 243 -75t157 -196v271h28v-1442h-28v741q-49 -121 -156.5 -195.5t-243.5 -74.5q-176 0 -301 125t-125 301zM131 426q0 -164 117 -280.5t280 -116.5q166 0 283 116.5t117 280.5v119q0 164 -117 280.5t-283 116.5 q-164 0 -280.5 -116.5t-116.5 -280.5v-119z" />
<glyph unicode="r" horiz-adv-x="647" d="M164 0v971h29v-271q49 121 156.5 196t240.5 75h16v-29h-16q-164 0 -280.5 -116.5t-116.5 -280.5v-545h-29z" />
<glyph unicode="s" horiz-adv-x="1040" d="M72 725q0 104 73.5 178t178.5 74h247q119 0 215.5 -69.5t135.5 -178.5l-29 -10q-35 100 -123 163.5t-199 63.5h-247q-92 0 -158 -64.5t-66 -156.5q0 -45 14.5 -80t48.5 -57.5t63.5 -36.5t89 -23.5t91 -13.5t103.5 -10q78 -6 125 -12.5t110.5 -23.5t97.5 -42t59.5 -70 t25.5 -104q0 -104 -73 -178t-177 -74h-250q-121 0 -216 68.5t-132 179.5l26 8q37 -100 125 -163.5t197 -63.5h250q92 0 156.5 65.5t64.5 157.5q0 45 -14.5 79t-47 56.5t-62.5 36.5t-86 24.5t-91 14.5t-102 10q-82 8 -127 13.5t-110.5 21.5t-99.5 40.5t-60.5 70t-26.5 106.5z " />
<glyph unicode="t" horiz-adv-x="641" d="M-10 942v29h274v471h31v-471h274v-29h-274v-692q0 -90 64.5 -155.5t154.5 -65.5h55v-29h-55q-102 0 -176 73.5t-74 176.5v692h-274z" />
<glyph unicode="u" horiz-adv-x="1150" d="M133 426v545h29v-545q0 -164 116.5 -280.5t280.5 -116.5q166 0 282.5 116.5t116.5 280.5v545h29v-971h-29v270q-49 -121 -156.5 -195.5t-242.5 -74.5q-176 0 -301 125t-125 301z" />
<glyph unicode="v" horiz-adv-x="921" d="M20 975h33l408 -938l407 938h33l-424 -975h-33z" />
<glyph unicode="w" horiz-adv-x="1216" d="M20 975h31l271 -922l272 922h31l270 -922l270 922h31l-285 -975h-32l-271 924l-270 -924h-31z" />
<glyph unicode="x" horiz-adv-x="897" d="M10 0l420 485l-420 486h39l400 -463l399 463h39l-418 -486l418 -485h-39l-399 463l-400 -463h-39z" />
<glyph unicode="y" horiz-adv-x="917" d="M20 971h33l406 -934l407 934h31l-627 -1442h-32l204 471z" />
<glyph unicode="z" horiz-adv-x="976" d="M61 0v29l816 913h-816v29h854v-27l-815 -915h815v-29h-854z" />
<glyph unicode="{" horiz-adv-x="700" d="M82 707v28q92 0 156.5 65.5t64.5 155.5v236q0 104 74 177t176 73h76v-29h-76q-92 0 -156.5 -64.5t-64.5 -156.5v-236q0 -80 -46 -144t-120 -91q74 -27 120 -91.5t46 -144.5v-235q0 -90 64.5 -155.5t156.5 -65.5h76v-29h-76q-102 0 -176 73.5t-74 176.5v235 q0 92 -64.5 157t-156.5 65z" />
<glyph unicode="|" horiz-adv-x="376" d="M174 0v1442h29v-1442h-29z" />
<glyph unicode="}" horiz-adv-x="700" d="M72 0v29h75q92 0 157 65.5t65 155.5v235q0 80 46 144.5t120 91.5q-74 27 -120 91.5t-46 143.5v236q0 92 -64.5 156.5t-157.5 64.5h-75v29h75q104 0 177 -73t73 -177v-236q0 -90 65.5 -155.5t155.5 -65.5v-28q-90 0 -155.5 -64.5t-65.5 -157.5v-235q0 -102 -72.5 -176 t-177.5 -74h-75z" />
<glyph unicode="~" horiz-adv-x="911" d="M113 502q76 76 155 76q68 0 189 -71t184 -71q72 0 137 66l21 -21q-72 -76 -156 -75q-66 0 -187.5 70.5t-185.5 70.5q-72 0 -137 -66z" />
<glyph unicode="&#xa1;" horiz-adv-x="376" d="M174 0v971h29v-971h-29zM174 1178v264h29v-264h-29z" />
<glyph unicode="&#xa2;" d="M154 424v117q0 174 120.5 298t292.5 128v237h29v-237q121 -2 220 -69t151 -175l-27 -12q-49 102 -145.5 164.5t-214.5 62.5q-164 0 -281 -116.5t-117 -280.5v-117q0 -166 117 -281.5t281 -115.5q119 0 215 61.5t145 163.5l27 -12q-51 -106 -150.5 -173t-220.5 -71v-236 h-29v236q-172 6 -292.5 130t-120.5 298z" />
<glyph unicode="&#xa3;" horiz-adv-x="1255" d="M0 707v28h238v221q0 201 142 343.5t343 142.5q133 0 245.5 -65.5t176.5 -178.5l-27 -14q-59 104 -164.5 166.5t-230.5 62.5q-188 0 -322.5 -134t-134.5 -323v-221h629v-28h-629v-678h899v235h29v-264h-956v707h-238z" />
<glyph unicode="&#xa4;" horiz-adv-x="1071" d="M102 14l115 129q-109 121 -108 285v117q0 164 108 284l-115 129l23 21l113 -129q123 123 297 123q176 0 299 -123l112 129l23 -21l-115 -129q109 -121 109 -284v-117q0 -164 -109 -283l115 -131l-23 -20l-112 129q-123 -123 -299 -123q-174 0 -297 123l-113 -129z M137 428q0 -164 117 -280.5t281 -116.5q166 0 281.5 116.5t115.5 280.5v117q0 166 -116 281.5t-281 115.5q-164 0 -281 -115.5t-117 -281.5v-117z" />
<glyph unicode="&#xa5;" horiz-adv-x="1040" d="M20 1442h35l465 -694l465 694h35l-315 -471h301v-29h-320l-151 -225v-217h471v-29h-471v-471h-29v471h-471v29h471v217l-152 225h-319v29h301z" />
<glyph unicode="&#xa6;" horiz-adv-x="376" d="M174 -2v500h29v-500h-29zM174 940v500h29v-500h-29z" />
<glyph unicode="&#xa7;" horiz-adv-x="1093" d="M127 246l29 10q35 -100 123 -163.5t196 -63.5h256q90 0 155.5 65.5t65.5 155.5q0 82 -74.5 131t-183.5 65l-350 52q-94 14 -154.5 84.5t-60.5 162.5q0 86 52 152t132 90q-186 61 -186 205q0 104 73.5 177t176.5 73h256q119 0 214 -68.5t134 -177.5l-29 -10 q-35 100 -123 163.5t-196 63.5h-256q-90 0 -155.5 -64.5t-65.5 -156.5q0 -82 74.5 -132t183.5 -67l350 -49q94 -14 154.5 -85t60.5 -163q0 -88 -52.5 -154.5t-131.5 -88.5q186 -57 186 -203q0 -102 -73.5 -176t-176.5 -74h-256q-119 0 -214 68.5t-134 177.5zM158 745 q0 -82 54 -144t136 -75l350 -51q10 -2 29 -2q84 0 146.5 55.5t74.5 137.5q2 10 2 30q0 82 -54 144.5t-136 74.5l-350 50q-10 2 -31 2q-90 0 -155.5 -64t-65.5 -158z" />
<glyph unicode="&#xa8;" horiz-adv-x="569" d="M133 1180v264h29v-264h-29zM408 1180v264h28v-264h-28z" />
<glyph unicode="&#xa9;" horiz-adv-x="1669" d="M113 721q0 299 212 510t509 211q299 0 510.5 -211t211.5 -510t-211.5 -510t-510.5 -211t-510 211t-211 510zM141 721q0 -287 203 -489.5t489.5 -202.5t489.5 202.5t203 489.5t-203 489.5t-489.5 202.5t-489.5 -202.5t-203 -489.5zM508 565v312q0 135 95 230t231 95 q90 0 164.5 -44t117.5 -120l-24 -14q-39 68 -108 107.5t-150 39.5q-123 0 -209 -86t-86 -208v-312q0 -123 86 -210t209 -87q82 0 150.5 41t107.5 109l24 -17q-43 -74 -117.5 -117.5t-164.5 -43.5q-135 0 -230.5 95t-95.5 230z" />
<glyph unicode="&#xaa;" horiz-adv-x="600" d="M92 1091.5q0 51.5 36 87t87 35.5h172q106 0 107 78q0 66 -46.5 102t-117.5 36h-58q-53 0 -96 -31t-59 -80l-15 4q18 53 64.5 87t105.5 34h58q76 0 127 -40t51 -112v-321h-14v108q-20 -49 -64.5 -78.5t-99.5 -29.5h-115q-51 0 -87 34.5t-36 86zM106 1092q0 -45 32 -76 t77 -31h115q68 0 116 48t48 116v92q-27 -41 -107 -41h-172q-45 0 -77 -31.5t-32 -76.5z" />
<glyph unicode="&#xab;" horiz-adv-x="1015" d="M82 477v21l418 477h39l-426 -488l430 -487h-39zM494 477v21l417 477h39l-426 -488l430 -487h-41z" />
<glyph unicode="&#xac;" horiz-adv-x="1112" d="M51 475v29h969v-504h-31v475h-938z" />
<glyph unicode="&#xad;" horiz-adv-x="710" d="M113 475v29h485v-29h-485z" />
<glyph unicode="&#xae;" horiz-adv-x="1669" d="M113 721q0 299 212 510t509 211q299 0 510.5 -211t211.5 -510t-211.5 -510t-510.5 -211t-510 211t-211 510zM141 721q0 -287 203 -489.5t489.5 -202.5t489.5 202.5t203 489.5t-203 489.5t-489.5 202.5t-489.5 -202.5t-203 -489.5zM508 240v962h412q100 0 169.5 -72.5 t69.5 -175.5q0 -92 -57.5 -160.5t-143.5 -84.5l211 -469h-32l-209 467h-389v-467h-31zM539 735h381q88 0 149 64.5t61 154.5t-61 155t-149 65h-381v-439z" />
<glyph unicode="&#xaf;" horiz-adv-x="710" d="M113 1413v29h485v-29h-485z" />
<glyph unicode="&#xb0;" horiz-adv-x="761" d="M92 985v176q0 115 82 197t199 82h16q117 0 199 -82t82 -197v-176q0 -117 -82 -198.5t-199 -81.5h-16q-117 0 -199 81.5t-82 198.5zM121 985q0 -104 73.5 -178t178.5 -74h16q104 0 178 74t74 178v176q0 102 -73.5 176t-178.5 74h-16q-104 0 -178 -73.5t-74 -176.5v-176z " />
<glyph unicode="&#xb1;" horiz-adv-x="1200" d="M113 948v29h471v467h28v-467h471v-29h-471v-475h-28v475h-471zM117 0v29h970v-29h-970z" />
<glyph unicode="&#xb2;" horiz-adv-x="686" d="M113 709v24l379 428q31 33 30 94q0 68 -47 116t-115 48h-59q-53 0 -95 -30.5t-59 -77.5l-28 8q20 57 70.5 93t111.5 36h59q80 0 136.5 -56.5t56.5 -136.5q0 -68 -37 -110l-360 -406h381v-30h-424z" />
<glyph unicode="&#xb3;" horiz-adv-x="657" d="M102 838l29 8q16 -47 58 -77t94 -30h59q68 0 116 47.5t48 115t-48 114.5t-116 47h-59v31h59q68 0 116 47t48 114.5t-48 115.5t-116 48h-59q-51 0 -93.5 -30.5t-58.5 -77.5l-29 8q20 57 69.5 93t111.5 36h59q80 0 136.5 -56.5t56.5 -136.5q0 -59 -33 -106t-86 -70 q53 -23 86 -70.5t33 -107.5q0 -80 -56.5 -136t-136.5 -56h-59q-61 0 -111 36t-70 93z" />
<glyph unicode="&#xb4;" horiz-adv-x="612" d="M92 1202l414 236l14 -25l-414 -235z" />
<glyph unicode="&#xb5;" horiz-adv-x="1181" d="M164 -471v1442h29v-545q0 -164 116.5 -280.5t280.5 -116.5q166 0 282.5 116.5t116.5 280.5v545h29v-971h-29v270q-49 -121 -156.5 -195.5t-242.5 -74.5q-133 0 -240.5 75t-156.5 195v-741h-29z" />
<glyph unicode="&#x3bc;" horiz-adv-x="1181" d="M164 -471v1442h29v-545q0 -164 116.5 -280.5t280.5 -116.5q166 0 282.5 116.5t116.5 280.5v545h29v-971h-29v270q-49 -121 -156.5 -195.5t-242.5 -74.5q-133 0 -240.5 75t-156.5 195v-741h-29z" />
<glyph unicode="&#xb6;" horiz-adv-x="1185" d="M41 1075.5q0 151.5 104.5 259t251.5 107.5h615v-1442h-29v707h-442v-707h-29v707h-115q-147 0 -251.5 108.5t-104.5 260zM541 735h442v678h-442v-678z" />
<glyph unicode="&#xb7;" horiz-adv-x="294" d="M133 438v267h29v-267h-29z" />
<glyph unicode="&#xb8;" horiz-adv-x="348" d="M51 -150h27q0 -39 28.5 -66.5t67.5 -27.5t66.5 28t27.5 66.5t-27.5 67.5t-66.5 29h-14v84h26v-58q47 -6 79 -40.5t32 -82.5q0 -51 -36 -86.5t-87 -35.5t-87 35.5t-36 86.5z" />
<glyph unicode="&#xb9;" horiz-adv-x="481" d="M72 1419v29h235v-739h-28v710h-207z" />
<glyph unicode="&#xba;" horiz-adv-x="620" d="M102 1178v57q0 86 60.5 147.5t148.5 61.5q86 0 146.5 -61.5t60.5 -147.5v-57q0 -86 -60.5 -146.5t-146.5 -60.5q-88 0 -148.5 60.5t-60.5 146.5zM117 1178q0 -80 56 -136.5t138 -56.5q80 0 136.5 56.5t56.5 136.5v57q0 80 -56.5 137.5t-136.5 57.5q-82 0 -138 -57.5 t-56 -137.5v-57z" />
<glyph unicode="&#xbb;" horiz-adv-x="1015" d="M61 0l428 487l-423 488h38l416 -477v-21l-420 -477h-39zM473 0l430 487l-426 488h39l418 -477v-21l-422 -477h-39z" />
<glyph unicode="&#xbc;" horiz-adv-x="1200" d="M72 1419v29h235v-739h-28v710h-207zM121 0l844 1448h32l-843 -1448h-33zM604 236v30l141 473h31l-137 -473h379v236h29v-502h-29v236h-414z" />
<glyph unicode="&#xbd;" horiz-adv-x="1169" d="M72 1419v29h235v-739h-28v710h-207zM121 0l844 1448h32l-843 -1448h-33zM608 0v25l379 428q31 37 31 94q0 68 -48 115t-116 47h-59q-51 0 -93.5 -31t-58.5 -78l-29 10q20 57 69.5 93t111.5 36h59q80 0 136.5 -56t56.5 -136q0 -74 -39 -115l-357 -403h381v-29h-424z" />
<glyph unicode="&#xbe;" horiz-adv-x="1206" d="M113 838l28 8q16 -47 58.5 -77t93.5 -30h59q68 0 116 47.5t48 115t-48 114.5t-116 47h-59v31h59q68 0 116 47t48 114.5t-48 115.5t-116 48h-59q-51 0 -93 -30.5t-59 -77.5l-28 8q20 57 69 93t111 36h59q80 0 136.5 -56.5t56.5 -136.5q0 -59 -33 -106t-86 -70 q53 -23 86 -70.5t33 -107.5q0 -80 -56.5 -136t-136.5 -56h-59q-61 0 -110.5 36t-69.5 93zM162 0l844 1448h32l-843 -1448h-33zM645 236v30l141 473h31l-137 -473h379v236h28v-502h-28v236h-414z" />
<glyph unicode="&#xbf;" horiz-adv-x="946" d="M92 368.5q0 151.5 107.5 259t261.5 107.5h45v221h29v-249h-74q-141 0 -240.5 -99.5t-99.5 -238.5q0 -141 99 -240.5t241 -99.5h117q109 0 196.5 63.5t122.5 163.5l29 -10q-39 -109 -134.5 -177.5t-213.5 -68.5h-117q-154 0 -261.5 108.5t-107.5 260zM506 1178v264h29 v-264h-29z" />
<glyph unicode="&#xc0;" horiz-adv-x="1044" d="M31 0l477 1442h29l477 -1442h-31l-119 352h-684l-119 -352h-30zM190 383h664l-332 993zM406 1706l14 25l227 -134l-14 -24z" />
<glyph unicode="&#xc1;" horiz-adv-x="1044" d="M31 0l477 1442h29l477 -1442h-31l-119 352h-684l-119 -352h-30zM190 383h664l-332 993zM406 1597l227 134l14 -25l-227 -133z" />
<glyph unicode="&#xc2;" horiz-adv-x="1044" d="M31 0l477 1442h29l477 -1442h-31l-119 352h-684l-119 -352h-30zM190 383h664l-332 993zM283 1597l227 134h25l227 -134l-14 -24l-226 131l-225 -131z" />
<glyph unicode="&#xc3;" horiz-adv-x="1044" d="M31 0l477 1442h29l477 -1442h-31l-119 352h-684l-119 -352h-30zM190 383h664l-332 993zM217 1573v14q0 72 49 121t121 49q59 0 104.5 -39t86 -77.5t94.5 -38.5q57 0 99 40.5t42 100.5v14h29v-14q0 -72 -50.5 -121t-119.5 -49q-59 0 -104.5 39t-86.5 78t-94 39 q-57 0 -98 -41t-41 -101v-14h-31z" />
<glyph unicode="&#xc4;" horiz-adv-x="1044" d="M31 0l477 1442h29l477 -1442h-31l-119 352h-684l-119 -352h-30zM190 383h664l-332 993zM373 1573v266h28v-266h-28zM647 1573v266h29v-264z" />
<glyph unicode="&#xc5;" horiz-adv-x="1044" d="M31 0l477 1442h29l477 -1442h-31l-119 352h-684l-119 -352h-30zM190 383h664l-332 993zM360 1732.5q0 65.5 47.5 112.5t112.5 47q68 0 115 -47t47 -112.5t-47 -112.5t-113 -47q-68 0 -115 47t-47 112.5zM391 1732.5q0 -53.5 38 -91t91 -37.5q55 0 93 37.5t38 91t-38 92.5 t-91 39q-55 0 -93 -39t-38 -92.5z" />
<glyph unicode="&#xc6;" horiz-adv-x="2070" d="M0 0l954 1442h973v-29h-942v-678h942v-28h-942v-678h942v-29h-973v352h-686l-233 -352h-35zM289 381h665v1005z" />
<glyph unicode="&#xc7;" horiz-adv-x="1142" d="M133 485v471q0 201 142.5 343.5t342.5 142.5q133 0 246 -66.5t176 -177.5l-26 -14q-59 104 -165 166.5t-231 62.5q-188 0 -322 -134t-134 -323v-471q0 -188 134 -322t322 -134q125 0 230.5 62.5t165.5 166.5l26 -14q-61 -109 -169.5 -174.5t-237.5 -69.5v-27 q47 -6 78.5 -40.5t31.5 -82.5q0 -51 -35.5 -86.5t-87 -35.5t-87 35.5t-35.5 86.5h26q0 -39 29 -66.5t67.5 -27.5t66.5 28t28 66.5t-28 67.5t-66 29h-15v53q-197 4 -335 145t-138 340z" />
<glyph unicode="&#xc8;" horiz-adv-x="1288" d="M174 0v1442h971v-29h-942v-678h942v-28h-942v-678h942v-29h-971zM528 1706l15 25l227 -134l-14 -24z" />
<glyph unicode="&#xc9;" horiz-adv-x="1288" d="M174 0v1442h971v-29h-942v-678h942v-28h-942v-678h942v-29h-971zM528 1597l228 134l14 -25l-227 -133z" />
<glyph unicode="&#xca;" horiz-adv-x="1288" d="M174 0v1442h971v-29h-942v-678h942v-28h-942v-678h942v-29h-971zM420 1597l227 134h25l227 -134l-14 -24l-226 131l-225 -131z" />
<glyph unicode="&#xcb;" horiz-adv-x="1288" d="M174 0v1442h971v-29h-942v-678h942v-28h-942v-678h942v-29h-971zM506 1573v264h29v-264h-29zM780 1573v264h29v-264h-29z" />
<glyph unicode="&#xcc;" horiz-adv-x="376" d="M68 1706l14 25l227 -134l-14 -24zM174 0v1442h29v-1442h-29z" />
<glyph unicode="&#xcd;" horiz-adv-x="376" d="M68 1597l227 134l14 -25l-227 -133zM174 0v1442h29v-1442h-29z" />
<glyph unicode="&#xce;" horiz-adv-x="376" d="M-51 1597l227 134h25l227 -134l-14 -24l-226 131l-225 -131zM174 0v1442h29v-1442h-29z" />
<glyph unicode="&#xcf;" horiz-adv-x="376" d="M37 1573v264h29v-264h-29zM174 0v1442h29v-1442h-29zM311 1573v264h29v-264h-29z" />
<glyph unicode="&#xd0;" horiz-adv-x="1429" d="M10 709v28h314v707h485q201 0 344 -142.5t143 -343.5v-471q0 -201 -143 -343t-344 -142h-485v707h-314zM354 31h455q188 0 322.5 134t134.5 322v471q0 188 -134.5 322.5t-322.5 134.5h-455v-678h314v-28h-314v-678z" />
<glyph unicode="&#xd1;" horiz-adv-x="1318" d="M174 0v1442h23l919 -1379v1379h29v-1442h-21l-921 1378v-1378h-29zM350 1575v14q0 70 50.5 120t119.5 50q59 0 104.5 -39t86.5 -77.5t94 -38.5q59 0 100 42t41 99v14h29v-14q0 -70 -49 -120t-121 -50q-59 0 -104.5 39t-86.5 78t-94 39q-57 0 -98 -41t-41 -101v-14h-31z " />
<glyph unicode="&#xd2;" horiz-adv-x="1236" d="M133 485v471q0 201 142.5 343.5t343 142.5t343 -142.5t142.5 -343.5v-471q0 -201 -142.5 -343t-343 -142t-343 142t-142.5 343zM162 485q0 -188 134 -322t322.5 -134t322.5 134t134 322v471q0 188 -134 322.5t-322.5 134.5t-322.5 -134t-134 -323v-471zM516 1706l14 25 l228 -134l-15 -24z" />
<glyph unicode="&#xd3;" horiz-adv-x="1236" d="M133 485v471q0 201 142.5 343.5t343 142.5t343 -142.5t142.5 -343.5v-471q0 -201 -142.5 -343t-343 -142t-343 142t-142.5 343zM162 485q0 -188 134 -322t322.5 -134t322.5 134t134 322v471q0 188 -134 322.5t-322.5 134.5t-322.5 -134t-134 -323v-471zM516 1597l227 134 l15 -25l-228 -133z" />
<glyph unicode="&#xd4;" horiz-adv-x="1236" d="M133 485v471q0 201 142.5 343.5t343 142.5t343 -142.5t142.5 -343.5v-471q0 -201 -142.5 -343t-343 -142t-343 142t-142.5 343zM162 485q0 -188 134 -322t322.5 -134t322.5 134t134 322v471q0 188 -134 322.5t-322.5 134.5t-322.5 -134t-134 -323v-471zM379 1597l227 134 h25l227 -134l-14 -24l-226 131l-225 -131z" />
<glyph unicode="&#xd5;" horiz-adv-x="1236" d="M133 487v471q0 201 142.5 343.5t343 142.5t343 -142.5t142.5 -343.5v-471q0 -201 -142.5 -344t-343 -143t-343 143t-142.5 344zM162 487q0 -188 134 -322t322.5 -134t322.5 134t134 322v471q0 188 -134 321.5t-322.5 133.5t-322.5 -133t-134 -322v-471zM309 1575v14 q0 70 50.5 120t119.5 50q59 0 104.5 -39t86.5 -77.5t94 -38.5q59 0 100 42t41 99v14h29v-14q0 -70 -49 -120t-121 -50q-59 0 -104.5 39t-86.5 78t-94 39q-57 0 -98 -41t-41 -101v-14h-31z" />
<glyph unicode="&#xd6;" horiz-adv-x="1236" d="M133 485v471q0 201 142.5 343.5t343 142.5t343 -142.5t142.5 -343.5v-471q0 -201 -142.5 -343t-343 -142t-343 142t-142.5 343zM162 485q0 -188 134 -322t322.5 -134t322.5 134t134 322v471q0 188 -134 322.5t-322.5 134.5t-322.5 -134t-134 -323v-471zM465 1573v264h29 v-264h-29zM739 1573v264h29v-264h-29z" />
<glyph unicode="&#xd7;" horiz-adv-x="1032" d="M164 162l334 332l-332 331l20 21l332 -332l332 334l20 -21l-333 -333l337 -336l-20 -21l-336 338l-334 -334z" />
<glyph unicode="&#xd8;" horiz-adv-x="1236" d="M133 0l121 182q-106 129 -107 303v471q0 201 142.5 343.5t343.5 142.5q213 0 358 -156l105 156h34l-120 -180q109 -131 108 -306v-471q0 -201 -142 -343t-343 -142q-215 0 -359 158l-106 -158h-35zM176 485q0 -156 94 -278l703 1053q-133 154 -340 153 q-188 0 -322.5 -134t-134.5 -323v-471zM291 184q135 -156 342 -155q188 0 322.5 134t134.5 322v471q0 154 -97 281z" />
<glyph unicode="&#xd9;" horiz-adv-x="1277" d="M154 485v957h28v-957q0 -188 134.5 -322t322.5 -134t322.5 134t134.5 322v957h28v-957q0 -201 -142 -343t-343 -142t-343 142t-142 343zM516 1706l14 25l228 -134l-15 -24z" />
<glyph unicode="&#xda;" horiz-adv-x="1277" d="M154 485v957h28v-957q0 -188 134.5 -322t322.5 -134t322.5 134t134.5 322v957h28v-957q0 -201 -142 -343t-343 -142t-343 142t-142 343zM516 1597l227 134l15 -25l-228 -133z" />
<glyph unicode="&#xdb;" horiz-adv-x="1277" d="M154 485v957h28v-957q0 -188 134.5 -322t322.5 -134t322.5 134t134.5 322v957h28v-957q0 -201 -142 -343t-343 -142t-343 142t-142 343zM395 1597l228 134h24l227 -134l-14 -24l-225 131l-225 -131z" />
<glyph unicode="&#xdc;" horiz-adv-x="1277" d="M154 485v957h28v-957q0 -188 134.5 -322t322.5 -134t322.5 134t134.5 322v957h28v-957q0 -201 -142 -343t-343 -142t-343 142t-142 343zM485 1573v264h29v-264h-29zM760 1573v264h28v-264h-28z" />
<glyph unicode="&#xdd;" horiz-adv-x="1019" d="M10 1442h35l465 -694l465 694h35l-486 -725v-717h-28v717zM385 1597l227 134l15 -25l-228 -133z" />
<glyph unicode="&#xde;" horiz-adv-x="1196" d="M174 0v1444h29v-354h585q147 0 252 -108t105 -259.5t-104.5 -260t-252.5 -108.5h-585v-354h-29zM203 383h585q135 0 231.5 99.5t96.5 240.5q0 139 -96 238.5t-232 99.5h-585v-678z" />
<glyph unicode="&#xdf;" horiz-adv-x="1140" d="M164 0v1075q0 152 107.5 259.5t260.5 107.5h117q152 0 260.5 -107.5t108.5 -259.5q0 -125 -75 -222t-189 -132q115 -35 189.5 -132t74.5 -220q0 -154 -108.5 -261.5t-260.5 -107.5h-117v29h117q141 0 240.5 99t99.5 241q0 139 -99 238.5t-241 99.5h-65v28h65 q141 0 240.5 99.5t99.5 240.5q0 139 -99 238.5t-241 99.5h-117q-141 0 -240 -99.5t-99 -238.5v-1075h-29z" />
<glyph unicode="&#xe0;" horiz-adv-x="1099" d="M102 250q0 104 74 177t176 73h355q221 0 221 162q0 133 -95.5 206.5t-244.5 73.5h-117q-111 0 -198 -63.5t-121 -163.5l-29 10q39 109 134 177.5t214 68.5h117q160 0 264 -80t104 -229v-662h-28v223q-43 -100 -135.5 -161.5t-204.5 -61.5h-236q-102 0 -176 74t-74 176z M131 250q0 -90 65.5 -155.5t155.5 -65.5h236q141 0 240.5 99t99.5 241v188q-57 -86 -221 -86h-355q-90 0 -155.5 -64.5t-65.5 -156.5zM385 1315l14 24l228 -133l-15 -24z" />
<glyph unicode="&#xe1;" horiz-adv-x="1099" d="M102 250q0 104 74 177t176 73h355q221 0 221 162q0 133 -95.5 206.5t-244.5 73.5h-117q-111 0 -198 -63.5t-121 -163.5l-29 10q39 109 134 177.5t214 68.5h117q160 0 264 -80t104 -229v-662h-28v223q-43 -100 -135.5 -161.5t-204.5 -61.5h-236q-102 0 -176 74t-74 176z M131 250q0 -90 65.5 -155.5t155.5 -65.5h236q141 0 240.5 99t99.5 241v188q-57 -86 -221 -86h-355q-90 0 -155.5 -64.5t-65.5 -156.5zM385 1206l227 133l15 -24l-228 -133z" />
<glyph unicode="&#xe2;" horiz-adv-x="1099" d="M102 250q0 104 74 177t176 73h355q221 0 221 162q0 133 -95.5 206.5t-244.5 73.5h-117q-111 0 -198 -63.5t-121 -163.5l-29 10q39 109 134 177.5t214 68.5h117q160 0 264 -80t104 -229v-662h-28v223q-43 -100 -135.5 -161.5t-204.5 -61.5h-236q-102 0 -176 74t-74 176z M131 250q0 -90 65.5 -155.5t155.5 -65.5h236q141 0 240.5 99t99.5 241v188q-57 -86 -221 -86h-355q-90 0 -155.5 -64.5t-65.5 -156.5zM289 1202l227 133h25l227 -133l-14 -24l-226 131l-225 -131z" />
<glyph unicode="&#xe3;" horiz-adv-x="1099" d="M102 250q0 104 74 177t176 73h355q221 0 221 162q0 133 -95.5 206.5t-244.5 73.5h-117q-111 0 -198 -63.5t-121 -163.5l-29 10q39 109 134 177.5t214 68.5h117q160 0 264 -80t104 -229v-662h-28v223q-43 -100 -135.5 -161.5t-204.5 -61.5h-236q-102 0 -176 74t-74 176z M131 250q0 -90 65.5 -155.5t155.5 -65.5h236q141 0 240.5 99t99.5 241v188q-57 -86 -221 -86h-355q-90 0 -155.5 -64.5t-65.5 -156.5zM217 1178v14q0 70 49 120t121 50q59 0 104.5 -39t86 -78t94.5 -39q57 0 99 42t42 100v14h29v-14q0 -70 -50.5 -120t-119.5 -50 q-59 0 -104.5 38.5t-86.5 77.5t-94 39q-57 0 -98 -41t-41 -100v-14h-31z" />
<glyph unicode="&#xe4;" horiz-adv-x="1099" d="M102 250q0 104 74 177t176 73h355q221 0 221 162q0 133 -95.5 206.5t-244.5 73.5h-117q-111 0 -198 -63.5t-121 -163.5l-29 10q39 109 134 177.5t214 68.5h117q160 0 264 -80t104 -229v-662h-28v223q-43 -100 -135.5 -161.5t-204.5 -61.5h-236q-102 0 -176 74t-74 176z M131 250q0 -90 65.5 -155.5t155.5 -65.5h236q141 0 240.5 99t99.5 241v188q-57 -86 -221 -86h-355q-90 0 -155.5 -64.5t-65.5 -156.5zM377 1178v264h31v-264h-31zM653 1178v264h29v-264h-29z" />
<glyph unicode="&#xe5;" horiz-adv-x="1099" d="M102 250q0 104 74 177t176 73h355q221 0 221 162q0 133 -95.5 206.5t-244.5 73.5h-117q-111 0 -198 -63.5t-121 -163.5l-29 10q39 109 134 177.5t214 68.5h117q160 0 264 -80t104 -229v-662h-28v223q-43 -100 -135.5 -161.5t-204.5 -61.5h-236q-102 0 -176 74t-74 176z M131 250q0 -90 65.5 -155.5t155.5 -65.5h236q141 0 240.5 99t99.5 241v188q-57 -86 -221 -86h-355q-90 0 -155.5 -64.5t-65.5 -156.5zM360 1282.5q0 65.5 47.5 112.5t113 47t112.5 -47t47 -112.5t-47 -114t-112.5 -48.5t-113 48.5t-47.5 114zM391 1282q0 -53 38 -92t91 -39 t91 39t38 92t-38 91t-91 38t-91 -38t-38 -91z" />
<glyph unicode="&#xe6;" horiz-adv-x="1861" d="M82 250q0 104 73.5 177t176.5 73h354q221 0 221 162q0 133 -95 206.5t-245 73.5h-116q-111 0 -198 -63.5t-122 -163.5l-29 10q39 109 134.5 177.5t214.5 68.5h116q150 0 252.5 -71t114.5 -204q47 123 155.5 199t243.5 76q178 0 302 -125t124 -301v-74h-823v-45 q0 -164 116.5 -280.5t280.5 -116.5q117 0 213 62.5t146 164.5l26 -12q-51 -109 -155.5 -176.5t-229.5 -67.5q-139 0 -250.5 82t-154.5 211q-27 -127 -127.5 -210t-233.5 -83h-235q-102 0 -176 74t-74 176zM111 250q0 -90 65.5 -155.5t155.5 -65.5h235q141 0 240.5 99 t99.5 241v188q-57 -86 -221 -86h-354q-90 0 -155.5 -64.5t-65.5 -156.5zM936 500h795v45q0 164 -117 280.5t-281 116.5t-280.5 -116.5t-116.5 -280.5v-45z" />
<glyph unicode="&#xe7;" horiz-adv-x="999" d="M102 426v119q0 176 125 301t301 125q127 0 230.5 -66.5t156.5 -177.5l-26 -12q-49 102 -145.5 164.5t-215.5 62.5q-164 0 -280.5 -116.5t-116.5 -280.5v-119q0 -164 117 -280.5t280 -116.5q117 0 214.5 62.5t146.5 164.5l26 -12q-51 -109 -151 -175.5t-223 -68.5v-27 q47 -6 77.5 -40.5t30.5 -82.5q0 -51 -35.5 -86.5t-87 -35.5t-87.5 35.5t-36 86.5h29q0 -39 27.5 -66.5t66.5 -27.5t68 28t29 66.5t-29 67.5t-68 29h-12v53q-172 6 -292 130t-120 296z" />
<glyph unicode="&#xe8;" horiz-adv-x="1058" d="M102 426v119q0 176 125 301t301 125q178 0 303 -125t125 -301v-74h-825v-45q0 -164 117 -280.5t280 -116.5q117 0 214.5 62.5t146.5 164.5l26 -12q-53 -111 -156.5 -177.5t-230.5 -66.5q-176 0 -301 125t-125 301zM131 500h797v45q0 164 -117 280.5t-283 116.5 q-164 0 -280.5 -116.5t-116.5 -280.5v-45zM426 1315l14 24l228 -133l-15 -24z" />
<glyph unicode="&#xe9;" horiz-adv-x="1058" d="M102 426v119q0 176 125 301t301 125q178 0 303 -125t125 -301v-74h-825v-45q0 -164 117 -280.5t280 -116.5q117 0 214.5 62.5t146.5 164.5l26 -12q-53 -111 -156.5 -177.5t-230.5 -66.5q-176 0 -301 125t-125 301zM131 500h797v45q0 164 -117 280.5t-283 116.5 q-164 0 -280.5 -116.5t-116.5 -280.5v-45zM406 1206l227 133l14 -24l-227 -133z" />
<glyph unicode="&#xea;" horiz-adv-x="1058" d="M102 426v119q0 176 125 301t301 125q178 0 303 -125t125 -301v-74h-825v-45q0 -164 117 -280.5t280 -116.5q117 0 214.5 62.5t146.5 164.5l26 -12q-53 -111 -156.5 -177.5t-230.5 -66.5q-176 0 -301 125t-125 301zM131 500h797v45q0 164 -117 280.5t-283 116.5 q-164 0 -280.5 -116.5t-116.5 -280.5v-45zM289 1202l227 133h25l227 -133l-14 -24l-226 131l-225 -131z" />
<glyph unicode="&#xeb;" horiz-adv-x="1058" d="M102 426v119q0 176 125 301t301 125q178 0 303 -125t125 -301v-74h-825v-45q0 -164 117 -280.5t280 -116.5q117 0 214.5 62.5t146.5 164.5l26 -12q-53 -111 -156.5 -177.5t-230.5 -66.5q-176 0 -301 125t-125 301zM131 500h797v45q0 164 -117 280.5t-283 116.5 q-164 0 -280.5 -116.5t-116.5 -280.5v-45zM377 1178v264h31v-264h-31zM653 1178v264h29v-264h-29z" />
<glyph unicode="&#xec;" horiz-adv-x="356" d="M57 1315l15 24l227 -133l-14 -24zM164 -2v971h29v-971h-29z" />
<glyph unicode="&#xed;" horiz-adv-x="356" d="M57 1206l228 133l14 -24l-227 -133zM164 -2v971h29v-971h-29z" />
<glyph unicode="&#xee;" horiz-adv-x="356" d="M-61 1202l227 133h24l228 -133l-15 -24l-225 131l-225 -131zM164 -2v971h29v-971h-29z" />
<glyph unicode="&#xef;" horiz-adv-x="356" d="M164 -2v971h29v-971h-29z" />
<glyph unicode="&#xf0;" horiz-adv-x="1277" d="M102 428v119q0 176 125 301t301 125q135 0 243 -75t157 -196v478h-318v28h318v236h28v-236h312v-28h-312v-1178h-28v270q-49 -121 -156.5 -195.5t-243.5 -74.5q-176 0 -301 125t-125 301zM131 428q0 -164 117 -280.5t280 -116.5q166 0 283 116.5t117 280.5v119 q0 164 -117 280.5t-283 116.5q-164 0 -280.5 -116.5t-116.5 -280.5v-119z" />
<glyph unicode="&#xf1;" horiz-adv-x="1150" d="M164 0v971h29v-271q49 121 156.5 196t240.5 75q178 0 303 -125t125 -301v-545h-29v545q0 164 -116.5 280.5t-282.5 116.5q-164 0 -280.5 -116.5t-116.5 -280.5v-545h-29zM276 1178v14q0 70 50.5 120t119.5 50q59 0 104.5 -39t86.5 -78t94 -39q59 0 100 42t41 100v14h29 v-14q0 -70 -49 -120t-121 -50q-59 0 -104 38.5t-86 77.5t-95 39q-57 0 -98 -41t-41 -100v-14h-31z" />
<glyph unicode="&#xf2;" horiz-adv-x="1058" d="M102 426v119q0 176 125 301t301 125q178 0 303 -125t125 -301v-119q0 -176 -124.5 -301t-303.5 -125q-176 0 -301 125t-125 301zM131 426q0 -164 117 -280.5t280 -116.5q166 0 283 116.5t117 280.5v119q0 164 -117 280.5t-283 116.5q-164 0 -280.5 -116.5t-116.5 -280.5 v-119zM426 1315l14 24l228 -133l-15 -24z" />
<glyph unicode="&#xf3;" horiz-adv-x="1058" d="M102 426v119q0 176 125 301t301 125q178 0 303 -125t125 -301v-119q0 -176 -124.5 -301t-303.5 -125q-176 0 -301 125t-125 301zM131 426q0 -164 117 -280.5t280 -116.5q166 0 283 116.5t117 280.5v119q0 164 -117 280.5t-283 116.5q-164 0 -280.5 -116.5t-116.5 -280.5 v-119zM406 1206l227 133l14 -24l-227 -133z" />
<glyph unicode="&#xf4;" horiz-adv-x="1058" d="M102 426v119q0 176 125 301t301 125q178 0 303 -125t125 -301v-119q0 -176 -124.5 -301t-303.5 -125q-176 0 -301 125t-125 301zM131 426q0 -164 117 -280.5t280 -116.5q166 0 283 116.5t117 280.5v119q0 164 -117 280.5t-283 116.5q-164 0 -280.5 -116.5t-116.5 -280.5 v-119zM289 1202l227 133h25l227 -133l-14 -24l-226 131l-225 -131z" />
<glyph unicode="&#xf5;" horiz-adv-x="1058" d="M102 426v119q0 176 125 301t301 125q178 0 303 -125t125 -301v-119q0 -176 -124.5 -301t-303.5 -125q-176 0 -301 125t-125 301zM131 426q0 -164 117 -280.5t280 -116.5q166 0 283 116.5t117 280.5v119q0 164 -117 280.5t-283 116.5q-164 0 -280.5 -116.5t-116.5 -280.5 v-119zM217 1178v14q0 70 49 120t121 50q59 0 104.5 -39t86 -78t94.5 -39q57 0 99 42t42 100v14h29v-14q0 -70 -50.5 -120t-119.5 -50q-59 0 -104.5 38.5t-86.5 77.5t-94 39q-57 0 -98 -41t-41 -100v-14h-31z" />
<glyph unicode="&#xf6;" horiz-adv-x="1058" d="M102 426v119q0 176 125 301t301 125q178 0 303 -125t125 -301v-119q0 -176 -124.5 -301t-303.5 -125q-176 0 -301 125t-125 301zM131 426q0 -164 117 -280.5t280 -116.5q166 0 283 116.5t117 280.5v119q0 164 -117 280.5t-283 116.5q-164 0 -280.5 -116.5t-116.5 -280.5 v-119zM377 1178v264h31v-264h-31zM653 1178v264h29v-264h-29z" />
<glyph unicode="&#xf7;" horiz-adv-x="1093" d="M61 473v29h971v-29h-971zM530 2v264h29v-264h-29zM530 709v264h29v-264h-29z" />
<glyph unicode="&#xf8;" horiz-adv-x="1058" d="M102 426v119q0 176 125 301t301 125q139 0 252 -80l54 80h36l-67 -99q154 -127 153 -327v-119q0 -176 -124.5 -301t-303.5 -125q-137 0 -252 82l-55 -82h-35l68 100q-152 131 -152 326zM131 426q0 -178 139 -301l494 741q-104 76 -236 76q-164 0 -280.5 -116.5 t-116.5 -280.5v-119zM293 106q109 -78 235 -77q166 0 283 116.5t117 280.5v119q0 182 -142 303z" />
<glyph unicode="&#xf9;" horiz-adv-x="1150" d="M133 426v545h29v-545q0 -164 116.5 -280.5t280.5 -116.5q166 0 282.5 116.5t116.5 280.5v545h29v-971h-29v270q-49 -121 -156.5 -195.5t-242.5 -74.5q-176 0 -301 125t-125 301zM446 1315l15 24l227 -133l-14 -24z" />
<glyph unicode="&#xfa;" horiz-adv-x="1150" d="M133 426v545h29v-545q0 -164 116.5 -280.5t280.5 -116.5q166 0 282.5 116.5t116.5 280.5v545h29v-971h-29v270q-49 -121 -156.5 -195.5t-242.5 -74.5q-176 0 -301 125t-125 301zM426 1206l227 133l15 -24l-228 -133z" />
<glyph unicode="&#xfb;" horiz-adv-x="1150" d="M133 426v545h29v-545q0 -164 116.5 -280.5t280.5 -116.5q166 0 282.5 116.5t116.5 280.5v545h29v-971h-29v270q-49 -121 -156.5 -195.5t-242.5 -74.5q-176 0 -301 125t-125 301zM322 1202l227 133h24l228 -133l-15 -24l-225 131l-225 -131z" />
<glyph unicode="&#xfc;" horiz-adv-x="1150" d="M133 426v545h29v-545q0 -164 116.5 -280.5t280.5 -116.5q166 0 282.5 116.5t116.5 280.5v545h29v-971h-29v270q-49 -121 -156.5 -195.5t-242.5 -74.5q-176 0 -301 125t-125 301zM408 1178v264h30v-264h-30zM684 1178v264h29v-264h-29z" />
<glyph unicode="&#xfd;" horiz-adv-x="888" d="M0 971h33l407 -928l408 928h31l-633 -1442h-31l209 477zM303 1206l227 133l15 -24l-228 -133z" />
<glyph unicode="&#xfe;" horiz-adv-x="1130" d="M174 -471v1915h29v-742q49 121 156.5 196t240.5 75q178 0 303 -126t125 -302v-117q0 -176 -125 -302t-303 -126q-133 0 -240.5 76t-156.5 196v-743h-29zM203 428q0 -164 116.5 -280.5t280.5 -116.5q166 0 282.5 116.5t116.5 280.5v117q0 166 -116.5 281.5t-282.5 115.5 q-164 0 -280.5 -115.5t-116.5 -281.5v-117z" />
<glyph unicode="&#xff;" horiz-adv-x="899" d="M10 971h33l408 -928l407 928h31l-633 -1442h-31l209 477zM295 1178v264h31v-264h-31zM571 1178v264h29v-264h-29z" />
<glyph unicode="&#x152;" horiz-adv-x="2189" d="M133 487v471q0 201 142.5 343.5t342.5 142.5q156 0 281 -89t176 -231v320h971v-31h-942v-676h942v-30h-942v-676h942v-31h-971v319q-51 -141 -176 -230t-281 -89q-201 0 -343 143t-142 344zM162 487q0 -188 134 -322t322.5 -134t322.5 134t134 322v471q0 188 -134 321.5 t-322.5 133.5t-322.5 -133t-134 -322v-471z" />
<glyph unicode="&#x153;" horiz-adv-x="1882" d="M102 428v117q0 176 125 302t301 126q147 0 262 -89t152 -227q37 137 151.5 226.5t260.5 89.5q176 0 301 -126t125 -302v-74h-824v-43q0 -164 117 -280.5t281 -116.5q117 0 213 62.5t145 164.5l27 -12q-51 -111 -155.5 -178.5t-229.5 -67.5q-145 0 -260 89t-152 226 q-37 -137 -151.5 -226t-262.5 -89q-176 0 -301 126t-125 302zM131 428q0 -164 117 -280.5t280 -116.5q166 0 283 116.5t117 280.5v117q0 166 -117 281.5t-283 115.5q-164 0 -280.5 -115.5t-116.5 -281.5v-117zM956 502h795v43q0 166 -116.5 281.5t-280.5 115.5t-281 -115.5 t-117 -281.5v-43z" />
<glyph unicode="&#x178;" horiz-adv-x="1019" d="M10 1444h35l465 -694l465 694h35l-486 -727v-717h-28v717zM352 1573v266h29v-266h-29zM627 1573v266h28v-264z" />
<glyph unicode="&#x2c6;" horiz-adv-x="581" d="M51 1202l228 133h24l227 -133l-14 -24l-225 131l-225 -131z" />
<glyph unicode="&#x2dc;" horiz-adv-x="788" d="M82 1178v14q0 70 49 120t121 50q59 0 104 -39t86 -78t95 -39q57 0 99 42t42 100v14h29v-14q0 -70 -50.5 -120t-119.5 -50q-59 0 -104.5 38.5t-86.5 77.5t-94 39q-57 0 -98 -41t-41 -100v-14h-31z" />
<glyph unicode="&#x2000;" horiz-adv-x="946" />
<glyph unicode="&#x2001;" horiz-adv-x="1892" />
<glyph unicode="&#x2002;" horiz-adv-x="946" />
<glyph unicode="&#x2003;" horiz-adv-x="1892" />
<glyph unicode="&#x2004;" horiz-adv-x="630" />
<glyph unicode="&#x2005;" horiz-adv-x="473" />
<glyph unicode="&#x2006;" horiz-adv-x="315" />
<glyph unicode="&#x2007;" horiz-adv-x="315" />
<glyph unicode="&#x2008;" horiz-adv-x="235" />
<glyph unicode="&#x2009;" horiz-adv-x="376" />
<glyph unicode="&#x200a;" horiz-adv-x="104" />
<glyph unicode="&#x2010;" horiz-adv-x="710" d="M113 475v29h485v-29h-485z" />
<glyph unicode="&#x2011;" horiz-adv-x="710" d="M113 475v29h485v-29h-485z" />
<glyph unicode="&#x2012;" horiz-adv-x="710" d="M113 475v29h485v-29h-485z" />
<glyph unicode="&#x2013;" horiz-adv-x="1079" d="M113 475v29h854v-29h-854z" />
<glyph unicode="&#x2014;" horiz-adv-x="2138" d="M113 475v29h1912v-29h-1912z" />
<glyph unicode="&#x2018;" horiz-adv-x="366" d="M113 956v258q0 74 38.5 135.5t102.5 92.5v-35q-51 -29 -82 -80t-31 -113v-258h-28z" />
<glyph unicode="&#x2019;" horiz-adv-x="366" d="M113 956v33q113 66 112 193v260h29v-260q0 -74 -39 -134.5t-102 -91.5z" />
<glyph unicode="&#x201a;" horiz-adv-x="407" d="M133 -186q113 66 113 192v260h28v-260q0 -74 -38.5 -134t-102.5 -91v33z" />
<glyph unicode="&#x201c;" horiz-adv-x="567" d="M133 975v239q0 74 39 135.5t102 92.5v-35q-51 -29 -81.5 -80t-30.5 -113v-239h-29zM291 975v239q0 74 40 135.5t103 92.5v-35q-51 -29 -81.5 -80t-30.5 -113v-239h-31z" />
<glyph unicode="&#x201d;" horiz-adv-x="567" d="M133 975v35q51 29 82 80t31 112v240h30v-240q0 -74 -40 -135t-103 -92zM293 975v35q51 29 82 80t31 112v240h28v-240q0 -74 -39 -135t-102 -92z" />
<glyph unicode="&#x201e;" horiz-adv-x="567" d="M133 -166q51 29 82 80t31 113v239h30v-239q0 -74 -39.5 -135.5t-103.5 -92.5v35zM293 -166q51 29 82 80t31 113v239h28v-239q0 -74 -39 -135.5t-102 -92.5v35z" />
<glyph unicode="&#x2022;" horiz-adv-x="862" d="M82 614v17q0 141 100.5 241.5t241.5 100.5h14q141 0 241.5 -100.5t100.5 -241.5v-17q0 -141 -100 -240.5t-242 -99.5h-14q-141 0 -241.5 99.5t-100.5 240.5z" />
<glyph unicode="&#x2026;" horiz-adv-x="616" d="M133 0v264h29v-264h-29zM291 0v264h31v-264h-31zM455 0v264h28v-264h-28z" />
<glyph unicode="&#x202f;" horiz-adv-x="376" />
<glyph unicode="&#x2039;" horiz-adv-x="604" d="M82 477v21l418 477h39l-426 -488l430 -487h-39z" />
<glyph unicode="&#x203a;" horiz-adv-x="604" d="M61 0l431 487l-426 488h38l418 -477v-21l-422 -477h-39z" />
<glyph unicode="&#x205f;" horiz-adv-x="473" />
<glyph unicode="&#x20ac;" horiz-adv-x="1185" d="M0 475v29h238v438h-238v29h238q6 197 147 334t338 137q133 0 245.5 -66.5t176.5 -177.5l-27 -14q-59 104 -164.5 166.5t-230.5 62.5q-184 0 -317.5 -129t-139.5 -313h588v-29h-588v-438h588v-29h-588q4 -186 137.5 -316t319.5 -130q125 0 230.5 62.5t164.5 166.5l27 -14 q-63 -111 -176 -177.5t-246 -66.5q-199 0 -340 138t-145 337h-238z" />
<glyph unicode="&#x2122;" horiz-adv-x="931" d="M51 1432v10h318v-10h-154v-461h-10v461h-154zM381 971v471h8l201 -457l201 457h10v-471h-10v444l-197 -444h-8l-195 444v-444h-10z" />
<glyph unicode="&#xe000;" horiz-adv-x="970" d="M0 970h970v-970h-970v970z" />
<glyph unicode="&#xfb01;" horiz-adv-x="1050" d="M10 942v29h275v221q0 104 73.5 177t176.5 73h55v-29h-55q-90 0 -155 -64.5t-65 -156.5v-221h562v-971h-31v942h-531v-942h-30v942h-275zM846 1178v264h31v-264h-31z" />
<glyph unicode="&#xfb02;" horiz-adv-x="1050" d="M10 942v29h275v221q0 104 73.5 177t176.5 73h342v-1442h-31v1413h-311q-90 0 -155 -64.5t-65 -156.5v-221h275v-29h-275v-942h-30v942h-275z" />
<glyph unicode="&#xfb03;" horiz-adv-x="1536" d="M1344 0v971h29v-971h-29zM1344 1178v264h29v-264h-29zM580 942v29h274v221q0 104 74 177t176 73h55v-29h-55q-90 0 -154.5 -64.5t-64.5 -156.5v-221h274v-29h-274v-942h-31v942h-274zM-10 942v29h274v221q0 104 74 177t176 73h55v-29h-55q-90 0 -154.5 -64.5 t-64.5 -156.5v-221h274v-29h-274v-942h-31v942h-274z" />
<glyph unicode="&#xfb04;" horiz-adv-x="1556" d="M1354 0v1442h29v-1442h-29zM580 942v29h274v221q0 104 74 177t176 73h55v-29h-55q-90 0 -154.5 -64.5t-64.5 -156.5v-221h274v-29h-274v-942h-31v942h-274zM-10 942v29h274v221q0 104 74 177t176 73h55v-29h-55q-90 0 -154.5 -64.5t-64.5 -156.5v-221h274v-29h-274v-942 h-31v942h-274z" />
<glyph horiz-adv-x="512" />
</font>
</defs>
</svg>
