<?xml version="1.0" standalone="no"?>
<!DOCTYPE svg PUBLIC "-//W3C//DTD SVG 1.1//EN" "http://www.w3.org/Graphics/SVG/1.1/DTD/svg11.dtd" >
<svg xmlns="http://www.w3.org/2000/svg">
<metadata>
This is a custom SVG webfont generated by Font Squirrel.
Copyright   : Copyright c 2008 by Stefan Gandl All rights reserved
Designer    : Stefan Gandl
Foundry     : Stefan Gandl
Foundry URL : wwwneubauladencom
</metadata>
<defs>
<font id="NeubauGrotesk75Fett" horiz-adv-x="1181" >
<font-face units-per-em="2048" ascent="1638" descent="-410" />
<missing-glyph horiz-adv-x="614" />
<glyph unicode=" "  horiz-adv-x="614" />
<glyph unicode="&#x09;" horiz-adv-x="614" />
<glyph unicode="&#xa0;" horiz-adv-x="614" />
<glyph unicode="!" horiz-adv-x="555" d="M164 4v311h227v-311h-227zM164 393v1053h227v-1051z" />
<glyph unicode="&#x22;" horiz-adv-x="837" d="M123 1036v406h227v-406h-227zM487 1036v406h228v-406h-228z" />
<glyph unicode="#" d="M72 205v227h198v582h-198v227h198v203h230v-203h180v203h227v-203h201v-227h-201v-582h201v-227h-201v-201h-227v201h-180v-201h-230v201h-198zM500 432h180v582h-180v-582z" />
<glyph unicode="$" d="M72 1024q0 170 117.5 292t285.5 124v202h230v-202q131 0 234 -78t146 -201l-215 -74q-20 57 -66 91t-104 34h-221q-74 0 -127 -54t-53 -134q0 -76 60.5 -119t149.5 -56t194.5 -37t194.5 -56.5t149.5 -118.5t60.5 -221q0 -170 -118 -292t-285 -124v-203h-230v203 q-131 0 -234.5 79t-146.5 202l215 71q20 -55 66.5 -90t103.5 -35h221q74 0 127.5 54.5t53.5 134.5q0 76 -60.5 119t-149.5 56t-194.5 36.5t-194.5 56.5t-149.5 119t-60.5 221z" />
<glyph unicode="%" horiz-adv-x="1574" d="M82 922v178q0 141 100.5 241.5t241.5 100.5h14q141 0 241.5 -100.5t100.5 -241.5v-178q0 -141 -100 -240.5t-242 -99.5h-14q-141 0 -241.5 99.5t-100.5 240.5zM309 922q0 -47 34 -80t81 -33h14q47 0 81 32.5t34 80.5v178q0 47 -34 79.5t-81 32.5h-14q-47 0 -81 -32.5 t-34 -79.5v-178zM358 12l836 1426l23 -13l-836 -1425zM795 342v176q0 141 100 241.5t242 100.5h16q141 0 240.5 -100.5t99.5 -241.5v-176q0 -141 -99.5 -241.5t-240.5 -100.5h-16q-141 0 -241.5 100.5t-100.5 241.5zM1022 342q0 -47 34 -81t81 -34h16q47 0 80 34t33 81v176 q0 47 -33 81t-80 34h-16q-47 0 -81 -34t-34 -81v-176z" />
<glyph unicode="&#x26;" horiz-adv-x="1464" d="M113 418q0 178 129 301q-129 125 -129 305q0 172 121.5 295t295.5 123q172 0 294 -123t122 -295q0 -123 -65.5 -224.5t-171.5 -152.5l225 -170l205 307l188 -127l-211 -317l451 -340h-379l-201 152q-125 -152 -321 -152h-136q-174 0 -295.5 122t-121.5 296zM340 418 q0 -78 56.5 -134.5t133.5 -56.5h136q82 0 139 62l-381 284q-84 -55 -84 -155zM340 1024q0 -70 30.5 -111t94.5 -84q20 4 65 5q78 0 133.5 56t55.5 134t-55.5 134t-133 56t-134 -56t-56.5 -134z" />
<glyph unicode="'" horiz-adv-x="473" d="M123 1040v404h227v-404h-227z" />
<glyph unicode="(" horiz-adv-x="765" d="M164 522v402q0 217 152.5 368.5t367.5 151.5v-227q-121 0 -207 -86.5t-86 -206.5v-402q0 -121 86 -206t207 -85v-227q-215 0 -367.5 151.5t-152.5 366.5z" />
<glyph unicode=")" horiz-adv-x="765" d="M82 4v227q121 0 207 85t86 206v402q0 121 -86 207t-207 86v227q215 0 367.5 -151.5t152.5 -368.5v-402q0 -215 -152.5 -366.5t-367.5 -151.5z" />
<glyph unicode="*" horiz-adv-x="733" d="M31 1114l69 217l152 -49v160h227v-160l152 49l71 -217l-151 -49l94 -129l-184 -133l-94 129l-95 -129l-184 133l94 129z" />
<glyph unicode="+" horiz-adv-x="1138" d="M51 403v228h406v405h227v-405h403v-228h-403v-403h-227v403h-406z" />
<glyph unicode="," horiz-adv-x="473" d="M123 2v301h227v-301q0 -98 -64.5 -172t-162.5 -86v115q49 10 82 51t33 92h-115z" />
<glyph unicode="-" horiz-adv-x="718" d="M102 406v227h514v-227h-514z" />
<glyph unicode="." horiz-adv-x="473" d="M123 0v303h227v-303h-227z" />
<glyph unicode="/" horiz-adv-x="759" d="M20 4l480 1440h239l-479 -1440h-240z" />
<glyph unicode="0" d="M123 467v506q0 195 137 332t329.5 137t331 -137.5t138.5 -331.5v-506q0 -193 -137.5 -330t-331.5 -137q-193 0 -330 137t-137 330zM350 467q0 -98 71 -169t169 -71q100 0 170.5 71t70.5 169v506q0 100 -70.5 169.5t-170.5 69.5q-98 0 -169 -69.5t-71 -169.5v-506z" />
<glyph unicode="1" d="M184 0v229h355v983h-355v230h582v-1213h354v-229h-936z" />
<glyph unicode="2" d="M113 0v227q649 662 665 678q43 43 43 119q0 78 -56 134t-134 56h-101q-61 0 -110 -35.5t-70 -91.5l-213 76q43 123 150.5 201t242.5 78h101q174 0 296 -123t122 -295q0 -70 -27 -144.5t-70 -117.5l-526 -535h623v-227h-936z" />
<glyph unicode="3" d="M102 276l215 78q20 -55 68.5 -91t110.5 -36h102q78 0 133 55.5t55 135.5q0 78 -55 133t-133 55h-102v228h102q78 0 133 56t55 134t-55 133t-133 55h-102q-61 0 -110.5 -34.5t-68.5 -90.5l-215 76q43 123 150.5 201t243.5 78h102q172 0 294 -123t122 -295 q0 -182 -131 -303q131 -121 131 -303q0 -174 -122 -296t-294 -122h-102q-135 0 -243 76.5t-151 199.5z" />
<glyph unicode="4" d="M82 406v227l340 809h240l-336 -809h456v403h228v-1036h-228v406h-700z" />
<glyph unicode="5" d="M143 606v836h936v-230h-708v-378h291q174 0 295.5 -122t121.5 -294q0 -174 -121.5 -296t-295.5 -122h-101q-135 0 -242.5 77t-150.5 199l213 78q20 -55 69.5 -91t110.5 -36h101q78 0 134 55.5t56 135.5q0 78 -56.5 133t-133.5 55h-519z" />
<glyph unicode="6" d="M133 467v506q0 195 137.5 332t329.5 137q139 0 253 -75t171 -196l-205 -96q-31 63 -89 100t-130 37q-98 0 -169 -70.5t-71 -170.5q111 66 240 65q195 0 332 -137t137 -330v-102q0 -193 -137 -330t-331.5 -137t-331 137t-136.5 330zM360 467q0 -98 71 -169t169 -71 q100 0 171 71t71 169v102q0 98 -71 169t-171 71q-98 0 -169 -70.5t-71 -169.5v-102z" />
<glyph unicode="7" d="M113 1212v230h927v-230l-501 -1212h-246l510 1212h-690z" />
<glyph unicode="8" d="M123 418q0 178 131 303q-131 125 -131 303q0 172 122 295t296 123h100q174 0 296 -123t122 -295q0 -178 -131 -303q131 -125 131 -303q0 -174 -122 -296t-296 -122h-100q-174 0 -296 122t-122 296zM350 418q0 -80 56.5 -135.5t134.5 -55.5h100q78 0 134 55.5t56 135.5 q0 78 -56 133t-134 55h-100q-78 0 -134.5 -55t-56.5 -133zM350 1024q0 -78 56.5 -134t134.5 -56h100q78 0 134 56t56 134t-56 133t-134 55h-100q-78 0 -134.5 -55t-56.5 -133z" />
<glyph unicode="9" d="M113 872v101q0 195 137 332t330 137q195 0 332 -137.5t137 -331.5v-506q0 -193 -137.5 -330t-331.5 -137q-137 0 -251 73.5t-171 194.5l204 99q29 -63 88.5 -101.5t129.5 -38.5q102 0 171.5 69t69.5 175q-113 -68 -241 -68q-193 0 -330 137t-137 332zM340 872 q0 -100 70.5 -169.5t169.5 -69.5q100 0 170.5 69.5t70.5 169.5v101q0 100 -70.5 169.5t-170.5 69.5q-98 0 -169 -69.5t-71 -169.5v-101z" />
<glyph unicode=":" horiz-adv-x="473" d="M123 0v303h227v-303h-227zM123 731v303h227v-303h-227z" />
<glyph unicode=";" horiz-adv-x="473" d="M123 2v301h227v-301q0 -98 -64.5 -172t-162.5 -86v115q49 10 82 51t33 92h-115zM123 391v303h227v-303h-227z" />
<glyph unicode="&#x3c;" horiz-adv-x="976" d="M123 420v196l731 420v-262l-444 -256l444 -256v-262z" />
<glyph unicode="=" horiz-adv-x="1140" d="M102 209v227h936v-227h-936zM102 608v228h936v-228h-936z" />
<glyph unicode="&#x3e;" horiz-adv-x="976" d="M123 0v262l446 256l-446 256v262l731 -420v-196z" />
<glyph unicode="?" horiz-adv-x="1003" d="M10 1163q43 123 150.5 201t242.5 78h101q174 0 296 -123t122 -295q0 -156 -101.5 -273.5t-253.5 -140.5v-219h-227v443h164q80 0 135 56t55 134t-55 133t-135 55h-101q-61 0 -110 -34.5t-68 -90.5zM338 2v301h229v-301h-229z" />
<glyph unicode="@" horiz-adv-x="1253" d="M123 502v436q0 207 147.5 354.5t356.5 147.5q207 0 354 -147.5t147 -354.5v-328q0 -74 -51 -125t-125 -51q-90 0 -139 70q-82 -70 -186 -70q-119 0 -203 83t-84 202t84 203t203 84q80 0 149 -43v43h135v-396q0 -16 12.5 -28.5t29 -12.5t28.5 12.5t12 28.5v328 q0 152 -107.5 259.5t-259 107.5t-260 -107.5t-108.5 -259.5v-436q0 -152 108.5 -259.5t260.5 -107.5q100 0 185 51.5t134 135.5l119 -68q-68 -117 -183.5 -186.5t-254.5 -69.5q-209 0 -356.5 148.5t-147.5 355.5zM477 719q0 -61 43 -105.5t107 -44.5q61 0 105 44t44 106 q0 63 -44 107t-105 44q-63 0 -106.5 -44t-43.5 -107z" />
<glyph unicode="A" horiz-adv-x="1214" d="M20 0l480 1442h215l479 -1442h-240l-100 303h-494l-100 -303h-240zM436 530h342l-172 514z" />
<glyph unicode="B" horiz-adv-x="1302" d="M164 0v1442h629q170 0 288.5 -123t118.5 -295q0 -180 -127 -303q127 -127 127 -303q0 -172 -118.5 -295t-288.5 -123h-629zM391 227h402q74 0 127 55.5t53 135.5t-53.5 134t-126.5 54h-402v-379zM391 834h402q74 0 127 55t53 135t-53.5 135t-126.5 55h-402v-380z" />
<glyph unicode="C" d="M123 518v406q0 213 151.5 365.5t366.5 152.5q141 0 261 -72t188 -188l-197 -115q-37 68 -104.5 107.5t-147.5 39.5q-121 0 -206 -85t-85 -205v-406q0 -121 85 -206t206 -85q80 0 146.5 40t105.5 106l197 -113q-68 -119 -188 -189.5t-261 -70.5q-215 0 -366.5 151.5 t-151.5 366.5z" />
<glyph unicode="D" horiz-adv-x="1323" d="M164 0v1442h518q215 0 366.5 -152.5t151.5 -365.5v-406q0 -215 -151.5 -366.5t-366.5 -151.5h-518zM391 227h291q121 0 206 85t85 206v406q0 121 -85 205.5t-206 84.5h-291v-987z" />
<glyph unicode="E" horiz-adv-x="1333" d="M164 0v1442h1036v-230h-809v-378h809v-228h-809v-379h809v-227h-1036z" />
<glyph unicode="F" horiz-adv-x="1302" d="M164 0v1442h1036v-230h-809v-378h809v-228h-809v-606h-227z" />
<glyph unicode="G" horiz-adv-x="1292" d="M123 518v406q0 213 151.5 365.5t366.5 152.5q141 0 261 -72t188 -188l-197 -115q-37 68 -104.5 106.5t-147.5 38.5q-121 0 -206 -85t-85 -203v-406q0 -121 85 -206t206 -85t206 85t85 206v88h-291v228h518v-834h-227v90q-129 -90 -291 -90q-215 0 -366.5 151.5 t-151.5 366.5z" />
<glyph unicode="H" horiz-adv-x="1363" d="M164 0v1442h227v-608h582v608h227v-1442h-227v606h-582v-606h-227z" />
<glyph unicode="I" horiz-adv-x="555" d="M164 0v1442h227v-1442h-227z" />
<glyph unicode="J" horiz-adv-x="798" d="M20 0v227h166q100 0 171 71t71 169v975h227v-975q0 -195 -137 -331t-332 -136h-166z" />
<glyph unicode="K" horiz-adv-x="1329" d="M164 0v1442h227v-586l590 586h324l-576 -572l576 -870h-273l-469 707l-172 -172v-535h-227z" />
<glyph unicode="L" horiz-adv-x="1220" d="M164 0v1442h227v-1215h809v-227h-1036z" />
<glyph unicode="M" horiz-adv-x="1630" d="M164 0v1442h219l432 -1065l432 1065h219v-1442h-227v807l-317 -807h-211l-320 807v-807h-227z" />
<glyph unicode="N" horiz-adv-x="1363" d="M164 0v1442h211l598 -1006v1006h227v-1442h-221l-588 987v-987h-227z" />
<glyph unicode="O" horiz-adv-x="1282" d="M123 518v406q0 213 151.5 365.5t366.5 152.5t366.5 -152.5t151.5 -365.5v-406q0 -215 -151.5 -366.5t-366.5 -151.5t-366.5 151.5t-151.5 366.5zM350 518q0 -121 85 -206t206 -85t206 85t85 206v406q0 121 -85 205.5t-206 84.5t-206 -85t-85 -205v-406z" />
<glyph unicode="P" horiz-adv-x="1251" d="M164 0v1442h629q170 0 288.5 -123t118.5 -295t-118.5 -295t-288.5 -123h-402v-606h-227zM391 834h402q74 0 127 55t53 135t-53.5 135t-126.5 55h-402v-380z" />
<glyph unicode="Q" horiz-adv-x="1339" d="M123 518v406q0 213 151.5 365.5t366.5 152.5t366.5 -152.5t151.5 -365.5v-406q0 -152 -80 -276l127 -129l-162 -160l-126 127q-125 -80 -277 -80q-215 0 -366.5 151.5t-151.5 366.5zM350 518q0 -121 85 -206t206 -85t206 85t85 206v406q0 121 -85 205.5t-206 84.5 t-206 -85t-85 -205v-406z" />
<glyph unicode="R" horiz-adv-x="1343" d="M164 0v1442h629q170 0 288.5 -124t118.5 -294q0 -119 -61.5 -220.5t-165.5 -154.5l289 -649h-248l-271 606h-352v-606h-227zM391 834h402q76 0 128 57t52 133t-52.5 133t-127.5 57h-402v-380z" />
<glyph unicode="S" horiz-adv-x="1200" d="M80 1024q0 172 118.5 295t288.5 123h222q133 0 237.5 -79t147.5 -202l-215 -74q-20 57 -66.5 92t-103.5 35h-222q-74 0 -127 -55t-53 -135q0 -70 46 -107.5t134 -60.5q8 -2 220 -41q90 -18 151.5 -39.5t127 -64.5t98 -117t32.5 -176q0 -172 -118.5 -295t-288.5 -123h-222 q-133 0 -237.5 79t-147.5 202l215 73q20 -57 66.5 -92t103.5 -35h222q74 0 127 55.5t53 135.5q0 70 -47 107.5t-135 60.5q-29 8 -65 14t-81 14.5t-72 12.5q-70 14 -122 28.5t-109 45t-94 70.5t-60.5 104.5t-23.5 148.5z" />
<glyph unicode="T" horiz-adv-x="1077" d="M20 1214v228h1037v-228h-404v-1214h-227v1214h-406z" />
<glyph unicode="U" horiz-adv-x="1323" d="M143 518v924h228v-924q0 -121 85 -206t205.5 -85t205.5 85t85 206v924h228v-924q0 -215 -151.5 -366.5t-367 -151.5t-367 151.5t-151.5 366.5z" />
<glyph unicode="V" horiz-adv-x="1214" d="M20 1442h240l346 -1047l348 1047h240l-479 -1442h-215z" />
<glyph unicode="W" horiz-adv-x="1437" d="M20 1442h234l195 -819l157 819h223l156 -819l197 819h235l-319 -1442h-224l-157 819l-158 -819h-221z" />
<glyph unicode="X" horiz-adv-x="1255" d="M10 0l482 721l-482 721h275l342 -516l344 516h274l-481 -721l481 -721h-274l-344 516l-342 -516h-275z" />
<glyph unicode="Y" horiz-adv-x="1284" d="M20 1442h275l348 -516l346 516h275l-508 -756v-686h-228v686z" />
<glyph unicode="Z" horiz-adv-x="1200" d="M82 0v221l745 993h-745v228h1036v-223l-745 -992h745v-227h-1036z" />
<glyph unicode="[" horiz-adv-x="722" d="M164 0v1442h498v-228h-271v-987h271v-227h-498z" />
<glyph unicode="\" horiz-adv-x="759" d="M20 1442h240l479 -1442h-239z" />
<glyph unicode="]" horiz-adv-x="722" d="M61 0v227h271v987h-271v228h498v-1442h-498z" />
<glyph unicode="^" horiz-adv-x="1085" d="M39 735l405 707h197l406 -711l-199 -115l-307 539l-305 -534z" />
<glyph unicode="_" horiz-adv-x="1282" d="M123 0v227h1036v-227h-1036z" />
<glyph unicode="`" horiz-adv-x="630" d="M82 1294l113 199l354 -203l-113 -196z" />
<glyph unicode="a" horiz-adv-x="1161" d="M92 315q0 131 92 224.5t224 93.5h305q55 0 80 14q8 10 8 23q0 61 -47 100t-144 39h-100q-61 0 -110.5 -36t-69.5 -91l-215 76q43 123 151.5 200.5t243.5 77.5h100q168 0 293 -94t125 -272v-670h-227v45q-90 -45 -191 -45h-202q-131 0 -223.5 92t-92.5 223zM319 315.5 q0 -36.5 26 -62.5t63 -26h202q78 0 133.5 53.5t57.5 131.5q-57 -8 -88 -9h-305q-37 0 -63 -25.5t-26 -62z" />
<glyph unicode="b" horiz-adv-x="1191" d="M164 0v1442h227v-471q111 66 240 65q195 0 332 -137t137 -330v-102q0 -193 -137.5 -330t-331.5 -137q-129 0 -240 66v-66h-227zM391 467q0 -98 70.5 -169t169.5 -71q100 0 170.5 71t70.5 169v102q0 98 -70.5 169t-170.5 71q-98 0 -169 -70.5t-71 -169.5v-102z" />
<glyph unicode="c" horiz-adv-x="1054" d="M92 467v102q0 193 136.5 330t330.5 137q139 0 253 -73.5t171 -192.5l-205 -100q-31 63 -89 101t-130 38q-98 0 -169 -70.5t-71 -169.5v-102q0 -98 71 -169t169 -71q72 0 130.5 38t86.5 100l207 -99q-57 -121 -172 -193.5t-252 -72.5q-195 0 -331 137t-136 330z" />
<glyph unicode="d" horiz-adv-x="1191" d="M92 467v102q0 193 136.5 330t330.5 137q127 0 242 -65v471h227v-1442h-227v66q-115 -66 -242 -66q-195 0 -331 137t-136 330zM319 467q0 -98 71 -169t169 -71q100 0 171 71t71 169v102q0 98 -71 169t-171 71q-98 0 -169 -70.5t-71 -169.5v-102z" />
<glyph unicode="e" horiz-adv-x="1120" d="M92 467v102q0 193 136.5 330t331 137t331.5 -137t137 -330v-166h-700q23 -76 86 -126t145 -50q119 0 191 92l178 -141q-141 -178 -369 -178q-195 0 -331 137t-136 330zM328 633h465q-23 76 -87.5 126t-146.5 50t-145 -50t-86 -126z" />
<glyph unicode="f" horiz-adv-x="739" d="M0 809v227h238v88q0 131 92 224.5t223 93.5h145v-230h-145q-37 0 -62.5 -25.5t-25.5 -62.5v-88h233v-227h-233v-809h-227v809h-238z" />
<glyph unicode="g" d="M92 467v102q0 193 136.5 330t330.5 137q127 0 242 -65v65h227v-973q0 -195 -137 -332t-332 -137q-137 0 -250.5 75t-171.5 194l205 98q29 -61 88 -99t129 -38q100 0 171 70.5t71 171.5q-115 -66 -242 -66q-195 0 -331 137t-136 330zM319 467q0 -98 71 -169t169 -71 q100 0 171 71t71 169v102q0 98 -71 169t-171 71q-98 0 -169 -70.5t-71 -169.5v-102z" />
<glyph unicode="h" horiz-adv-x="1222" d="M164 0v1442h227v-471q111 66 240 65q195 0 332 -137t137 -330v-569h-228v569q0 98 -70.5 169t-170.5 71q-98 0 -169 -70.5t-71 -169.5v-569h-227z" />
<glyph unicode="i" horiz-adv-x="555" d="M164 0v1036h227v-1036h-227zM164 1124v318h227v-318h-227z" />
<glyph unicode="j" horiz-adv-x="622" d="M0 -176h141q37 0 63.5 25.5t26.5 62.5v1124h228v-1124q0 -133 -92.5 -225.5t-225.5 -92.5h-141v230zM231 1124v318h228v-318h-228z" />
<glyph unicode="k" horiz-adv-x="1222" d="M164 0v1442h227v-785l440 379h351l-404 -346l404 -690h-262l-316 541l-213 -183v-358h-227z" />
<glyph unicode="l" horiz-adv-x="555" d="M164 0v1442h227v-1442h-227z" />
<glyph unicode="m" horiz-adv-x="1456" d="M154 0v1036h227v-18q53 18 115 18h14q131 0 227 -86q98 86 230 86h14q141 0 241.5 -100t100.5 -242v-694h-227v694q0 47 -34 81t-81 34h-14q-47 0 -81 -34t-34 -81v-694h-227v694q0 47 -34 81t-81 34h-14q-47 0 -81 -34t-34 -81v-694h-227z" />
<glyph unicode="n" horiz-adv-x="1212" d="M154 0v1036h227v-65q111 66 240 65q195 0 332 -137t137 -330v-569h-228v569q0 98 -70.5 169t-170.5 71q-98 0 -169 -70.5t-71 -169.5v-569h-227z" />
<glyph unicode="o" horiz-adv-x="1120" d="M92 467v102q0 193 136.5 330t331 137t331.5 -137t137 -330v-102q0 -193 -137 -330t-331.5 -137t-331 137t-136.5 330zM319 467q0 -98 71 -169t169 -71q100 0 171 71t71 169v102q0 98 -71 169t-171 71q-98 0 -169 -70.5t-71 -169.5v-102z" />
<glyph unicode="p" d="M154 -406v1442h227v-65q111 66 240 65q195 0 332 -137t137 -330v-102q0 -193 -137.5 -330t-331.5 -137q-129 0 -240 66v-472h-227zM381 467q0 -98 70.5 -169t169.5 -71q100 0 170.5 71t70.5 169v102q0 98 -70.5 169t-170.5 71q-98 0 -169 -70.5t-71 -169.5v-102z" />
<glyph unicode="q" d="M92 467v102q0 193 136.5 330t330.5 137q127 0 242 -65v65h227v-1442h-227v472q-115 -66 -242 -66q-195 0 -331 137t-136 330zM319 467q0 -98 71 -169t169 -71q100 0 171 71t71 169v102q0 98 -71 169t-171 71q-98 0 -169 -70.5t-71 -169.5v-102z" />
<glyph unicode="r" horiz-adv-x="765" d="M154 0v1036h227v-65q111 66 240 65h114v-227h-114q-98 0 -169 -70.5t-71 -169.5v-569h-227z" />
<glyph unicode="s" horiz-adv-x="1099" d="M61 721q0 131 92.5 223t223.5 92h215q133 0 241.5 -77.5t151.5 -200.5l-215 -76q-20 55 -68.5 91t-109.5 36h-215q-37 0 -62.5 -25.5t-25.5 -62.5q0 -43 90 -66q18 -4 209 -28q86 -10 147.5 -26.5t127 -49.5t100 -91.5t34.5 -142.5q0 -131 -92 -224t-223 -93h-215 q-135 0 -242.5 78t-150.5 201l215 75q20 -55 68.5 -91t109.5 -36h215q35 0 61.5 27t26.5 63q0 45 -88 66q-16 4 -217 29q-66 8 -116 18t-107.5 33.5t-94 54.5t-61.5 83t-25 120z" />
<glyph unicode="t" horiz-adv-x="739" d="M-20 809v227h237v406h227v-406h234v-227h-234v-494q0 -37 26 -62.5t62 -25.5h146v-227h-146q-131 0 -223 92t-92 223v494h-237z" />
<glyph unicode="u" horiz-adv-x="1212" d="M123 467v569h227v-569q0 -98 71 -169t169 -71q100 0 170.5 71t70.5 169v569h228v-1036h-228v66q-115 -66 -241 -66q-193 0 -330 137t-137 330z" />
<glyph unicode="v" horiz-adv-x="1122" d="M0 1036h248l311 -706l313 706h250l-458 -1036h-209z" />
<glyph unicode="w" horiz-adv-x="1478" d="M10 1036h238l186 -633l187 633h237l186 -633l187 633h237l-305 -1036h-237l-187 633l-186 -633h-238z" />
<glyph unicode="x" horiz-adv-x="1142" d="M10 0l416 518l-416 516h291l270 -336l271 336h291l-416 -516l416 -518h-291l-271 336l-270 -336h-291z" />
<glyph unicode="y" horiz-adv-x="1112" d="M-10 1034h250l311 -706l313 706h248l-635 -1437h-248l197 448z" />
<glyph unicode="z" horiz-adv-x="1038" d="M51 0v227l606 582h-606v227h936v-227l-606 -582h606v-227h-936z" />
<glyph unicode="{" horiz-adv-x="602" d="M72 610v228q37 0 62.5 25.5t25.5 62.5v202q0 131 93 223.5t224 92.5h64v-227h-64q-37 0 -63.5 -26t-26.5 -63v-202q0 -115 -72 -203q72 -84 72 -201v-203q0 -37 26.5 -62.5t63.5 -25.5h64v-227h-64q-131 0 -224 92t-93 223v203q0 35 -25.5 61.5t-62.5 26.5z" />
<glyph unicode="|" horiz-adv-x="555" d="M164 0v1442h227v-1442h-227z" />
<glyph unicode="}" horiz-adv-x="602" d="M61 4v227h66q37 0 62.5 26t25.5 62v203q0 113 74 201q-74 90 -74 203v202q0 37 -25.5 63t-62.5 26h-66v227h66q131 0 223 -92t92 -224v-202q0 -37 27 -62.5t61 -25.5v-228q-35 0 -61.5 -26.5t-26.5 -61.5v-203q0 -131 -92 -223t-223 -92h-66z" />
<glyph unicode="~" horiz-adv-x="1097" d="M102 522l80 80q61 61 126 83t114 8.5t101 -36t90 -48t77 -28.5t66 21l80 82l159 -162l-80 -80q-61 -61 -124.5 -82.5t-113.5 -8t-101.5 36t-89 48t-77.5 28.5t-65 -22l-80 -80z" />
<glyph unicode="&#xa1;" horiz-adv-x="555" d="M164 4v1051h227v-1051h-227zM164 1133v313h227v-313h-227z" />
<glyph unicode="&#xa2;" d="M150 467v102q0 162 100 289t254 164v217h227v-217q102 -27 182 -92.5t127 -159.5l-204 -98q-31 63 -89.5 100t-130.5 37q-98 0 -168.5 -69.5t-70.5 -170.5v-102q0 -98 70.5 -169t168.5 -71q72 0 130.5 38t87.5 100l206 -99q-45 -92 -125.5 -158.5t-183.5 -93.5v-217h-227 v217q-154 37 -254 164t-100 289z" />
<glyph unicode="&#xa3;" horiz-adv-x="1357" d="M31 606v228h260v90q0 213 151.5 365.5t366.5 152.5q141 0 261 -72t187 -188l-196 -115q-37 68 -104.5 107.5t-147.5 39.5q-121 0 -206 -85t-85 -205v-90h426v-228h-426v-379h582v203h227v-430h-1036v606h-260z" />
<glyph unicode="&#xa4;" horiz-adv-x="1232" d="M102 102l111 127q-63 109 -63 238v102q0 129 63 238l-111 127l172 149l101 -114q109 68 241 67q131 0 244 -67l101 114l169 -149l-110 -127q66 -111 65 -238v-102q0 -127 -65 -238l110 -127l-169 -149l-101 115q-113 -68 -244 -68q-133 0 -241 68l-101 -115zM377 467 q0 -100 69.5 -170t170 -70t170 70t69.5 170v102q0 98 -69.5 169t-170 71t-170 -70.5t-69.5 -169.5v-102z" />
<glyph unicode="&#xa5;" horiz-adv-x="1304" d="M31 1442h274l348 -516l346 516h275l-273 -406h164v-227h-315l-84 -123v-53h405v-227h-405v-406h-227v406h-406v227h406v53l-82 123h-324v227h170z" />
<glyph unicode="&#xa6;" horiz-adv-x="552" d="M164 0v657h227v-657h-227zM164 778v664h227v-664h-227z" />
<glyph unicode="&#xa7;" horiz-adv-x="1196" d="M158 1124q0 131 92 224.5t223 93.5h219q135 0 243.5 -78t151.5 -203l-215 -74q-20 55 -69 91t-111 36h-219q-37 0 -62.5 -26.5t-25.5 -63.5q0 -8 8 -19t42 -26.5t85 -23.5l299 -43q133 -18 204 -110.5t66.5 -205t-69.5 -200.5q74 -74 74 -181q0 -131 -92.5 -223 t-223.5 -92h-221q-135 0 -242.5 78t-150.5 201l215 75q20 -55 68.5 -91t109.5 -36h221q35 0 61.5 26t26.5 62q0 8 -8 18.5t-41 27t-86 24.5l-301 43q-133 20 -202.5 113.5t-65.5 205t69 197.5q-73 74 -73 180zM393.5 709q16.5 -47 69.5 -56l301 -43q53 -8 81.5 33t13.5 88 t-71 55l-301 43q-53 8 -81.5 -32.5t-12 -87.5z" />
<glyph unicode="&#xa8;" horiz-adv-x="927" d="M121 1128v314h229v-314h-229zM580 1128v314h227v-314h-227z" />
<glyph unicode="&#xa9;" horiz-adv-x="1669" d="M113 723q0 297 212 509t509 212q299 0 510.5 -211t211.5 -510t-211.5 -511t-510.5 -212t-510 212t-211 511zM197 723q0 -264 187 -450.5t450 -186.5q264 0 451.5 186.5t187.5 450.5q0 262 -187.5 449.5t-451.5 187.5q-262 0 -449.5 -187.5t-187.5 -449.5zM492 573v299 q0 141 100 240.5t242 99.5q94 0 172.5 -46t123.5 -124l-73 -43q-35 59 -94.5 94t-128.5 35q-106 0 -181 -74.5t-75 -181.5v-299q0 -106 74.5 -182t181.5 -76q70 0 129 36t94 93l71 -43q-43 -78 -121.5 -124t-172.5 -46q-141 0 -241.5 100.5t-100.5 241.5z" />
<glyph unicode="&#xaa;" horiz-adv-x="569" d="M82 1159q0 51 36 87t87 36h119q18 0 30 6q4 4 4 10q0 53 -73 54h-41q-51 0 -70 -49l-84 28q16 47 59.5 78t94.5 31h41q66 0 113.5 -36t47.5 -106v-262h-88v19q-35 -18 -73 -19h-80q-51 0 -87 36t-36 87zM170 1159.5q0 -14.5 10 -25t25 -10.5h80q29 0 50 21.5t23 52.5 q-25 -4 -34 -4h-119q-14 0 -24.5 -10t-10.5 -24.5z" />
<glyph unicode="&#xab;" horiz-adv-x="1400" d="M72 442v152l387 442h303l-453 -518l457 -518h-303zM676 442v152l387 442h303l-455 -518l459 -518h-303z" />
<glyph unicode="&#xac;" horiz-adv-x="1157" d="M41 406v227h1034v-633h-229v406h-805z" />
<glyph unicode="&#xad;" horiz-adv-x="718" d="M102 406v227h514v-227h-514z" />
<glyph unicode="&#xae;" horiz-adv-x="1669" d="M113 723q0 297 212 509t509 212q299 0 510.5 -211t211.5 -510t-211.5 -511t-510.5 -212t-510 212t-211 511zM197 723q0 -264 187 -450.5t450 -186.5q264 0 451.5 186.5t187.5 450.5q0 262 -187.5 449.5t-451.5 187.5q-262 0 -449.5 -187.5t-187.5 -449.5zM492 1212h423 q109 0 185 -77.5t76 -188.5q0 -88 -51.5 -157.5t-131.5 -96.5l187 -418h-97l-178 406h-327v-406h-84zM578 766h337q72 0 124.5 52t52.5 128t-52.5 129t-124.5 53h-337v-362z" />
<glyph unicode="&#xaf;" horiz-adv-x="735" d="M113 1257v183h510v-183h-510z" />
<glyph unicode="&#xb0;" horiz-adv-x="862" d="M82 922v178q0 141 100.5 241.5t241.5 100.5h14q141 0 241.5 -100.5t100.5 -241.5v-178q0 -141 -100 -240.5t-242 -99.5h-14q-141 0 -241.5 99.5t-100.5 240.5zM309 922q0 -47 34 -80t81 -33h14q47 0 81 32.5t34 80.5v178q0 47 -34 79.5t-81 32.5h-14q-47 0 -81 -32.5 t-34 -79.5v-178z" />
<glyph unicode="&#xb1;" horiz-adv-x="1138" d="M51 2v229h1036v-229h-1036zM51 809v227h406v406h227v-406h403v-227h-403v-403h-227v403h-406z" />
<glyph unicode="&#xb2;" horiz-adv-x="692" d="M102 719v115l336 342q18 18 19 55q0 39 -28 67.5t-67 28.5h-51q-66 0 -90 -63l-106 36q23 61 76 100.5t120 39.5h51q86 0 146.5 -60.5t60.5 -148.5q0 -82 -39 -121l-270 -276h309v-115h-467z" />
<glyph unicode="&#xb3;" horiz-adv-x="661" d="M92 858l107 39q25 -63 90 -63h51q39 0 66.5 27.5t27.5 66.5t-27.5 66.5t-66.5 27.5h-51v115h51q39 0 66.5 27.5t27.5 66.5t-27.5 67.5t-66.5 28.5h-51q-66 0 -90 -63l-107 36q23 61 76 100.5t121 39.5h51q86 0 147.5 -60.5t61.5 -148.5q0 -86 -66 -152q66 -61 66 -151 q0 -86 -61.5 -147.5t-147.5 -61.5h-51q-66 0 -120 39t-77 100z" />
<glyph unicode="&#xb4;" horiz-adv-x="630" d="M82 1290l354 203l113 -199l-354 -200z" />
<glyph unicode="&#xb5;" horiz-adv-x="1243" d="M154 -403v1439h227v-569q0 -98 70.5 -169t169.5 -71q100 0 170.5 71t70.5 169v569h228v-1036h-228v66q-115 -66 -241 -66q-129 0 -240 66v-469h-227z" />
<glyph unicode="&#x3bc;" horiz-adv-x="1243" d="M154 -403v1439h227v-569q0 -98 70.5 -169t169.5 -71q100 0 170.5 71t70.5 169v569h228v-1036h-228v66q-115 -66 -241 -66q-129 0 -240 66v-469h-227z" />
<glyph unicode="&#xb6;" horiz-adv-x="1230" d="M31 1024q0 170 117.5 293t287.5 123h2h629v-1440h-227v606h-176v-606h-228v606q-170 2 -287.5 124t-117.5 294zM664 834h176v378h-176v-378z" />
<glyph unicode="&#xb7;" horiz-adv-x="473" d="M123 367v305h227v-305h-227z" />
<glyph unicode="&#xb8;" horiz-adv-x="348" d="M51 -150h27q0 -39 28.5 -66.5t67.5 -27.5t66.5 28t27.5 66.5t-27.5 67.5t-66.5 29h-14v84h26v-58q47 -6 79 -40.5t32 -82.5q0 -51 -36 -86.5t-87 -35.5t-87 35.5t-36 86.5z" />
<glyph unicode="&#xb9;" horiz-adv-x="516" d="M61 1327v113h291v-721h-114v608h-177z" />
<glyph unicode="&#xba;" horiz-adv-x="548" d="M92 1219v38q0 76 53.5 129.5t129 53.5t129 -53.5t53.5 -129.5v-38q0 -76 -53.5 -129.5t-129 -53.5t-129 53.5t-53.5 129.5zM180 1219q0 -39 28 -67t66.5 -28t66.5 28t28 67v38q0 39 -28 67t-66.5 28t-66.5 -28t-28 -67v-38z" />
<glyph unicode="&#xbb;" horiz-adv-x="1400" d="M31 0l456 518l-452 518h303l387 -442v-152l-391 -442h-303zM635 0l457 518l-453 518h301l389 -442v-152l-391 -442h-303z" />
<glyph unicode="&#xbc;" horiz-adv-x="1241" d="M61 1327v113h291v-721h-114v608h-177zM141 0l848 1440h29l-848 -1440h-29zM635 203v112l166 404h121l-170 -404h233v203h113v-520h-113v205h-350z" />
<glyph unicode="&#xbd;" horiz-adv-x="1210" d="M61 1327v113h291v-721h-114v608h-177zM145 -2l848 1442h29l-848 -1442h-29zM631 -2v115l336 344q18 18 18 53q0 39 -27.5 67.5t-68.5 28.5h-49q-70 0 -90 -63l-109 37q23 61 77 100t122 39h49q88 0 148.5 -60.5t60.5 -148.5q0 -82 -39 -121l-273 -276h312v-115h-467z" />
<glyph unicode="&#xbe;" horiz-adv-x="1247" d="M102 858l107 39q25 -63 90 -63h51q39 0 66.5 27.5t27.5 66.5t-27.5 66.5t-66.5 27.5h-51v115h51q39 0 66.5 27.5t27.5 66.5t-27.5 67.5t-66.5 28.5h-51q-66 0 -90 -63l-107 36q23 61 76 100.5t121 39.5h51q86 0 147.5 -60.5t61.5 -148.5q0 -86 -65 -152q66 -61 65 -151 q0 -86 -61.5 -147.5t-147.5 -61.5h-51q-66 0 -120 39t-77 100zM182 0l848 1440h29l-848 -1440h-29zM676 203v112l166 404h121l-170 -404h233v203h113v-518l-113 -2v205h-350z" />
<glyph unicode="&#xbf;" horiz-adv-x="1003" d="M82 420q0 156 101.5 273.5t252.5 140.5v217h228v-441h-164q-78 0 -134.5 -56t-56.5 -134t56.5 -133.5t134.5 -55.5h100q61 0 110.5 35t67.5 90l215 -75q-43 -123 -150.5 -200t-242.5 -77h-100q-174 0 -296 122t-122 294zM436 1128v314h228v-314h-228z" />
<glyph unicode="&#xc0;" horiz-adv-x="1214" d="M20 0l480 1440h217l477 -1440h-240l-100 303h-492l-100 -303h-242zM430 1724l92 160l264 -151l-92 -160zM438 530h340l-170 514z" />
<glyph unicode="&#xc1;" horiz-adv-x="1214" d="M20 0l480 1440h217l477 -1440h-240l-100 303h-492l-100 -303h-242zM430 1733l264 151l92 -160l-264 -151zM438 530h340l-170 514z" />
<glyph unicode="&#xc2;" horiz-adv-x="1214" d="M20 0l480 1440h217l477 -1440h-240l-100 303h-492l-100 -303h-242zM322 1733l264 151h51l264 -151l-92 -160l-199 113l-196 -113zM438 530h340l-170 514z" />
<glyph unicode="&#xc3;" horiz-adv-x="1214" d="M20 2l480 1442h215l479 -1442h-240l-100 303h-494l-100 -303h-240zM262 1565v90q0 96 66.5 163.5t163.5 67.5q53 0 97 -21.5t67.5 -47t47 -47t41.5 -21.5q20 0 34 13.5t14 31.5v92h184v-92q0 -94 -67.5 -161.5t-164.5 -67.5q-68 0 -119 34.5t-81.5 68.5t-52.5 34 q-18 0 -32 -13.5t-14 -33.5v-90h-184zM436 532h342l-172 515z" />
<glyph unicode="&#xc4;" horiz-adv-x="1214" d="M20 4l480 1440h215l479 -1440h-240l-100 303h-494l-100 -303h-240zM260 1573v313h229v-313h-229zM436 535h342l-172 514zM719 1573v313h227v-313h-227z" />
<glyph unicode="&#xc5;" horiz-adv-x="1214" d="M20 0l480 1442h215l479 -1442h-240l-100 303h-494l-100 -303h-240zM416 1720q0 78 56 134.5t134 56.5q80 0 135.5 -56.5t55.5 -134.5t-55.5 -134t-135.5 -56q-78 0 -134 56t-56 134zM436 530h342l-172 514zM524 1720.5q0 -32.5 24.5 -57.5t57.5 -25t57.5 25t24.5 57.5 t-24.5 57t-57.5 24.5t-57.5 -24.5t-24.5 -57z" />
<glyph unicode="&#xc6;" horiz-adv-x="2113" d="M-20 0l964 1442h1036v-228h-809v-380h809v-228h-809v-379h809v-227h-1036v303h-487l-203 -303h-274zM608 530h336v500z" />
<glyph unicode="&#xc7;" d="M123 518v406q0 213 151.5 365.5t366.5 152.5q141 0 261 -72t188 -188l-197 -115q-37 68 -104.5 107.5t-147.5 39.5q-121 0 -206 -85t-85 -205v-406q0 -121 85 -206t206 -85q80 0 146.5 40t105.5 106l197 -113q-68 -117 -183.5 -187.5t-255.5 -72.5v-27q47 -6 79 -40.5 t32 -82.5q0 -51 -36 -86.5t-87 -35.5t-87 35.5t-36 86.5h27q0 -39 28.5 -66.5t67.5 -27.5t66.5 28t27.5 66.5t-27.5 67.5t-66.5 29h-14v53q-209 6 -355.5 156.5t-146.5 361.5z" />
<glyph unicode="&#xc8;" horiz-adv-x="1333" d="M164 2v1442h1036v-227h-809v-379h809v-228h-809v-379h809v-229h-1036zM492 1724l92 160l264 -151l-92 -160z" />
<glyph unicode="&#xc9;" horiz-adv-x="1333" d="M164 0v1442h1036v-230h-809v-378h809v-228h-809v-379h809v-227h-1036zM492 1733l264 151l92 -160l-264 -151z" />
<glyph unicode="&#xca;" horiz-adv-x="1333" d="M164 0v1442h1036v-230h-809v-378h809v-228h-809v-379h809v-227h-1036zM391 1733l264 151h52l264 -151l-92 -160l-199 113l-197 -113z" />
<glyph unicode="&#xcb;" horiz-adv-x="1333" d="M164 0v1442h1036v-230h-809v-378h809v-228h-809v-379h809v-227h-1036zM338 1573v313h229v-313h-229zM797 1573v313h227v-313h-227z" />
<glyph unicode="&#xcc;" horiz-adv-x="555" d="M100 1724l93 160l264 -151l-92 -160zM164 0v1442h227v-1442h-227z" />
<glyph unicode="&#xcd;" horiz-adv-x="555" d="M98 1733l264 151l93 -160l-265 -151zM164 0v1442h227v-1442h-227z" />
<glyph unicode="&#xce;" horiz-adv-x="555" d="M-14 1733l264 151h51l264 -151l-92 -160l-199 113l-196 -113zM164 0v1442h227v-1442h-227z" />
<glyph unicode="&#xcf;" horiz-adv-x="555" d="M-66 1573v313h230v-313h-230zM164 0v1442h227v-1442h-227zM393 1573v313h228v-313h-228z" />
<glyph unicode="&#xd0;" horiz-adv-x="1429" d="M0 606v228h270v608h518q213 0 366 -152.5t153 -365.5v-406q0 -215 -153 -366.5t-366 -151.5h-518v606h-270zM498 227h290q119 0 204 85t85 206v406q0 121 -85 205.5t-204 84.5h-290v-380h270v-228h-270v-379z" />
<glyph unicode="&#xd1;" horiz-adv-x="1363" d="M164 0v1442h211l598 -1006v1006h227v-1442h-221l-588 987v-987h-227zM324 1565v90q0 96 66.5 163.5t162.5 67.5q53 0 97 -21.5t67.5 -47t47 -47t42.5 -21.5q20 0 33.5 13.5t13.5 31.5v92h184v-92q0 -94 -67.5 -161.5t-163.5 -67.5q-68 0 -119 34.5t-82 68.5t-53 34 q-18 0 -31.5 -13.5t-13.5 -33.5v-90h-184z" />
<glyph unicode="&#xd2;" horiz-adv-x="1282" d="M123 522v404q0 215 151.5 366.5t366.5 151.5t366.5 -151.5t151.5 -366.5v-404q0 -215 -151.5 -366.5t-366.5 -151.5t-366.5 151.5t-151.5 366.5zM350 522q0 -121 85 -206t206 -85t206 85t85 206v404q0 119 -85 205t-206 86t-206 -86.5t-85 -204.5v-404zM451 1724l92 160 l264 -151l-92 -160z" />
<glyph unicode="&#xd3;" horiz-adv-x="1282" d="M123 522v404q0 215 151.5 366.5t366.5 151.5t366.5 -151.5t151.5 -366.5v-404q0 -215 -151.5 -366.5t-366.5 -151.5t-366.5 151.5t-151.5 366.5zM350 522q0 -121 85 -206t206 -85t206 85t85 206v404q0 119 -85 205t-206 86t-206 -86.5t-85 -204.5v-404zM451 1733l264 151 l92 -160l-264 -151z" />
<glyph unicode="&#xd4;" horiz-adv-x="1282" d="M123 522v404q0 215 151.5 366.5t366.5 151.5t366.5 -151.5t151.5 -366.5v-404q0 -215 -151.5 -366.5t-366.5 -151.5t-366.5 151.5t-151.5 366.5zM350 522q0 -121 85 -206t206 -85t206 85t85 206v404q0 119 -85 205t-206 86t-206 -86.5t-85 -204.5v-404zM354 1737l264 151 h52l264 -151l-92 -160l-199 113l-197 -113z" />
<glyph unicode="&#xd5;" horiz-adv-x="1282" d="M123 522v404q0 215 151.5 366.5t366.5 151.5t366.5 -151.5t151.5 -366.5v-404q0 -215 -151.5 -366.5t-366.5 -151.5t-366.5 151.5t-151.5 366.5zM262 1565v90q0 96 66.5 163.5t163.5 67.5q53 0 97 -21.5t67.5 -47t47 -47t41.5 -21.5q20 0 34 13.5t14 31.5v92h184v-92 q0 -94 -67.5 -161.5t-164.5 -67.5q-68 0 -119 34.5t-81.5 68.5t-52.5 34q-18 0 -32 -13.5t-14 -33.5v-90h-184zM350 522q0 -121 85 -206t206 -85t206 85t85 206v404q0 119 -85 205t-206 86t-206 -86.5t-85 -204.5v-404z" />
<glyph unicode="&#xd6;" horiz-adv-x="1282" d="M123 522v404q0 215 151.5 366.5t366.5 151.5t366.5 -151.5t151.5 -366.5v-404q0 -215 -151.5 -366.5t-366.5 -151.5t-366.5 151.5t-151.5 366.5zM301 1573v313h229v-313h-229zM350 522q0 -121 85 -206t206 -85t206 85t85 206v404q0 119 -85 205t-206 86t-206 -86.5 t-85 -204.5v-404zM760 1573v313h227v-313h-227z" />
<glyph unicode="&#xd7;" horiz-adv-x="995" d="M51 240l287 286l-287 287l162 160l287 -287l284 287l160 -162l-285 -285l285 -284l-160 -162l-284 287l-287 -287z" />
<glyph unicode="&#xd8;" horiz-adv-x="1282" d="M123 0l123 184q-123 141 -123 334v406q0 213 151.5 365.5t366.5 152.5q199 0 352 -137l90 137h31l-102 -156q147 -154 147 -362v-406q0 -215 -151.5 -366.5t-366.5 -151.5q-225 0 -379 164l-108 -164h-31zM350 518q0 -66 31 -131l483 723q-90 104 -223 104 q-121 0 -206 -85t-85 -205v-406zM395 362q39 -61 104.5 -98t141.5 -37q121 0 206 85t85 206v406q0 94 -53 166z" />
<glyph unicode="&#xd9;" horiz-adv-x="1323" d="M143 522v922h228v-922q0 -121 85 -206t205.5 -85t205.5 85t85 206v922h228v-922q0 -215 -151.5 -366.5t-367 -151.5t-367 151.5t-151.5 366.5zM451 1724l92 160l264 -151l-92 -160z" />
<glyph unicode="&#xda;" horiz-adv-x="1323" d="M143 522v922h228v-922q0 -121 85 -206t205.5 -85t205.5 85t85 206v922h228v-922q0 -215 -151.5 -366.5t-367 -151.5t-367 151.5t-151.5 366.5zM451 1733l264 151l92 -160l-264 -151z" />
<glyph unicode="&#xdb;" horiz-adv-x="1323" d="M143 522v922h228v-922q0 -121 85 -206t205.5 -85t205.5 85t85 206v922h228v-922q0 -215 -151.5 -366.5t-367 -151.5t-367 151.5t-151.5 366.5zM371 1737l264 151h51l264 -151l-92 -160l-199 113l-196 -113z" />
<glyph unicode="&#xdc;" horiz-adv-x="1323" d="M143 522v922h228v-922q0 -121 85 -206t205.5 -85t205.5 85t85 206v922h228v-922q0 -215 -151.5 -366.5t-367 -151.5t-367 151.5t-151.5 366.5zM301 1573v313h229v-313h-229zM760 1573v313h227v-313h-227z" />
<glyph unicode="&#xdd;" horiz-adv-x="1243" d="M0 1442h274l349 -516l346 516h274l-508 -754v-686h-227v686zM410 1733l264 151l92 -160l-264 -151z" />
<glyph unicode="&#xde;" horiz-adv-x="1241" d="M164 0v1442h227v-305h402q170 0 288.5 -122t118.5 -294t-118.5 -295t-288.5 -123h-402v-303h-227zM391 530h402q74 0 127 55.5t53 135.5t-53.5 134t-126.5 54h-402v-379z" />
<glyph unicode="&#xdf;" horiz-adv-x="1202" d="M154 4v1022q0 174 121.5 296t295.5 122h101q174 0 296 -122t122 -296q0 -178 -132 -303q131 -125 132 -303q0 -172 -122 -294t-296 -122h-101v227h101q78 0 134 55.5t56 133.5t-56 134t-134 56h-56v228h56q78 0 134 55t56 133q0 80 -56 135.5t-134 55.5h-101 q-78 0 -134 -55.5t-56 -135.5v-1022h-227z" />
<glyph unicode="&#xe0;" horiz-adv-x="1161" d="M92 315q0 131 92 224.5t224 93.5h305q55 0 80 14q8 10 8 23q0 139 -191 139h-100q-61 0 -110.5 -36t-69.5 -91l-215 76q43 123 151.5 200.5t243.5 77.5h100q168 0 293 -94t125 -272v-670h-227v45q-90 -45 -191 -45h-202q-131 0 -223.5 92t-92.5 223zM319 315.5 q0 -36.5 26 -62.5t63 -26h202q78 0 133.5 53.5t57.5 131.5q-43 -6 -88 -6h-305q-37 0 -63 -27t-26 -63.5zM385 1280l92 160l264 -152l-92 -160z" />
<glyph unicode="&#xe1;" horiz-adv-x="1161" d="M92 315q0 131 92 224.5t224 93.5h305q55 0 80 14q8 10 8 23q0 61 -47 100t-144 39h-100q-61 0 -110.5 -36t-69.5 -91l-215 76q43 123 151.5 200.5t243.5 77.5h100q168 0 293 -94t125 -272v-670h-227v45q-90 -45 -191 -45h-202q-131 0 -223.5 92t-92.5 223zM319 315.5 q0 -36.5 26 -62.5t63 -26h202q78 0 133.5 53.5t57.5 131.5q-57 -8 -88 -9h-305q-37 0 -63 -25.5t-26 -62zM385 1288l264 152l92 -160l-264 -152z" />
<glyph unicode="&#xe2;" horiz-adv-x="1161" d="M92 315q0 131 92 224.5t224 93.5h305q55 0 80 14q8 10 8 23q0 61 -47 100t-144 39h-100q-61 0 -110.5 -36t-69.5 -91l-215 76q43 123 151.5 200.5t243.5 77.5h100q168 0 293 -94t125 -272v-670h-227v45q-90 -45 -191 -45h-202q-131 0 -223.5 92t-92.5 223zM270 1288 l265 152h51l264 -152l-92 -160l-199 113l-197 -113zM319 315.5q0 -36.5 26 -62.5t63 -26h202q78 0 133.5 53.5t57.5 131.5q-57 -8 -88 -9h-305q-37 0 -63 -25.5t-26 -62z" />
<glyph unicode="&#xe3;" horiz-adv-x="1161" d="M92 315q0 131 92 224.5t224 93.5h305q55 0 80 14q8 10 8 23q0 61 -47 100t-144 39h-100q-61 0 -110.5 -36t-69.5 -91l-215 76q43 123 151.5 200.5t243.5 77.5h100q168 0 293 -94t125 -272v-670h-227v45q-90 -45 -191 -45h-202q-131 0 -223.5 92t-92.5 223zM209 1120v90 q0 96 66.5 164t162.5 68q68 0 119 -35t83 -68.5t52.5 -33.5t33.5 13t13 32v92h185v-92q0 -94 -68 -162t-164 -68q-53 0 -97 21.5t-66.5 47t-47 47t-43 21.5t-32 -13t-13.5 -34v-90h-184zM319 315.5q0 -36.5 26 -62.5t63 -26h202q78 0 133.5 53.5t57.5 131.5q-57 -8 -88 -9 h-305q-37 0 -63 -25.5t-26 -62z" />
<glyph unicode="&#xe4;" horiz-adv-x="1161" d="M92 315q0 131 92 224.5t224 93.5h305q55 0 80 14q8 10 8 23q0 61 -47 100t-144 39h-100q-61 0 -110.5 -36t-69.5 -91l-215 76q43 123 151.5 200.5t243.5 77.5h100q168 0 293 -94t125 -272v-670h-227v45q-90 -45 -191 -45h-202q-131 0 -223.5 92t-92.5 223zM221 1128v314 h230v-314h-230zM319 315.5q0 -36.5 26 -62.5t63 -26h202q78 0 133.5 53.5t57.5 131.5q-57 -8 -88 -9h-305q-37 0 -63 -25.5t-26 -62zM680 1128v314h227v-314h-227z" />
<glyph unicode="&#xe5;" horiz-adv-x="1161" d="M92 315q0 131 92 224.5t224 93.5h305q55 0 80 14q8 10 8 23q0 139 -191 139h-100q-61 0 -110.5 -36t-69.5 -91l-215 76q43 123 151.5 200.5t243.5 77.5h100q168 0 293 -94t125 -272v-670h-227v45q-90 -45 -191 -45h-202q-131 0 -223.5 92t-92.5 223zM319 315.5 q0 -36.5 26 -62.5t63 -26h202q78 0 133.5 53.5t57.5 131.5q-43 -6 -88 -6h-305q-37 0 -63 -27t-26 -63.5zM379 1259.5q0 73.5 52 127t126 53.5t127 -53.5t53 -127t-53 -126t-127 -52.5t-126 52.5t-52 126zM492 1259.5q0 -26.5 18 -46t47 -19.5t47.5 19.5t18.5 46t-18.5 46 t-47.5 19.5t-47 -19.5t-18 -46z" />
<glyph unicode="&#xe6;" horiz-adv-x="1806" d="M72 315q0 131 92 224.5t223 93.5h305q55 0 80 14q8 10 8 23q0 139 -190 139h-101q-61 0 -110 -36t-70 -91l-215 76q43 123 151.5 200.5t243.5 77.5h101q215 0 332 -131q135 131 325 131q195 0 331 -137t136 -330v-166h-698q20 -76 84.5 -126t146.5 -50q117 0 189 92 l180 -141q-141 -178 -369 -178q-203 0 -340 147q-125 -147 -317 -147h-101h-102q-131 0 -223 92t-92 223zM299 315.5q0 -36.5 25.5 -62.5t62.5 -26h102h101q78 0 133 53.5t57 131.5q-57 -8 -88 -9h-305q-37 0 -62.5 -25.5t-25.5 -62zM1016 633h463q-20 76 -85 126t-147 50 t-146.5 -50t-84.5 -126z" />
<glyph unicode="&#xe7;" horiz-adv-x="1054" d="M92 467v102q0 193 136.5 330t330.5 137q139 0 253 -73.5t171 -192.5l-205 -100q-31 63 -89 101t-130 38q-98 0 -169 -70.5t-71 -169.5v-102q0 -98 71 -169t169 -71q72 0 130.5 38t86.5 100l207 -99q-55 -117 -165.5 -189.5t-244.5 -76.5v-27q47 -6 78 -40.5t31 -82.5 q0 -51 -36 -86.5t-87 -35.5t-87 35.5t-36 86.5h29q0 -39 27.5 -66.5t66.5 -27.5t67.5 28t28.5 66.5t-28.5 67.5t-67.5 29h-12v53q-190 6 -322.5 141.5t-132.5 325.5z" />
<glyph unicode="&#xe8;" horiz-adv-x="1120" d="M92 467v102q0 193 136.5 330t331 137t331.5 -137t137 -330v-166h-700q23 -76 86 -126t145 -50q119 0 191 92l178 -141q-141 -178 -369 -178q-195 0 -331 137t-136 330zM328 633h465q-23 76 -87.5 126t-146.5 50t-145 -50t-86 -126zM385 1280l92 160l264 -152l-92 -160z " />
<glyph unicode="&#xe9;" horiz-adv-x="1120" d="M92 467v102q0 193 136.5 330t331 137t331.5 -137t137 -330v-166h-700q23 -76 86 -126t145 -50q119 0 191 92l178 -141q-141 -178 -369 -178q-195 0 -331 137t-136 330zM328 633h465q-23 76 -87.5 126t-146.5 50t-145 -50t-86 -126zM385 1288l264 152l92 -160l-264 -152z " />
<glyph unicode="&#xea;" horiz-adv-x="1120" d="M92 467v102q0 193 136.5 330t331 137t331.5 -137t137 -330v-166h-700q23 -76 86 -126t145 -50q119 0 191 92l178 -141q-141 -178 -369 -178q-195 0 -331 137t-136 330zM270 1288l265 152h51l264 -152l-92 -160l-199 113l-197 -113zM328 633h465q-23 76 -87.5 126 t-146.5 50t-145 -50t-86 -126z" />
<glyph unicode="&#xeb;" horiz-adv-x="1120" d="M92 467v102q0 193 136.5 330t331 137t331.5 -137t137 -330v-166h-700q23 -76 86 -126t145 -50q119 0 191 92l178 -141q-141 -178 -369 -178q-195 0 -331 137t-136 330zM221 1128v314h230v-314h-230zM328 633h465q-23 76 -87.5 126t-146.5 50t-145 -50t-86 -126zM680 1128 v314h227v-314h-227z" />
<glyph unicode="&#xec;" horiz-adv-x="489" d="M66 1280l92 160l264 -152l-92 -160zM129 0v1036h227v-1036h-227z" />
<glyph unicode="&#xed;" horiz-adv-x="489" d="M61 1288l265 152l92 -160l-264 -152zM131 0v1036h227v-1036h-227z" />
<glyph unicode="&#xee;" horiz-adv-x="870" d="M150 1288l264 152h51l264 -152l-92 -160l-199 113l-196 -113zM330 0v1036h227v-1036h-227z" />
<glyph unicode="&#xef;" horiz-adv-x="727" d="M20 1128v314h230v-314h-230zM250 0v1036h227v-1036h-227zM479 1128v314h228v-314h-228z" />
<glyph unicode="&#xf0;" d="M92 467v102q0 193 136.5 330t330.5 137q127 0 242 -65v129h-158v227h158v115h227v-115h154v-227h-154v-1100h-227v66q-115 -66 -242 -66q-195 0 -331 137t-136 330zM319 467q0 -98 71 -169t169 -71q100 0 171 71t71 169v102q0 100 -71 170t-171 70q-98 0 -169 -69.5 t-71 -170.5v-102z" />
<glyph unicode="&#xf1;" horiz-adv-x="1212" d="M154 0v1036h227v-65q111 66 240 65q195 0 332 -137t137 -330v-569h-228v569q0 98 -70.5 169t-170.5 71q-98 0 -169 -70.5t-71 -169.5v-569h-227zM250 1120v90q0 96 66.5 164t162.5 68q68 0 119 -35t83 -68.5t52.5 -33.5t33.5 13t13 32v92h185v-92q0 -94 -68 -162 t-164 -68q-53 0 -97 21.5t-66.5 47t-47 47t-43 21.5t-32 -13t-13.5 -34v-90h-184z" />
<glyph unicode="&#xf2;" horiz-adv-x="1120" d="M92 467v102q0 193 136.5 330t331 137t331.5 -137t137 -330v-102q0 -193 -137 -330t-331.5 -137t-331 137t-136.5 330zM319 467q0 -98 71 -169t169 -71q100 0 171 71t71 169v102q0 98 -71 169t-171 71q-98 0 -169 -70.5t-71 -169.5v-102zM385 1280l92 160l264 -152 l-92 -160z" />
<glyph unicode="&#xf3;" horiz-adv-x="1120" d="M92 467v102q0 193 136.5 330t331 137t331.5 -137t137 -330v-102q0 -193 -137 -330t-331.5 -137t-331 137t-136.5 330zM319 467q0 -98 71 -169t169 -71q100 0 171 71t71 169v102q0 98 -71 169t-171 71q-98 0 -169 -70.5t-71 -169.5v-102zM385 1288l264 152l92 -160 l-264 -152z" />
<glyph unicode="&#xf4;" horiz-adv-x="1120" d="M92 467v102q0 193 136.5 330t331 137t331.5 -137t137 -330v-102q0 -193 -137 -330t-331.5 -137t-331 137t-136.5 330zM272 1288l265 152h51l264 -152l-92 -160l-199 113l-196 -113zM319 467q0 -98 71 -169t169 -71q100 0 171 71t71 169v102q0 98 -71 169t-171 71 q-98 0 -169 -70.5t-71 -169.5v-102z" />
<glyph unicode="&#xf5;" horiz-adv-x="1120" d="M92 467v102q0 193 136.5 330t331 137t331.5 -137t137 -330v-102q0 -193 -137 -330t-331.5 -137t-331 137t-136.5 330zM201 1120v90q0 96 66.5 164t162.5 68q68 0 119 -35t83 -68.5t52.5 -33.5t33.5 13t13 32v92h184v-92q0 -94 -67.5 -162t-163.5 -68q-53 0 -97 21.5 t-66.5 47t-47 47t-43 21.5t-32 -13t-13.5 -34v-90h-184zM319 467q0 -98 71 -169t169 -71q100 0 171 71t71 169v102q0 98 -71 169t-171 71q-98 0 -169 -70.5t-71 -169.5v-102z" />
<glyph unicode="&#xf6;" horiz-adv-x="1120" d="M92 467v102q0 193 136.5 330t331 137t331.5 -137t137 -330v-102q0 -193 -137 -330t-331.5 -137t-331 137t-136.5 330zM221 1128v314h230v-314h-230zM319 467q0 -98 71 -169t169 -71q100 0 171 71t71 169v102q0 98 -71 169t-171 71q-98 0 -169 -70.5t-71 -169.5v-102z M680 1128v314h227v-314h-227z" />
<glyph unicode="&#xf7;" horiz-adv-x="1138" d="M51 406v227h1036v-227h-1036zM455 4v311h229v-311h-229zM455 723v313h229v-313h-229z" />
<glyph unicode="&#xf8;" horiz-adv-x="1140" d="M102 467v102q0 193 137.5 330t329.5 137q152 0 273 -88l59 88h31l-70 -102q176 -141 176 -365v-102q0 -193 -137 -330t-332 -137q-147 0 -272 88l-57 -88h-31l70 102q-177 140 -177 365zM330 467q0 -102 76 -174l311 467q-66 49 -148 49q-98 0 -168.5 -69.5t-70.5 -170.5 v-102zM424 276q66 -49 145 -49q100 0 171 71t71 169v102q0 104 -76 174z" />
<glyph unicode="&#xf9;" horiz-adv-x="1212" d="M123 467v569h227v-569q0 -98 71 -169t169 -71q100 0 170.5 71t70.5 169v569h228v-1036h-228v66q-115 -66 -241 -66q-193 0 -330 137t-137 330zM385 1280l92 160l264 -152l-92 -160z" />
<glyph unicode="&#xfa;" horiz-adv-x="1212" d="M123 467v569h227v-569q0 -98 71 -169t169 -71q100 0 170.5 71t70.5 169v569h228v-1036h-228v66q-115 -66 -241 -66q-193 0 -330 137t-137 330zM385 1288l264 152l92 -160l-264 -152z" />
<glyph unicode="&#xfb;" horiz-adv-x="1212" d="M123 467v569h227v-569q0 -98 71 -169t169 -71q100 0 170.5 71t70.5 169v569h228v-1036h-228v66q-115 -66 -241 -66q-193 0 -330 137t-137 330zM301 1288l264 152h51l265 -152l-93 -160l-198 113l-197 -113z" />
<glyph unicode="&#xfc;" horiz-adv-x="1212" d="M123 467v569h227v-569q0 -98 71 -169t169 -71q100 0 170.5 71t70.5 169v569h228v-1036h-228v66q-115 -66 -241 -66q-193 0 -330 137t-137 330zM252 1128v314h229v-314h-229zM711 1128v314h227v-314h-227z" />
<glyph unicode="&#xfd;" horiz-adv-x="1148" d="M0 1036h248l325 -751l328 751h248l-625 -1442h-248l175 406zM385 1288l264 152l92 -160l-264 -152z" />
<glyph unicode="&#xfe;" horiz-adv-x="1191" d="M164 -403v1845h227v-471q111 66 240 65q195 0 332 -137t137 -330v-102q0 -193 -137.5 -330t-331.5 -137q-129 0 -240 66v-469h-227zM391 467q0 -98 70.5 -169t169.5 -71q100 0 170.5 71t70.5 169v102q0 100 -70.5 170t-170.5 70q-98 0 -169 -69.5t-71 -170.5v-102z" />
<glyph unicode="&#xff;" horiz-adv-x="1189" d="M20 1036h248l326 -751l328 751h247l-624 -1442h-248l174 406zM248 1128v314h229v-314h-229zM707 1128v314h227v-314h-227z" />
<glyph unicode="&#x152;" horiz-adv-x="2101" d="M123 518v406q0 213 151.5 365.5t366.5 152.5q162 0 291 -90v90h1036v-230h-809v-378h809v-228h-809v-379h809v-227h-1036v90q-129 -90 -291 -90q-215 0 -366.5 151.5t-151.5 366.5zM350 518q0 -121 85 -206t206 -85t206 85t85 206v88v228v90q0 121 -85 205.5t-206 84.5 t-206 -85t-85 -205v-406z" />
<glyph unicode="&#x153;" horiz-adv-x="1826" d="M92 467v102q0 193 136.5 330t330.5 137q213 0 354 -162q141 162 355 162q195 0 331 -137t136 -330v-166h-699q20 -76 85 -126t147 -50q117 0 188 92l180 -141q-141 -178 -368 -178q-213 0 -355 162q-141 -162 -354 -162q-195 0 -331 137t-136 330zM319 467q0 -98 71 -169 t169 -71q100 0 171 71t71 169v102q0 98 -71 169t-171 71q-98 0 -169 -70.5t-71 -169.5v-102zM1036 633h463q-20 76 -84.5 126t-146.5 50t-147 -50t-85 -126z" />
<glyph unicode="&#x178;" horiz-adv-x="1284" d="M20 1442h275l348 -516l346 516h275l-508 -754v-686h-228v686zM295 1573v313h229v-313h-229zM754 1573v313h227v-313h-227z" />
<glyph unicode="&#x2c6;" horiz-adv-x="681" d="M51 1288l264 152h52l264 -152l-92 -160l-199 113l-197 -113z" />
<glyph unicode="&#x2dc;" horiz-adv-x="954" d="M123 1118v90q0 96 66.5 164t162.5 68q53 0 97.5 -21.5t68 -47t47 -47t41.5 -21.5q20 0 33.5 13t13.5 32v92h185v-92q0 -94 -68 -162t-164 -68q-68 0 -119 35t-81.5 68.5t-53.5 33.5q-18 0 -31.5 -13t-13.5 -34v-90h-184z" />
<glyph unicode="&#x2000;" horiz-adv-x="954" />
<glyph unicode="&#x2001;" horiz-adv-x="1910" />
<glyph unicode="&#x2002;" horiz-adv-x="954" />
<glyph unicode="&#x2003;" horiz-adv-x="1910" />
<glyph unicode="&#x2004;" horiz-adv-x="636" />
<glyph unicode="&#x2005;" horiz-adv-x="477" />
<glyph unicode="&#x2006;" horiz-adv-x="317" />
<glyph unicode="&#x2007;" horiz-adv-x="317" />
<glyph unicode="&#x2008;" horiz-adv-x="237" />
<glyph unicode="&#x2009;" horiz-adv-x="380" />
<glyph unicode="&#x200a;" horiz-adv-x="104" />
<glyph unicode="&#x2010;" horiz-adv-x="718" d="M102 406v227h514v-227h-514z" />
<glyph unicode="&#x2011;" horiz-adv-x="718" d="M102 406v227h514v-227h-514z" />
<glyph unicode="&#x2012;" horiz-adv-x="718" d="M102 406v227h514v-227h-514z" />
<glyph unicode="&#x2013;" horiz-adv-x="1140" d="M102 408v227h936v-227h-936z" />
<glyph unicode="&#x2014;" horiz-adv-x="2054" d="M102 408v227h1850v-227h-1850z" />
<glyph unicode="&#x2018;" horiz-adv-x="432" d="M102 870v318q0 98 65.5 172t162.5 84v-115q-49 -10 -81 -50t-32 -91h113v-318h-228z" />
<glyph unicode="&#x2019;" horiz-adv-x="432" d="M102 870v117q49 10 82 50t33 91h-115v316h228v-316q0 -98 -65 -172t-163 -86z" />
<glyph unicode="&#x201a;" horiz-adv-x="473" d="M123 4v315h227v-315q0 -98 -64.5 -172t-162.5 -86v115q49 10 82 51t33 92h-115z" />
<glyph unicode="&#x201c;" horiz-adv-x="815" d="M123 868v318q0 98 65.5 172t161.5 84v-115q-49 -10 -80.5 -50t-31.5 -91h112v-318h-227zM465 868v318q0 98 65.5 172t161.5 84v-115q-49 -10 -80.5 -50t-31.5 -91h112v-318h-227z" />
<glyph unicode="&#x201d;" horiz-adv-x="815" d="M123 868v115q49 10 81 50t32 91h-113v318h227v-318q0 -98 -65.5 -172t-161.5 -84zM465 868v115q49 10 81 50t32 91h-113v318h227v-318q0 -98 -65.5 -172t-161.5 -84z" />
<glyph unicode="&#x201e;" horiz-adv-x="815" d="M123 0v317h227v-317q0 -98 -65.5 -172t-161.5 -84v115q49 10 81 50t32 91h-113zM465 0v317h227v-317q0 -98 -65.5 -172t-161.5 -84v115q49 10 81 50t32 91h-113z" />
<glyph unicode="&#x2022;" horiz-adv-x="882" d="M92 678v16q0 141 100.5 241.5t241.5 100.5h15q141 0 241.5 -100t100.5 -242v-16q0 -141 -100.5 -240.5t-241.5 -99.5h-15q-141 0 -241.5 99.5t-100.5 240.5z" />
<glyph unicode="&#x2026;" horiz-adv-x="1384" d="M123 0v303h227v-303h-227zM578 2v303h227v-303h-227zM1034 2v303h228v-303h-228z" />
<glyph unicode="&#x202f;" horiz-adv-x="380" />
<glyph unicode="&#x2039;" horiz-adv-x="817" d="M72 442v152l387 442h303l-453 -518l457 -518h-303z" />
<glyph unicode="&#x203a;" horiz-adv-x="817" d="M51 0l457 518l-453 518h303l387 -442v-152l-391 -442h-303z" />
<glyph unicode="&#x205f;" horiz-adv-x="477" />
<glyph unicode="&#x20ac;" horiz-adv-x="1296" d="M31 406v227h266v176h-266v227h278q41 176 182.5 291t323.5 115q141 0 261 -71t190 -189l-199 -115q-37 68 -104.5 107.5t-147.5 39.5q-88 0 -160.5 -49t-105.5 -129h405v-227h-430v-176h430v-227h-405q33 -80 105.5 -129.5t160.5 -49.5q80 0 147.5 40t104.5 106l197 -113 q-68 -119 -188 -189.5t-261 -70.5q-182 0 -323.5 114.5t-182.5 291.5h-278z" />
<glyph unicode="&#x2122;" horiz-adv-x="860" d="M41 1380v66h295v-66h-115v-344h-65v344h-115zM367 1036v410h63l123 -303l123 303h63v-410h-65v230l-92 -230h-60l-90 230v-230h-65z" />
<glyph unicode="&#xe000;" horiz-adv-x="1035" d="M0 1035h1035v-1035h-1035v1035z" />
<glyph unicode="&#xfb01;" horiz-adv-x="1212" d="M37 809v227h237v88q0 131 92.5 224.5t223.5 93.5h145v-230h-145q-37 0 -62.5 -25.5t-25.5 -62.5v-88h571v-1036h-229v809h-342v-809h-228v809h-237zM844 1124v318h229v-318h-229z" />
<glyph unicode="&#xfb02;" horiz-adv-x="1212" d="M37 809v227h237v88q0 131 92.5 224.5t223.5 93.5h483v-1442h-227v1212h-256q-37 0 -62.5 -25.5t-25.5 -62.5v-88h233v-227h-233v-809h-228v809h-237z" />
<glyph unicode="&#xfb03;" horiz-adv-x="2033" d="M1643 0v1036h227v-1036h-227zM1643 1124v318h227v-318h-227zM739 809v227h238v88q0 131 92 224.5t223 93.5h145v-230h-145q-37 0 -62.5 -25.5t-25.5 -62.5v-88h233v-227h-233v-809h-227v809h-238zM0 809v227h238v88q0 131 92 224.5t223 93.5h145v-230h-145 q-37 0 -62.5 -25.5t-25.5 -62.5v-88h233v-227h-233v-809h-227v809h-238z" />
<glyph unicode="&#xfb04;" horiz-adv-x="2033" d="M1643 0v1442h227v-1442h-227zM739 809v227h238v88q0 131 92 224.5t223 93.5h145v-230h-145q-37 0 -62.5 -25.5t-25.5 -62.5v-88h233v-227h-233v-809h-227v809h-238zM0 809v227h238v88q0 131 92 224.5t223 93.5h145v-230h-145q-37 0 -62.5 -25.5t-25.5 -62.5v-88h233v-227 h-233v-809h-227v809h-238z" />
<glyph horiz-adv-x="0" />
</font>
</defs>
</svg>
