<?xml version="1.0" standalone="no"?>
<!DOCTYPE svg PUBLIC "-//W3C//DTD SVG 1.1//EN" "http://www.w3.org/Graphics/SVG/1.1/DTD/svg11.dtd" >
<svg xmlns="http://www.w3.org/2000/svg">
<metadata>
This is a custom SVG webfont generated by Font Squirrel.
Copyright   : Copyright c 2008 by Stefan Gandl All rights reserved
Designer    : Stefan Gandl
Foundry     : Stefan Gandl
Foundry URL : wwwneubauladencom
</metadata>
<defs>
<font id="NeubauGrotesk45Mager" horiz-adv-x="1163" >
<font-face units-per-em="2048" ascent="1638" descent="-410" />
<missing-glyph horiz-adv-x="614" />
<glyph unicode=" "  horiz-adv-x="614" />
<glyph unicode="&#x09;" horiz-adv-x="614" />
<glyph unicode="&#xa0;" horiz-adv-x="614" />
<glyph unicode="!" horiz-adv-x="432" d="M174 0v225h84v-225h-84zM174 453v989h84v-989h-84z" />
<glyph unicode="&#x22;" horiz-adv-x="520" d="M133 989v453h84v-453h-84zM301 989v453h86v-453h-86z" />
<glyph unicode="#" d="M86 225v86h225v819h-225v84h225v228h86v-228h367v228h86v-228h225v-84h-225v-819h225v-86h-225v-225h-86v225h-367v-225h-86v225h-225zM397 311h367v819h-367v-819z" />
<glyph unicode="$" d="M86 1061q0 158 108.5 269.5t262.5 111.5h82v225h84v-225h82q119 0 215 -71t135 -183l-80 -29q-31 88 -104.5 143.5t-165.5 55.5h-248q-117 0 -202 -87t-85 -210q0 -223 260 -273q29 -6 96.5 -14t118.5 -17t121 -26.5t119 -45.5t95 -66.5t70.5 -99t24.5 -138.5 q0 -158 -108.5 -269.5t-261.5 -111.5h-82v-225h-84v225h-82q-119 0 -215.5 71.5t-135.5 184.5l80 27q31 -88 105 -143.5t166 -55.5h248q117 0 201.5 87t84.5 210q0 98 -50 159.5t-130 87t-176 40t-192.5 34t-176.5 53t-130 110.5t-50 196z" />
<glyph unicode="%" horiz-adv-x="1583" d="M92 975v170q0 123 87 210t210 87h17q123 0 209.5 -87t86.5 -210v-170q0 -123 -87 -210t-209 -87h-17q-123 0 -210 87t-87 210zM176 975q0 -88 62.5 -149.5t150.5 -61.5h17q88 0 150 61.5t62 149.5v170q0 88 -62 150.5t-150 62.5h-17q-88 0 -150.5 -62.5t-62.5 -150.5 v-170zM326 0l839 1442h99l-840 -1442h-98zM879 297v170q0 123 87 210t210 87h18q123 0 210 -87t87 -210v-170q0 -123 -87 -210t-210 -87h-18q-123 0 -210 87t-87 210zM965 297q0 -88 61 -150.5t150 -62.5h18q88 0 149.5 62.5t61.5 150.5v170q0 88 -61.5 149.5t-149.5 61.5 h-18q-88 0 -149.5 -61.5t-61.5 -149.5v-170z" />
<glyph unicode="&#x26;" horiz-adv-x="1312" d="M123 381q0 106 53 195.5t143 138.5l-18 12q-178 135 -178 334q0 158 111.5 269.5t269.5 111.5t270.5 -111.5t112.5 -269.5q0 -156 -100.5 -258.5t-274.5 -124.5l440 -330v373h86v-340q0 -43 -10 -90l387 -291h-141l-279 207q-47 -94 -138 -150.5t-200 -56.5h-153 q-158 0 -269.5 111.5t-111.5 269.5zM207 381q0 -123 87 -210t210 -87h153q88 0 162 48t109 128l-533 397q-82 -33 -135 -108.5t-53 -167.5zM207 1061q0 -80 32.5 -141.5t65.5 -89t109 -78.5q43 0 97 11t125 39.5t118 95.5t47 163q0 123 -87 210t-210 87t-210 -87t-87 -210z " />
<glyph unicode="'" horiz-adv-x="350" d="M133 989v453h84v-453h-84z" />
<glyph unicode="(" horiz-adv-x="741" d="M174 496v452q0 207 144.5 351.5t351.5 144.5v-86q-170 0 -291 -120t-121 -290v-452q0 -170 121 -291t291 -121v-84q-207 0 -351.5 145.5t-144.5 350.5z" />
<glyph unicode=")" horiz-adv-x="741" d="M72 0v84q170 0 290.5 121t120.5 291v452q0 170 -120.5 290t-290.5 120v86q207 0 351 -144.5t144 -351.5v-452q0 -205 -144 -350.5t-351 -145.5z" />
<glyph unicode="*" horiz-adv-x="598" d="M31 1174l26 79l199 -63v209h86v-209l199 63l26 -79l-198 -66l123 -170l-70 -49l-123 170l-123 -170l-70 49l125 170z" />
<glyph unicode="+" horiz-adv-x="1214" d="M113 453v84h452v452h84v-452h453v-84h-453v-453h-84v453h-452z" />
<glyph unicode="," horiz-adv-x="350" d="M133 0v227h84v-266q0 -117 -84 -188v61q43 53 43 166h-43z" />
<glyph unicode="-" horiz-adv-x="718" d="M113 453v84h493v-84h-493z" />
<glyph unicode="." horiz-adv-x="350" d="M133 0v225h84v-225h-84z" />
<glyph unicode="/" horiz-adv-x="630" d="M31 0l479 1442h90l-479 -1442h-90z" />
<glyph unicode="0" d="M123 438v566q0 180 129 309t309 129t309 -129t129 -309v-566q0 -180 -129 -309t-309 -129t-309 129t-129 309zM207 438q0 -145 104.5 -249.5t250 -104.5t248.5 104.5t103 249.5v566q0 145 -103 248.5t-248.5 103.5t-250 -103.5t-104.5 -248.5v-566z" />
<glyph unicode="1" d="M174 0v86h395v1270h-395v86h481v-1356h396v-86h-877z" />
<glyph unicode="2" d="M141 0v84l736 803q55 61 55 174q0 123 -86 210t-209 87h-115q-96 0 -173 -55.5t-105 -143.5l-80 27q39 113 137 184.5t221 71.5h115q158 0 269.5 -112.5t111.5 -268.5q0 -145 -72 -223l-688 -754h760v-84h-877z" />
<glyph unicode="3" d="M139 254l80 29q31 -88 107.5 -143.5t173.5 -55.5h112q123 0 210 87t87 210t-87 210t-210 87h-112v86h112q123 0 210 87t87 210t-87 210t-210 87h-112q-96 0 -173 -55.5t-108 -143.5l-80 27q41 113 139.5 184.5t221.5 71.5h112q158 0 269.5 -111.5t111.5 -269.5 q0 -111 -56 -201t-151 -139q94 -49 150.5 -140.5t56.5 -199.5q0 -158 -111.5 -269.5t-269.5 -111.5h-112q-123 0 -221.5 70.5t-139.5 183.5z" />
<glyph unicode="4" d="M127 453v84l350 905h90l-350 -905h701v452h86v-989h-86v453h-791z" />
<glyph unicode="5" d="M160 678v764h876v-84h-792v-594h411q158 0 269.5 -112.5t111.5 -270.5t-111.5 -269.5t-269.5 -111.5h-114q-123 0 -221.5 70.5t-137.5 183.5l80 29q31 -88 107.5 -143.5t171.5 -55.5h114q123 0 209 87t86 210t-86 210t-209 87h-495z" />
<glyph unicode="6" d="M154 438v566q0 180 128 309t310 129q129 0 235.5 -69.5t161.5 -182.5l-78 -37q-43 92 -129 148.5t-190 56.5q-145 0 -249.5 -104.5t-104.5 -249.5v-193q61 82 154 130t200 48q182 0 310 -128t128 -310v-113q0 -180 -128 -309t-310 -129t-310 129t-128 309zM238 438 q0 -145 104 -249.5t249.5 -104.5t249 104.5t103.5 249.5v113q0 145 -103.5 249.5t-249 104.5t-249.5 -104.5t-104 -249.5v-113z" />
<glyph unicode="7" d="M123 1358v84h876v-84l-528 -1358h-92l528 1358h-784z" />
<glyph unicode="8" d="M143 381q0 109 56.5 200t150.5 140q-94 49 -150.5 139t-56.5 199q0 158 112 270.5t269 112.5h115q158 0 269.5 -112.5t111.5 -270.5q0 -109 -56.5 -199t-150.5 -139q94 -49 150.5 -140.5t56.5 -199.5q0 -158 -111.5 -269.5t-269.5 -111.5h-115q-158 0 -269.5 111.5 t-111.5 269.5zM227 381q0 -123 87 -210t210 -87h115q123 0 209 87t86 210t-86 210t-209 87h-115q-123 0 -210 -87t-87 -210zM227 1059q0 -123 87 -209t210 -86h115q123 0 209 86t86 209q0 125 -86 211t-209 86h-115q-123 0 -210 -86t-87 -211z" />
<glyph unicode="9" d="M123 891v113q0 180 129 309t309 129t309 -129t129 -309v-566q0 -180 -129 -309t-309 -129q-129 0 -235.5 68.5t-161.5 183.5l78 37q43 -92 129 -148.5t190 -56.5q145 0 248.5 104.5t103.5 249.5v193q-59 -82 -152 -130t-200 -48q-180 0 -309 128t-129 310zM207 891 q0 -147 104.5 -250.5t250 -103.5t248.5 103t103 251v113q0 145 -103 249.5t-248.5 104.5t-250 -104.5t-104.5 -249.5v-113z" />
<glyph unicode=":" horiz-adv-x="350" d="M133 0v225h84v-225h-84zM133 762v227h84v-227h-84z" />
<glyph unicode=";" horiz-adv-x="352" d="M133 0v227h84v-266q0 -117 -84 -188v61q43 53 43 166h-43zM133 430v227h86v-227h-86z" />
<glyph unicode="&#x3c;" horiz-adv-x="1177" d="M195 459v73l798 457v-98l-692 -395l692 -398v-98z" />
<glyph unicode="=" horiz-adv-x="1214" d="M113 221v86h989v-86h-989zM113 674v86h989v-86h-989z" />
<glyph unicode="&#x3e;" horiz-adv-x="1177" d="M195 0v98l692 398l-692 395v98l798 -457v-73z" />
<glyph unicode="?" horiz-adv-x="966" d="M20 1188q41 113 139.5 183.5t221.5 70.5h113q158 0 269 -111.5t111 -269.5t-111.5 -270.5t-268.5 -112.5h-15v-225h-86v311h101q123 0 210 87t87 210t-87.5 210t-209.5 87h-113q-96 0 -173 -55.5t-108 -143.5zM393 0v268h86v-268h-86z" />
<glyph unicode="@" horiz-adv-x="1255" d="M133 496v450q0 205 144.5 350.5t351.5 145.5q205 0 349 -145.5t144 -350.5v-338q0 -63 -45 -109t-110 -46q-98 0 -140 88q-78 -88 -198 -88q-113 0 -192 78.5t-79 189t79 189.5t192 79q106 0 182 -71v71h86v-381q0 -29 20.5 -50t49 -21t50 21.5t21.5 49.5v338 q0 170 -119.5 291t-289.5 121t-291 -121t-121 -291v-450q0 -170 121 -291t291 -121q113 0 207 56.5t149 152.5l74 -41q-66 -115 -180.5 -183.5t-249.5 -68.5q-207 0 -351.5 145.5t-144.5 350.5zM444 721q0 -78 54.5 -131t130.5 -53t129 54t53 130t-53 130t-129 54 t-130.5 -53t-54.5 -131z" />
<glyph unicode="A" horiz-adv-x="1101" d="M31 0l481 1442h80l479 -1442h-88l-123 369h-616l-123 -369h-90zM270 453h561l-280 841z" />
<glyph unicode="B" horiz-adv-x="1275" d="M174 0v1442h619q154 0 262 -111.5t108 -269.5q0 -109 -55 -200t-145 -140q90 -49 145 -140.5t55 -199.5q0 -158 -108.5 -269.5t-261.5 -111.5h-619zM258 84h535q117 0 201.5 87t84.5 210t-85 210t-201 87h-535v-594zM258 764h535q117 0 201.5 87t84.5 210t-85 210 t-201 87h-535v-594z" />
<glyph unicode="C" horiz-adv-x="1159" d="M133 496v450q0 205 144.5 350.5t351.5 145.5q135 0 248.5 -67.5t179.5 -180.5l-74 -43q-55 94 -149.5 150.5t-204.5 56.5q-170 0 -291 -121t-121 -291v-450q0 -170 121 -291t291 -121q111 0 205 56.5t149 150.5l74 -43q-66 -113 -179.5 -180.5t-248.5 -67.5 q-207 0 -351.5 145.5t-144.5 350.5z" />
<glyph unicode="D" horiz-adv-x="1296" d="M174 0v1442h496q205 0 349 -144.5t144 -349.5v-452q0 -205 -144.5 -350.5t-348.5 -145.5h-496zM258 86h412q170 0 289.5 120t119.5 290v452q0 170 -119.5 290t-289.5 120h-412v-1272z" />
<glyph unicode="E" horiz-adv-x="1306" d="M174 0v1442h989v-86h-905v-592h905v-86h-905v-594h905v-84h-989z" />
<glyph unicode="F" horiz-adv-x="1275" d="M174 0v1442h989v-84h-905v-594h905v-86h-905v-678h-84z" />
<glyph unicode="G" horiz-adv-x="1265" d="M133 496v452q0 205 145.5 349.5t350.5 144.5q135 0 248.5 -67.5t179.5 -180.5l-74 -43q-55 94 -149.5 150.5t-204.5 56.5q-170 0 -291 -120t-121 -290v-452q0 -170 121 -290t291 -120t289.5 120t119.5 288v184h-409v86h493v-764h-84v217q-70 -100 -177 -158.5t-232 -58.5 q-207 0 -351.5 145.5t-144.5 350.5z" />
<glyph unicode="H" horiz-adv-x="1337" d="M174 0v1442h84v-678h821v678h84v-1442h-84v678h-821v-678h-84z" />
<glyph unicode="I" horiz-adv-x="432" d="M174 0v1442h84v-1442h-84z" />
<glyph unicode="J" horiz-adv-x="724" d="M31 0v86h102q145 0 248.5 103.5t103.5 248.5v1004h86v-1004q0 -180 -128 -309t-310 -129h-102z" />
<glyph unicode="K" horiz-adv-x="1239" d="M174 0v1442h84v-830l825 830h121l-569 -574l569 -868h-102l-529 807l-315 -315v-492h-84z" />
<glyph unicode="L" horiz-adv-x="1193" d="M174 0v1442h84v-1356h905v-86h-989z" />
<glyph unicode="M" horiz-adv-x="1636" d="M174 0v1442h90l553 -1301l555 1301h90v-1442h-86v1227l-520 -1227h-78l-520 1227v-1227h-84z" />
<glyph unicode="N" horiz-adv-x="1337" d="M174 0v1442h90l815 -1299v1299h84v-1442h-90l-815 1300v-1300h-84z" />
<glyph unicode="O" horiz-adv-x="1255" d="M133 496v452q0 205 145.5 349.5t350.5 144.5t349 -144.5t144 -349.5v-452q0 -205 -144 -350.5t-349 -145.5q-207 0 -351.5 145.5t-144.5 350.5zM217 496q0 -170 121 -290t291 -120t289.5 120t119.5 290v452q0 170 -119.5 290t-289.5 120t-291 -120t-121 -290v-452z" />
<glyph unicode="P" horiz-adv-x="1224" d="M174 0v1442h619q156 0 263 -112.5t107 -268.5q0 -158 -107.5 -270.5t-262.5 -112.5h-535v-678h-84zM258 764h535q121 0 203.5 88t82.5 209t-83 209t-203 88h-535v-594z" />
<glyph unicode="Q" horiz-adv-x="1269" d="M133 496v452q0 205 145.5 349.5t350.5 144.5t349 -144.5t144 -349.5v-452q0 -184 -116 -320l118 -117l-61 -59l-117 117q-139 -117 -317 -117q-207 0 -351.5 145.5t-144.5 350.5zM217 496q0 -170 121 -290t291 -120t289.5 120t119.5 290v452q0 170 -119.5 290t-289.5 120 t-291 -120t-121 -290v-452z" />
<glyph unicode="R" horiz-adv-x="1282" d="M174 0v1442h619q154 0 262 -111.5t108 -269.5q0 -133 -79.5 -237.5t-202.5 -133.5l309 -690h-94l-303 678h-535v-678h-84zM258 764h535q117 0 201.5 87t84.5 210t-85 210t-201 87h-535v-594z" />
<glyph unicode="S" horiz-adv-x="1171" d="M92 1061q0 158 108.5 269.5t262.5 111.5h248q119 0 215 -71t135 -183l-80 -29q-31 88 -104.5 143.5t-165.5 55.5h-248q-117 0 -202 -87t-85 -210q0 -47 12.5 -85t26.5 -63.5t48 -48t55.5 -35t71.5 -25.5t71.5 -17.5t81 -13.5t78.5 -13q100 -18 166.5 -38t142.5 -60.5 t113.5 -111.5t37.5 -169q0 -158 -108.5 -269.5t-261.5 -111.5h-248q-119 0 -215 71.5t-135 184.5l80 27q31 -88 104.5 -143.5t165.5 -55.5h248q117 0 201.5 87t84.5 210q0 43 -7 78t-29.5 62.5t-39 47t-57.5 36t-60.5 25.5t-74.5 20.5t-73.5 15.5t-82.5 14 q-68 10 -102.5 17.5t-94 22.5t-92 31.5t-75.5 45t-64.5 63.5t-37 86.5t-15.5 114.5z" />
<glyph unicode="T" horiz-adv-x="1050" d="M31 1358v84h989v-84h-453v-1358h-84v1358h-452z" />
<glyph unicode="U" horiz-adv-x="1296" d="M154 496v946h84v-946q0 -170 120.5 -290t290.5 -120t290 120t120 290v946h84v-946q0 -205 -144.5 -350.5t-349.5 -145.5q-207 0 -351 145.5t-144 350.5z" />
<glyph unicode="V" horiz-adv-x="1046" d="M0 1442h90l432 -1307l434 1307h91l-480 -1442h-88z" />
<glyph unicode="W" horiz-adv-x="1411" d="M20 1442h86l279 -1247l277 1247h88l276 -1247l277 1247h88l-322 -1442h-86l-278 1247l-277 -1247h-86z" />
<glyph unicode="X" horiz-adv-x="1085" d="M10 0l482 721l-482 721h103l430 -645l430 645h102l-481 -721l481 -721h-102l-430 645l-430 -645h-103z" />
<glyph unicode="Y" horiz-adv-x="1085" d="M10 1442h103l430 -645l430 645h102l-489 -735v-707h-86v707z" />
<glyph unicode="Z" horiz-adv-x="1173" d="M92 0v84l885 1274h-885v84h989v-84l-884 -1274h884v-84h-989z" />
<glyph unicode="[" horiz-adv-x="589" d="M174 0v1442h344v-86h-260v-1272h260v-84h-344z" />
<glyph unicode="\" horiz-adv-x="630" d="M31 1442h90l479 -1442h-90z" />
<glyph unicode="]" horiz-adv-x="589" d="M72 0v84h258v1272h-258v86h344v-1442h-344z" />
<glyph unicode="^" horiz-adv-x="1056" d="M39 649l453 793h73l453 -793l-74 -41l-416 727l-415 -727z" />
<glyph unicode="_" horiz-adv-x="1214" d="M113 0v84h989v-84h-989z" />
<glyph unicode="`" horiz-adv-x="622" d="M92 1362l43 74l395 -226l-41 -73z" />
<glyph unicode="a" horiz-adv-x="1122" d="M102 268.5q0 110.5 79 189.5t190 79h340q184 0 184 127q0 115 -82 178t-215 63h-115q-96 0 -173 -55t-105 -143l-82 26q41 113 139 184.5t221 71.5h115q160 0 270.5 -84t110.5 -241v-664h-84v141q-117 -141 -297 -141h-227q-111 0 -190 79t-79 189.5zM186 268.5 q0 -75.5 54.5 -130t130.5 -54.5h227q123 0 210 87t87 210v117q-70 -45 -184 -45h-340q-76 0 -130.5 -54.5t-54.5 -130z" />
<glyph unicode="b" horiz-adv-x="1142" d="M164 0v1442h84v-631q61 82 154.5 130t199.5 48q180 0 309 -128t129 -310v-113q0 -180 -129 -309t-309 -129q-106 0 -199.5 48t-154.5 130v-178h-84zM248 438q0 -145 104.5 -249.5t250 -104.5t248.5 104.5t103 249.5v113q0 145 -103 249.5t-248.5 104.5t-250 -104.5 t-104.5 -249.5v-113z" />
<glyph unicode="c" horiz-adv-x="1017" d="M102 438v113q0 182 129 310t310 128q129 0 234.5 -68.5t160.5 -181.5l-76 -37q-43 90 -129 146.5t-190 56.5q-145 0 -250 -104.5t-105 -249.5v-113q0 -145 104.5 -249.5t250.5 -104.5q104 0 190 55.5t129 147.5l76 -37q-53 -113 -159.5 -181.5t-235.5 -68.5 q-180 0 -309.5 129t-129.5 309z" />
<glyph unicode="d" horiz-adv-x="1153" d="M102 438v113q0 182 129 310t310 128q106 0 199.5 -48t152.5 -130v631h86v-1442h-86v178q-59 -82 -152.5 -130t-199.5 -48q-180 0 -309.5 129t-129.5 309zM186 438q0 -145 104.5 -249.5t250 -104.5t249 104.5t103.5 249.5v113q0 145 -103.5 249.5t-249 104.5t-250 -104.5 t-104.5 -249.5v-113z" />
<glyph unicode="e" horiz-adv-x="1081" d="M102 438v113q0 182 129 310t309.5 128t309.5 -128t129 -310v-98h-793v-15q0 -145 104.5 -249.5t250.5 -104.5q104 0 190 56.5t129 146.5l76 -37q-53 -113 -159.5 -181.5t-235.5 -68.5q-180 0 -309.5 129t-129.5 309zM186 537h707v14q0 145 -103.5 249.5t-249 104.5 t-250 -104.5t-104.5 -249.5v-14z" />
<glyph unicode="f" horiz-adv-x="589" d="M10 905v84h223v185q0 111 79 189.5t190 78.5h37v-86h-37q-76 0 -130.5 -53.5t-54.5 -128.5v-185h222v-84h-222v-905h-84v905h-223z" />
<glyph unicode="g" horiz-adv-x="1142" d="M102 438v113q0 182 129 310t310 128q106 0 199.5 -48t152.5 -130v178h86v-1003q0 -182 -129 -310.5t-309 -128.5q-129 0 -235.5 70t-162.5 182l78 37q43 -92 129 -148.5t191 -56.5q145 0 248.5 104.5t103.5 250.5v192q-59 -82 -152.5 -130t-199.5 -48q-180 0 -309.5 129 t-129.5 309zM186 438q0 -145 104.5 -249.5t250 -104.5t249 104.5t103.5 249.5v113q0 145 -103.5 249.5t-249 104.5t-250 -104.5t-104.5 -249.5v-113z" />
<glyph unicode="h" horiz-adv-x="1173" d="M164 0v1442h84v-631q61 82 154.5 130t199.5 48q180 0 309 -128t129 -310v-551h-86v551q0 145 -103 249.5t-248.5 104.5t-250 -104.5t-104.5 -249.5v-551h-84z" />
<glyph unicode="i" horiz-adv-x="411" d="M164 0v989h84v-989h-84zM164 1174v268h84v-268h-84z" />
<glyph unicode="j" horiz-adv-x="475" d="M10 -369h31q76 0 130 54.5t54 130.5v1173h86v-1173q0 -111 -78.5 -190t-191.5 -79h-31v84zM225 1174v268h86v-268h-86z" />
<glyph unicode="k" horiz-adv-x="1124" d="M164 0v1442h84v-1051l696 598h129l-383 -332l383 -657h-98l-350 602l-377 -323v-279h-84z" />
<glyph unicode="l" horiz-adv-x="411" d="M164 0v1442h84v-1442h-84z" />
<glyph unicode="m" horiz-adv-x="1445" d="M164 0v989h84v-90q90 90 213 90h18q78 0 145.5 -39t108.5 -104q86 143 254 143h19q123 0 210 -87t87 -210v-692h-86v692q0 88 -61.5 150.5t-149.5 62.5h-19q-88 0 -150.5 -62.5t-62.5 -150.5v-692h-84v692q0 88 -61.5 150.5t-149.5 62.5h-18q-88 0 -150.5 -62.5 t-62.5 -150.5v-692h-84z" />
<glyph unicode="n" horiz-adv-x="1173" d="M164 0v989h84v-178q61 82 154.5 130t199.5 48q180 0 309 -128t129 -310v-551h-86v551q0 145 -103 249.5t-248.5 104.5t-250 -104.5t-104.5 -249.5v-551h-84z" />
<glyph unicode="o" horiz-adv-x="1081" d="M102 438v113q0 182 129 310t309.5 128t309.5 -128t129 -310v-113q0 -180 -129 -309t-309.5 -129t-309.5 129t-129 309zM186 438q0 -145 104.5 -249.5t250 -104.5t249 104.5t103.5 249.5v113q0 145 -103.5 249.5t-249 104.5t-250 -104.5t-104.5 -249.5v-113z" />
<glyph unicode="p" horiz-adv-x="1142" d="M164 -453v1442h84v-178q61 82 154.5 130t199.5 48q180 0 309 -128t129 -310v-113q0 -180 -129 -309t-309 -129q-106 0 -199.5 48t-154.5 130v-631h-84zM248 438q0 -145 104.5 -249.5t250 -104.5t248.5 104.5t103 249.5v113q0 145 -103 249.5t-248.5 104.5t-250 -104.5 t-104.5 -249.5v-113z" />
<glyph unicode="q" horiz-adv-x="1142" d="M102 438v113q0 182 129 310t310 128q106 0 199.5 -48t152.5 -130v178h86v-1442h-86v631q-59 -82 -152.5 -130t-199.5 -48q-180 0 -309.5 129t-129.5 309zM186 438q0 -145 104.5 -249.5t250 -104.5t249 104.5t103.5 249.5v113q0 145 -103.5 249.5t-249 104.5t-250 -104.5 t-104.5 -249.5v-113z" />
<glyph unicode="r" horiz-adv-x="643" d="M164 0v989h84v-178q61 82 154.5 130t199.5 48v-84q-145 0 -249.5 -104.5t-104.5 -249.5v-551h-84z" />
<glyph unicode="s" horiz-adv-x="1060" d="M92 721q0 113 79 190.5t189 77.5h240q123 0 221.5 -70.5t139.5 -183.5l-82 -28q-29 88 -106 143t-173 55h-240q-76 0 -130 -54t-54 -130q0 -37 13.5 -65.5t44 -47t55 -31t71 -20.5t66.5 -11t68 -7l100 -11q59 -6 102 -13t98.5 -25.5t90.5 -44t59.5 -70.5t24.5 -105 q0 -113 -79 -191.5t-190 -78.5h-239q-123 0 -221.5 71.5t-139.5 184.5l82 27q29 -88 106 -143.5t173 -55.5h239q76 0 130.5 55.5t54.5 130.5q0 49 -27 83t-75 52.5t-89 26.5t-98 14l-125 13q-59 6 -102 13t-99.5 25.5t-92.5 45t-60.5 73t-24.5 105.5z" />
<glyph unicode="t" horiz-adv-x="587" d="M-10 905v84h223v453h84v-453h219v-84h-219v-637q0 -76 54.5 -130t129.5 -54h35v-84h-35q-111 0 -189.5 79t-78.5 189v637h-223z" />
<glyph unicode="u" horiz-adv-x="1173" d="M133 438v551h84v-551q0 -145 104.5 -249.5t250 -104.5t249 104.5t103.5 249.5v551h86v-989h-86v178q-59 -82 -152.5 -130t-200.5 -48q-182 0 -310 129t-128 309z" />
<glyph unicode="v" horiz-adv-x="958" d="M0 989h92l387 -883l387 883h92l-434 -989h-92z" />
<glyph unicode="w" horiz-adv-x="1302" d="M31 989h88l243 -837l246 837h88l244 -837l244 837h88l-287 -989h-90l-244 838l-243 -838h-89z" />
<glyph unicode="x" horiz-adv-x="937" d="M-10 0l424 496l-424 493h110l369 -430l367 430h112l-424 -493l424 -496h-112l-367 430l-369 -430h-110z" />
<glyph unicode="y" horiz-adv-x="1019" d="M31 989h92l387 -883l387 883h92l-631 -1442h-92l197 453z" />
<glyph unicode="z" horiz-adv-x="999" d="M61 0v82l760 823h-760v84h877v-82l-760 -823h760v-84h-877z" />
<glyph unicode="{" horiz-adv-x="720" d="M82 678v84q78 0 131 53t53 131v225q0 113 78 191t191 78h114v-84h-114q-76 0 -130.5 -53.5t-54.5 -131.5v-225q0 -145 -123 -227q123 -78 123 -225v-226q0 -76 54.5 -130t130.5 -54h114v-84h-114q-113 0 -191 79t-78 189v226q0 76 -53 130t-131 54z" />
<glyph unicode="|" horiz-adv-x="432" d="M174 0v1442h84v-1442h-84z" />
<glyph unicode="}" horiz-adv-x="720" d="M72 0v86h114q76 0 130.5 53.5t54.5 130.5v226q0 147 123 225q-123 82 -123 227v226q0 76 -54.5 130t-130.5 54h-114v84h114q113 0 191 -78t78 -190v-226q0 -76 54 -130t130 -54v-84q-76 0 -130 -54.5t-54 -129.5v-226q0 -113 -78 -191.5t-191 -78.5h-114z" />
<glyph unicode="~" horiz-adv-x="985" d="M113 494l30 30q80 80 166 80q68 0 185.5 -67.5t173.5 -67.5q57 0 114 55l31 29l59 -59q-111 -111 -208 -111q-66 0 -172.5 65.5t-161.5 65.5q-78 0 -158 -80z" />
<glyph unicode="&#xa1;" horiz-adv-x="432" d="M174 0v989h84v-989h-84zM174 1217v225h84v-225h-84z" />
<glyph unicode="&#xa2;" horiz-adv-x="1161" d="M164 438v113q0 170 114.5 295t282.5 141v227h84v-227q115 -10 209 -77.5t143 -170.5l-75 -37q-43 90 -129 146.5t-191 56.5q-145 0 -249.5 -104.5t-104.5 -249.5v-113q0 -145 104.5 -249.5t249.5 -104.5q104 0 190.5 56.5t129.5 146.5l75 -37q-49 -102 -143 -170 t-209 -78v-229h-84v229q-168 16 -282.5 141t-114.5 295z" />
<glyph unicode="&#xa3;" horiz-adv-x="1349" d="M31 678v86h299v182q0 205 144 350.5t351 145.5q135 0 249 -67.5t179 -180.5l-73 -43q-55 94 -149.5 150.5t-205.5 56.5q-170 0 -290.5 -121t-120.5 -291v-182h604v-86h-604v-594h821v184h84v-268h-989v678h-299z" />
<glyph unicode="&#xa4;" horiz-adv-x="1116" d="M102 39l113 127q-94 121 -94 272v113q0 152 94 272l-113 127l64 58l108 -123q121 104 283 104q164 0 285 -104l108 123l64 -58l-113 -127q94 -121 94 -272v-113q0 -152 -94 -272l113 -127l-64 -57l-108 122q-121 -104 -285 -104q-160 0 -285 104l-106 -122zM205 438 q0 -145 103.5 -249.5t248.5 -104.5q147 0 250.5 104.5t103.5 249.5v113q0 145 -103 249.5t-251 104.5q-145 0 -248.5 -104.5t-103.5 -249.5v-113z" />
<glyph unicode="&#xa5;" horiz-adv-x="1126" d="M31 1442h102l430 -645l430 645h103l-303 -453h260v-84h-316l-131 -198v-170h451v-84h-451v-453h-86v453h-452v84h452v170l-131 198h-321v84h264z" />
<glyph unicode="&#xa6;" horiz-adv-x="432" d="M174 0v537h84v-537h-84zM174 905v537h84v-537h-84z" />
<glyph unicode="&#xa7;" horiz-adv-x="1099" d="M129 1174q0 111 79 189.5t189 78.5h246q123 0 221.5 -72t139.5 -184l-80 -27q-31 88 -108 143.5t-173 55.5h-246q-76 0 -130 -54.5t-54 -129.5q0 -63 62.5 -107.5t160.5 -56.5l336 -47q100 -14 166 -90t66 -177q0 -154 -134 -231q135 -70 136 -197q0 -111 -79 -189.5 t-190 -78.5h-245q-123 0 -221.5 71.5t-139.5 184.5l80 27q31 -88 107.5 -143.5t173.5 -55.5h245q76 0 130.5 54.5t54.5 129.5q0 63 -61.5 104.5t-162.5 55.5l-336 51q-100 14 -165.5 90t-65.5 176q0 72 36 133.5t97 98.5q-135 70 -135 197zM215 743q0 -68 45 -120t115 -60 l336 -49q8 -2 26 -2q68 0 120 46t61 114q0 4 1 12t1 14q0 66 -45.5 118t-114.5 63l-336 47q-4 0 -13.5 1t-13.5 1q-74 0 -128 -53.5t-54 -131.5z" />
<glyph unicode="&#xa8;" horiz-adv-x="610" d="M133 1169v226h84v-226h-84zM393 1169v226h84v-226h-84z" />
<glyph unicode="&#xa9;" horiz-adv-x="1669" d="M113 723q0 297 212 509t509 212q299 0 510.5 -211t211.5 -510t-211.5 -511t-510.5 -212t-510 212t-211 511zM197 723q0 -264 187 -450.5t450 -186.5q264 0 451.5 186.5t187.5 450.5q0 262 -187.5 449.5t-451.5 187.5q-262 0 -449.5 -187.5t-187.5 -449.5zM492 573v299 q0 141 100 240.5t242 99.5q94 0 172.5 -46t123.5 -124l-73 -43q-35 59 -94.5 94t-128.5 35q-106 0 -181 -74.5t-75 -181.5v-299q0 -106 74.5 -182t181.5 -76q70 0 129 36t94 93l71 -43q-43 -78 -121.5 -124t-172.5 -46q-141 0 -241.5 100.5t-100.5 241.5z" />
<glyph unicode="&#xaa;" horiz-adv-x="626" d="M92 1114q0 51 36 87t87 36h156q84 0 84 57q0 53 -37 82t-99 29h-51q-43 0 -78.5 -25.5t-50.5 -64.5l-37 12q16 51 62.5 84t103.5 33h51q74 0 124.5 -38t50.5 -112v-305h-39v66q-51 -66 -136 -66h-104q-51 0 -87 37t-36 88zM131 1114q0 -35 24.5 -60.5t59.5 -25.5h104 q57 0 96.5 40t39.5 97v54q-29 -20 -84 -21h-156q-35 0 -59.5 -24.5t-24.5 -59.5z" />
<glyph unicode="&#xab;" horiz-adv-x="1054" d="M82 467v55l405 467h113l-430 -493l430 -496h-113zM475 467v55l406 467h112l-430 -493l430 -496h-112z" />
<glyph unicode="&#xac;" horiz-adv-x="1128" d="M51 453v84h985v-537h-84v453h-901z" />
<glyph unicode="&#xad;" horiz-adv-x="718" d="M113 453v84h493v-84h-493z" />
<glyph unicode="&#xae;" horiz-adv-x="1669" d="M113 723q0 297 212 509t509 212q299 0 510.5 -211t211.5 -510t-211.5 -511t-510.5 -212t-510 212t-211 511zM197 723q0 -264 187 -450.5t450 -186.5q264 0 451.5 186.5t187.5 450.5q0 262 -187.5 449.5t-451.5 187.5q-262 0 -449.5 -187.5t-187.5 -449.5zM492 1212h423 q109 0 185 -77.5t76 -188.5q0 -88 -51.5 -157.5t-131.5 -96.5l187 -418h-97l-178 406h-327v-406h-84zM578 766h337q72 0 124.5 52t52.5 128t-52.5 129t-124.5 53h-337v-362z" />
<glyph unicode="&#xaf;" horiz-adv-x="718" d="M113 1356v84h493v-84h-493z" />
<glyph unicode="&#xb0;" horiz-adv-x="794" d="M92 975v170q0 123 87 210t210 87h17q123 0 209.5 -87t86.5 -210v-170q0 -123 -87 -210t-209 -87h-17q-123 0 -210 87t-87 210zM176 975q0 -88 62.5 -149.5t150.5 -61.5h17q88 0 150 61.5t62 149.5v170q0 88 -62 150.5t-150 62.5h-17q-88 0 -150.5 -62.5t-62.5 -150.5 v-170z" />
<glyph unicode="&#xb1;" horiz-adv-x="1112" d="M61 0v84h990v-84h-990zM61 905v84h453v453h84v-453h453v-84h-453v-452h-84v452h-453z" />
<glyph unicode="&#xb2;" horiz-adv-x="684" d="M113 721v43l368 401q27 29 27 86q0 61 -43 104.5t-105 43.5h-57q-47 0 -85 -28t-54 -71l-41 15q20 55 69.5 91t110.5 36h57q78 0 134.5 -56.5t56.5 -134.5q0 -74 -37 -112l-344 -375h381v-43h-438z" />
<glyph unicode="&#xb3;" horiz-adv-x="653" d="M102 844l41 14q16 -43 53 -70.5t87 -27.5h55q63 0 106 43t43 104.5t-43 105.5t-104 44h-57v43h55q63 0 106 43t43 104.5t-43 104.5t-104 43h-57q-49 0 -87 -28t-53 -71l-41 15q20 55 69.5 91t111.5 36h55q80 0 136 -56.5t56 -134.5q0 -115 -104 -170q104 -53 104 -170 q0 -78 -56 -134t-134 -56h-57q-61 0 -111 36t-70 91z" />
<glyph unicode="&#xb4;" horiz-adv-x="456" d="M92 1247l230 135l43 -71l-230 -135z" />
<glyph unicode="&#xb5;" horiz-adv-x="1204" d="M164 -453v1442h84v-551q0 -145 104.5 -249.5t250 -104.5t248.5 104.5t103 249.5v551h86v-989h-86v178q-59 -82 -152 -130t-199.5 -48t-200 48t-154.5 130v-631h-84z" />
<glyph unicode="&#x3bc;" horiz-adv-x="1204" d="M164 -453v1442h84v-551q0 -145 104.5 -249.5t250 -104.5t248.5 104.5t103 249.5v551h86v-989h-86v178q-59 -82 -152 -130t-199.5 -48t-200 48t-154.5 130v-631h-84z" />
<glyph unicode="&#xb6;" horiz-adv-x="1204" d="M41 1061q0 158 108.5 269.5t262.5 111.5h618v-1442h-84v678h-368v-678h-84v678h-82q-154 0 -262.5 112.5t-108.5 270.5zM578 764h368v594h-368v-594z" />
<glyph unicode="&#xb7;" horiz-adv-x="350" d="M133 608v228h84v-228h-84z" />
<glyph unicode="&#xb8;" horiz-adv-x="348" d="M51 -150h27q0 -39 28.5 -66.5t67.5 -27.5t66.5 28t27.5 66.5t-27.5 67.5t-66.5 29h-14v84h26v-58q47 -6 79 -40.5t32 -82.5q0 -51 -36 -86.5t-87 -35.5t-87 35.5t-36 86.5z" />
<glyph unicode="&#xb9;" horiz-adv-x="485" d="M72 1399v43h239v-721h-41v678h-198z" />
<glyph unicode="&#xba;" horiz-adv-x="606" d="M102 1190v53q0 84 59.5 142.5t141.5 58.5t141.5 -58.5t59.5 -142.5v-53q0 -84 -59.5 -142.5t-141.5 -58.5t-141.5 58.5t-59.5 142.5zM141 1190q0 -68 47.5 -115t115 -47t114.5 47t47 115v53q0 66 -47 114t-114.5 48t-115 -48t-47.5 -114v-53z" />
<glyph unicode="&#xbb;" horiz-adv-x="1054" d="M61 0l431 496l-431 493h113l406 -467v-55l-406 -467h-113zM455 0l430 496l-430 493h112l406 -467v-55l-406 -467h-112z" />
<glyph unicode="&#xbc;" horiz-adv-x="1171" d="M72 1399v43h239v-721h-41v678h-198zM111 4l835 1434h33l-836 -1434h-32zM580 225v43l176 453h45l-174 -453h350v228h41v-496h-41v225h-397z" />
<glyph unicode="&#xbd;" horiz-adv-x="1140" d="M72 1399v43h239v-721h-41v678h-198zM111 4l835 1434h33l-836 -1434h-32zM580 0v41l368 401q29 31 29 88q0 61 -44 104.5t-106 43.5h-55q-49 0 -87 -27.5t-54 -70.5l-39 14q18 55 68.5 91t111.5 36h55q80 0 135.5 -56.5t55.5 -134.5q0 -76 -35 -112l-344 -377h379v-41 h-438z" />
<glyph unicode="&#xbe;" horiz-adv-x="1177" d="M113 844l41 14q16 -43 53 -70.5t86 -27.5h55q63 0 106.5 43t43.5 104.5t-43 105.5t-105 44h-57v43h55q63 0 106.5 43t43.5 104.5t-43 104.5t-105 43h-57q-49 0 -87 -28t-52 -71l-41 15q20 55 69 91t111 36h55q80 0 136.5 -56.5t56.5 -134.5q0 -115 -105 -170 q104 -53 105 -170q0 -78 -56.5 -134t-134.5 -56h-57q-61 0 -110.5 36t-69.5 91zM152 4l835 1434h33l-836 -1434h-32zM621 225v43l174 453h45l-174 -453h350v228h43v-496h-43v225h-395z" />
<glyph unicode="&#xbf;" horiz-adv-x="966" d="M92 381q0 158 111.5 270.5t269.5 112.5h16v225h84v-311h-100q-123 0 -210 -87t-87 -210t87 -210t210 -87h115q94 0 171 55.5t107 143.5l80 -29q-39 -113 -137 -183.5t-221 -70.5h-115q-158 0 -269.5 111.5t-111.5 269.5zM489 1174v268h84v-268h-84z" />
<glyph unicode="&#xc0;" horiz-adv-x="1101" d="M31 0l481 1442h80l479 -1442h-88l-123 369h-616l-123 -369h-90zM270 453h561l-280 841zM408 1706l43 72l229 -136l-43 -71z" />
<glyph unicode="&#xc1;" horiz-adv-x="1101" d="M31 0l481 1442h80l479 -1442h-88l-123 369h-616l-123 -369h-90zM270 453h561l-280 841zM408 1642l229 136l43 -72l-229 -135z" />
<glyph unicode="&#xc2;" horiz-adv-x="1101" d="M31 0l481 1442h80l479 -1442h-88l-123 369h-616l-123 -369h-90zM270 453h561l-280 841zM311 1642l230 136h16l229 -136l-43 -71l-194 115l-195 -115z" />
<glyph unicode="&#xc3;" horiz-adv-x="1101" d="M31 0l481 1442h80l479 -1442h-88l-123 369h-616l-123 -369h-90zM221 1569v43q0 80 56.5 136t136.5 56q63 0 109 -37.5t83 -74.5t80 -37q45 0 76 30.5t31 75.5v43h86v-43q0 -80 -56.5 -136t-136.5 -56q-51 0 -91 23.5t-62.5 51t-53 51t-65.5 23.5q-45 0 -76 -30.5 t-31 -75.5v-43h-86zM270 453h561l-280 841z" />
<glyph unicode="&#xc4;" horiz-adv-x="1101" d="M31 0l481 1442h80l479 -1442h-88l-123 369h-616l-123 -369h-90zM270 453h561l-280 841zM387 1567v268h84v-268h-84zM651 1567v268h84v-268h-84z" />
<glyph unicode="&#xc5;" horiz-adv-x="1101" d="M31 0l481 1442h80l479 -1442h-88l-123 369h-616l-123 -369h-90zM270 453h561l-280 841zM375 1741q0 72 51 124t125 52t125 -52.5t51 -123.5q0 -74 -51 -125t-125 -51t-125 51t-51 125zM459 1741q0 -39 26.5 -65.5t65.5 -26.5t65.5 26.5t26.5 65.5q0 37 -26.5 64.5 t-65.5 27.5t-65.5 -27.5t-26.5 -64.5z" />
<glyph unicode="&#xc6;" horiz-adv-x="2091" d="M0 0l958 1442h990v-84h-906v-594h906v-86h-906v-594h906v-84h-990v340h-630l-226 -340h-102zM383 424h575v864z" />
<glyph unicode="&#xc7;" horiz-adv-x="1159" d="M133 496v452q0 205 145.5 349.5t350.5 144.5q135 0 248.5 -67.5t179.5 -180.5l-74 -43q-55 94 -149.5 150.5t-204.5 56.5q-170 0 -291 -120t-121 -290v-452q0 -170 121 -290t291 -120q113 0 206 55.5t148 149.5l74 -43q-63 -109 -174 -176.5t-242 -71.5v-27 q47 -6 79 -40.5t32 -82.5q0 -51 -36 -86.5t-87 -35.5t-87 35.5t-36 86.5h26q0 -39 29 -66.5t68 -27.5t66.5 28t27.5 66.5t-27.5 67.5t-66.5 29h-15v53q-201 6 -341 150.5t-140 345.5z" />
<glyph unicode="&#xc8;" horiz-adv-x="1306" d="M174 0v1442h989v-84h-905v-594h905v-86h-905v-592h905v-86h-989zM530 1706l43 72l230 -136l-43 -71z" />
<glyph unicode="&#xc9;" horiz-adv-x="1306" d="M174 0v1442h989v-84h-905v-594h905v-86h-905v-592h905v-86h-989zM530 1642l230 136l43 -72l-230 -135z" />
<glyph unicode="&#xca;" horiz-adv-x="1306" d="M174 0v1442h989v-84h-905v-594h905v-86h-905v-592h905v-86h-989zM434 1642l230 136h16l229 -136l-43 -71l-194 115l-195 -115z" />
<glyph unicode="&#xcb;" horiz-adv-x="1306" d="M174 0v1442h989v-84h-905v-594h905v-86h-905v-592h905v-86h-989zM489 1567v268h84v-268h-84zM754 1567v268h84v-268h-84z" />
<glyph unicode="&#xcc;" horiz-adv-x="432" d="M80 1706l43 72l229 -136l-43 -71zM174 0v1442h84v-1442h-84z" />
<glyph unicode="&#xcd;" horiz-adv-x="432" d="M80 1642l229 136l43 -72l-229 -135zM174 0v1442h84v-1442h-84z" />
<glyph unicode="&#xce;" horiz-adv-x="432" d="M-20 1642l229 136h16l230 -136l-43 -71l-195 115l-194 -115zM174 0v1442h84v-1442h-84z" />
<glyph unicode="&#xcf;" horiz-adv-x="432" d="M41 1567v268h84v-268h-84zM174 0v1442h84v-1442h-84zM305 1567v268h84v-268h-84z" />
<glyph unicode="&#xd0;" horiz-adv-x="1433" d="M10 678v86h301v678h496q205 0 349 -145.5t144 -350.5v-450q0 -205 -144 -350.5t-349 -145.5h-496v678h-301zM395 84h412q170 0 290 121t120 291v450q0 170 -120 291t-290 121h-412v-594h303v-86h-303v-594z" />
<glyph unicode="&#xd1;" horiz-adv-x="1337" d="M174 0v1442h90l815 -1299v1299h84v-1442h-90l-815 1300v-1300h-84zM346 1569v43q0 80 56.5 136t136.5 56q63 0 109 -37.5t83 -74.5t80 -37q45 0 76 30.5t31 75.5v43h86v-43q0 -80 -56.5 -136t-136.5 -56q-51 0 -91 23.5t-62.5 51t-53.5 51t-65 23.5q-45 0 -76 -30.5 t-31 -75.5v-43h-86z" />
<glyph unicode="&#xd2;" horiz-adv-x="1255" d="M133 496v452q0 205 145.5 349.5t350.5 144.5t349 -144.5t144 -349.5v-452q0 -205 -144 -350.5t-349 -145.5q-207 0 -351.5 145.5t-144.5 350.5zM217 496q0 -170 121 -290t291 -120t289.5 120t119.5 290v452q0 170 -119.5 290t-289.5 120t-291 -120t-121 -290v-452z M489 1706l43 72l230 -136l-43 -71z" />
<glyph unicode="&#xd3;" horiz-adv-x="1255" d="M133 496v452q0 205 145.5 349.5t350.5 144.5t349 -144.5t144 -349.5v-452q0 -205 -144 -350.5t-349 -145.5q-207 0 -351.5 145.5t-144.5 350.5zM217 496q0 -170 121 -290t291 -120t289.5 120t119.5 290v452q0 170 -119.5 290t-289.5 120t-291 -120t-121 -290v-452z M489 1642l230 136l43 -72l-230 -135z" />
<glyph unicode="&#xd4;" horiz-adv-x="1255" d="M133 496v452q0 205 145.5 349.5t350.5 144.5t349 -144.5t144 -349.5v-452q0 -205 -144 -350.5t-349 -145.5q-207 0 -351.5 145.5t-144.5 350.5zM217 496q0 -170 121 -290t291 -120t289.5 120t119.5 290v452q0 170 -119.5 290t-289.5 120t-291 -120t-121 -290v-452z M393 1642l230 136h16l229 -136l-43 -71l-194 115l-195 -115z" />
<glyph unicode="&#xd5;" horiz-adv-x="1255" d="M133 496v452q0 205 145.5 349.5t350.5 144.5t349 -144.5t144 -349.5v-452q0 -205 -144 -350.5t-349 -145.5q-207 0 -351.5 145.5t-144.5 350.5zM217 496q0 -170 121 -290t291 -120t289.5 120t119.5 290v452q0 170 -119.5 290t-289.5 120t-291 -120t-121 -290v-452z M303 1569v43q0 80 56.5 136t136.5 56q63 0 109 -37.5t83 -74.5t80 -37q45 0 75.5 30.5t30.5 75.5v43h87v-43q0 -80 -56.5 -136t-136.5 -56q-51 0 -91 23.5t-62.5 51t-53.5 51t-65 23.5q-45 0 -76 -30.5t-31 -75.5v-43h-86z" />
<glyph unicode="&#xd6;" horiz-adv-x="1255" d="M133 496v452q0 205 145.5 349.5t350.5 144.5t349 -144.5t144 -349.5v-452q0 -205 -144 -350.5t-349 -145.5q-207 0 -351.5 145.5t-144.5 350.5zM217 496q0 -170 121 -290t291 -120t289.5 120t119.5 290v452q0 170 -119.5 290t-289.5 120t-291 -120t-121 -290v-452z M449 1567v268h83v-268h-83zM713 1567v268h84v-268h-84z" />
<glyph unicode="&#xd7;" horiz-adv-x="985" d="M113 178l321 320l-321 321l59 60l320 -322l321 322l59 -60l-321 -321l321 -320l-59 -59l-321 321l-320 -321z" />
<glyph unicode="&#xd8;" horiz-adv-x="1261" d="M133 0l119 178q-117 137 -117 318v450q0 205 145.5 350.5t350.5 145.5q215 0 360 -156l103 156h34l-118 -178q115 -137 114 -318v-450q0 -205 -144 -350.5t-349 -145.5q-215 0 -361 156l-102 -156h-35zM221 496q0 -139 80 -244l641 960q-125 145 -311 146 q-170 0 -290 -121t-120 -291v-450zM319 227q127 -143 312 -143q170 0 289.5 121t119.5 291v450q0 139 -79 244z" />
<glyph unicode="&#xd9;" horiz-adv-x="1296" d="M154 496v946h84v-946q0 -170 120.5 -290t290.5 -120t290 120t120 290v946h84v-946q0 -205 -144.5 -350.5t-349.5 -145.5q-207 0 -351 145.5t-144 350.5zM530 1706l43 72l230 -136l-43 -71z" />
<glyph unicode="&#xda;" horiz-adv-x="1296" d="M154 496v946h84v-946q0 -170 120.5 -290t290.5 -120t290 120t120 290v946h84v-946q0 -205 -144.5 -350.5t-349.5 -145.5q-207 0 -351 145.5t-144 350.5zM530 1642l230 136l43 -72l-230 -135z" />
<glyph unicode="&#xdb;" horiz-adv-x="1296" d="M154 496v946h84v-946q0 -170 120.5 -290t290.5 -120t290 120t120 290v946h84v-946q0 -205 -144.5 -350.5t-349.5 -145.5q-207 0 -351 145.5t-144 350.5zM410 1642l229 136h16l230 -136l-43 -71l-195 115l-194 -115z" />
<glyph unicode="&#xdc;" horiz-adv-x="1296" d="M154 496v946h84v-946q0 -170 120.5 -290t290.5 -120t290 120t120 290v946h84v-946q0 -205 -144.5 -350.5t-349.5 -145.5q-207 0 -351 145.5t-144 350.5zM469 1567v268h84v-268h-84zM733 1567v268h84v-268h-84z" />
<glyph unicode="&#xdd;" horiz-adv-x="1085" d="M10 1442h103l430 -645l430 645h102l-489 -735v-707h-86v707zM399 1642l230 136l43 -72l-230 -135z" />
<glyph unicode="&#xde;" horiz-adv-x="1214" d="M174 0v1442h84v-340h535q154 0 262 -111.5t108 -269.5t-108.5 -269.5t-261.5 -111.5h-535v-340h-84zM258 424h535q117 0 201.5 87t84.5 210t-85 210t-201 87h-535v-594z" />
<glyph unicode="&#xdf;" d="M164 0v1061q0 158 111.5 269.5t269.5 111.5h114q158 0 269.5 -111.5t111.5 -269.5q0 -109 -56 -200t-150 -140q94 -49 150 -139t56 -199q0 -158 -111.5 -270.5t-269.5 -112.5h-114v86h114q123 0 209 87t86 210t-86 210t-209 87h-63v84h63q123 0 209 87t86 210t-86 210 t-209 87h-114q-123 0 -210 -87t-87 -210v-1061h-84z" />
<glyph unicode="&#xe0;" horiz-adv-x="1122" d="M102 268q0 113 79 191t190 78h340q184 0 184 127q0 115 -82 178t-215 63h-115q-96 0 -173 -55t-105 -143l-82 26q41 113 139 184.5t221 71.5h115q160 0 270.5 -84t110.5 -241v-664h-84v141q-117 -141 -297 -141h-227q-111 0 -190 78.5t-79 189.5zM186 268.5 q0 -75.5 54.5 -130t130.5 -54.5h227q123 0 210 87t87 210v117q-70 -45 -184 -45h-340q-76 0 -130.5 -54.5t-54.5 -130zM403 1311l43 71l230 -135l-43 -71z" />
<glyph unicode="&#xe1;" horiz-adv-x="1122" d="M102 268.5q0 110.5 79 189.5t190 79h340q184 0 184 127q0 115 -82 178t-215 63h-115q-96 0 -173 -55t-105 -143l-82 26q41 113 139 184.5t221 71.5h115q160 0 270.5 -84t110.5 -241v-664h-84v141q-117 -141 -297 -141h-227q-111 0 -190 79t-79 189.5zM186 268.5 q0 -75.5 54.5 -130t130.5 -54.5h227q123 0 210 87t87 210v117q-70 -45 -184 -45h-340q-76 0 -130.5 -54.5t-54.5 -130zM383 1247l229 135l43 -71l-229 -135z" />
<glyph unicode="&#xe2;" horiz-adv-x="1122" d="M102 268q0 113 79 191t190 78h340q184 0 184 127q0 115 -82 178t-215 63h-115q-96 0 -173 -55t-105 -143l-82 26q41 113 139 184.5t221 71.5h115q160 0 270.5 -84t110.5 -241v-664h-84v141q-117 -141 -297 -141h-227q-111 0 -190 78.5t-79 189.5zM186 268.5 q0 -75.5 54.5 -130t130.5 -54.5h227q123 0 210 87t87 210v117q-70 -45 -184 -45h-340q-76 0 -130.5 -54.5t-54.5 -130zM301 1245l229 135h17l229 -135l-43 -71l-194 114l-195 -114z" />
<glyph unicode="&#xe3;" horiz-adv-x="1122" d="M102 268q0 113 79 191t190 78h340q184 0 184 127q0 115 -82 178t-215 63h-115q-96 0 -173 -55t-105 -143l-82 26q41 113 139 184.5t221 71.5h115q160 0 270.5 -84t110.5 -241v-664h-84v141q-117 -141 -297 -141h-227q-111 0 -190 78.5t-79 189.5zM186 268.5 q0 -75.5 54.5 -130t130.5 -54.5h227q123 0 210 87t87 210v117q-70 -45 -184 -45h-340q-76 0 -130.5 -54.5t-54.5 -130zM225 1174v43q0 80 56.5 136t136.5 56q51 0 91 -23.5t62.5 -51t53 -51t65.5 -23.5q45 0 76 30.5t31 75.5v43h86v-43q0 -80 -56.5 -136t-136.5 -56 q-63 0 -109 37.5t-83 74.5t-80 37q-45 0 -76 -30.5t-31 -75.5v-43h-86z" />
<glyph unicode="&#xe4;" horiz-adv-x="1122" d="M102 268q0 113 79 191t190 78h340q184 0 184 127q0 115 -82 178t-215 63h-115q-96 0 -173 -55t-105 -143l-82 26q41 113 139 184.5t221 71.5h115q160 0 270.5 -84t110.5 -241v-664h-84v141q-117 -141 -297 -141h-227q-111 0 -190 78.5t-79 189.5zM186 268.5 q0 -75.5 54.5 -130t130.5 -54.5h227q123 0 210 87t87 210v117q-70 -45 -184 -45h-340q-76 0 -130.5 -54.5t-54.5 -130zM367 1174v268h84v-268h-84zM631 1174v268h84v-268h-84z" />
<glyph unicode="&#xe5;" horiz-adv-x="1122" d="M102 268q0 113 79 191t190 78h340q184 0 184 127q0 115 -82 178t-215 63h-115q-96 0 -173 -55t-105 -143l-82 26q41 113 139 184.5t221 71.5h115q160 0 270.5 -84t110.5 -241v-664h-84v141q-117 -141 -297 -141h-227q-111 0 -190 78.5t-79 189.5zM186 268.5 q0 -75.5 54.5 -130t130.5 -54.5h227q123 0 210 87t87 210v117q-70 -45 -184 -45h-340q-76 0 -130.5 -54.5t-54.5 -130zM365 1266q0 72 51 124t124.5 52t125 -52.5t51.5 -123.5q0 -74 -51.5 -125t-125 -51t-124.5 51t-51 125zM449 1266q0 -39 26.5 -65.5t65.5 -26.5 t65.5 26.5t26.5 65.5q0 37 -26.5 64.5t-65.5 27.5t-65.5 -27.5t-26.5 -64.5z" />
<glyph unicode="&#xe6;" horiz-adv-x="1851" d="M82 268q0 113 79 191t189 78h340q184 0 184 127q0 115 -81.5 178t-214.5 63h-115q-96 0 -173 -55t-106 -143l-82 26q41 113 139.5 184.5t221.5 71.5h115q127 0 225 -53t135 -156q59 96 158.5 152.5t216.5 56.5q180 0 308 -128t128 -310v-98h-791v-15q0 -145 103.5 -249.5 t251.5 -104.5q102 0 188 56.5t129 146.5l78 -37q-53 -113 -159.5 -181.5t-235.5 -68.5q-123 0 -226.5 62.5t-160.5 166.5q-43 -102 -138.5 -165.5t-209.5 -63.5h-228q-111 0 -189.5 78.5t-78.5 189.5zM166 268.5q0 -75.5 54 -130t130 -54.5h228q123 0 209.5 87t86.5 210v117 q-70 -45 -184 -45h-340q-76 0 -130 -54.5t-54 -130zM958 537h707v14q0 145 -103.5 249.5t-248.5 104.5q-147 0 -251 -104.5t-104 -249.5v-14z" />
<glyph unicode="&#xe7;" horiz-adv-x="1017" d="M102 438v113q0 182 129 310t310 128q129 0 234.5 -68.5t160.5 -181.5l-76 -37q-43 90 -129 146.5t-190 56.5q-145 0 -250 -104.5t-105 -249.5v-113q0 -145 104.5 -249.5t250.5 -104.5q104 0 190 56.5t129 146.5l76 -37q-51 -109 -153.5 -177.5t-227.5 -72.5v-29 q47 -4 80 -40.5t33 -86.5q0 -53 -37 -90t-90.5 -37t-90 37t-36.5 90h28q0 -41 29 -69.5t70 -28.5t70.5 28.5t29.5 69.5t-29.5 71t-70.5 30h-15v55q-176 6 -300 133t-124 305z" />
<glyph unicode="&#xe8;" horiz-adv-x="1081" d="M102 438v113q0 182 129 310t309.5 128t309.5 -128t129 -310v-98h-793v-15q0 -145 104.5 -249.5t250.5 -104.5q104 0 190 56.5t129 146.5l76 -37q-53 -113 -159.5 -181.5t-235.5 -68.5q-180 0 -309.5 129t-129.5 309zM186 537h707v14q0 145 -103.5 249.5t-249 104.5 t-250 -104.5t-104.5 -249.5v-14zM383 1311l43 71l229 -135l-43 -71z" />
<glyph unicode="&#xe9;" horiz-adv-x="1081" d="M102 438v113q0 182 129 310t309.5 128t309.5 -128t129 -310v-98h-793v-15q0 -145 104.5 -249.5t250.5 -104.5q104 0 190 56.5t129 146.5l76 -37q-53 -113 -159.5 -181.5t-235.5 -68.5q-180 0 -309.5 129t-129.5 309zM186 537h707v14q0 145 -103.5 249.5t-249 104.5 t-250 -104.5t-104.5 -249.5v-14zM383 1247l229 135l43 -71l-229 -135z" />
<glyph unicode="&#xea;" horiz-adv-x="1081" d="M102 438v113q0 182 129 310t309.5 128t309.5 -128t129 -310v-98h-793v-15q0 -145 104.5 -249.5t250.5 -104.5q104 0 190 56.5t129 146.5l76 -37q-53 -113 -159.5 -181.5t-235.5 -68.5q-180 0 -309.5 129t-129.5 309zM186 537h707v14q0 145 -103.5 249.5t-249 104.5 t-250 -104.5t-104.5 -249.5v-14zM305 1245l230 135h16l229 -135l-43 -71l-194 114l-195 -114z" />
<glyph unicode="&#xeb;" horiz-adv-x="1081" d="M102 438v113q0 182 129 310t309.5 128t309.5 -128t129 -310v-98h-793v-15q0 -145 104.5 -249.5t250.5 -104.5q104 0 190 56.5t129 146.5l76 -37q-53 -113 -159.5 -181.5t-235.5 -68.5q-180 0 -309.5 129t-129.5 309zM186 537h707v14q0 145 -103.5 249.5t-249 104.5 t-250 -104.5t-104.5 -249.5v-14zM367 1174v268h84v-268h-84zM631 1174v268h84v-268h-84z" />
<glyph unicode="&#xec;" horiz-adv-x="411" d="M-33 1245l230 135h16l229 -135l-43 -71l-194 114l-195 -114zM164 0v989h84v-989h-84z" />
<glyph unicode="&#xed;" horiz-adv-x="411" d="M70 1247l229 135l43 -71l-229 -135zM164 0v989h84v-989h-84z" />
<glyph unicode="&#xee;" horiz-adv-x="411" d="M70 1311l43 71l229 -135l-43 -71zM164 0v989h84v-989h-84z" />
<glyph unicode="&#xef;" horiz-adv-x="411" d="M33 1174v268h84v-268h-84zM164 0v989h84v-989h-84zM295 1174v268h84v-268h-84z" />
<glyph unicode="&#xf0;" horiz-adv-x="1288" d="M102 438v113q0 182 129 310t310 128q106 0 199.5 -48t152.5 -130v319h-303v84h303v228h86v-228h299v-84h-299v-1130h-86v178q-59 -82 -152.5 -130t-199.5 -48q-180 0 -309.5 129t-129.5 309zM186 438q0 -145 104.5 -249.5t250 -104.5t249 104.5t103.5 249.5v113 q0 145 -103.5 249.5t-249 104.5t-250 -104.5t-104.5 -249.5v-113z" />
<glyph unicode="&#xf1;" horiz-adv-x="1173" d="M164 0v989h84v-178q61 82 154.5 130t199.5 48q180 0 309 -128t129 -310v-551h-86v551q0 145 -103 249.5t-248.5 104.5t-250 -104.5t-104.5 -249.5v-551h-84zM274 1174v43q0 80 56.5 136t136.5 56q51 0 91 -23.5t62.5 -51t53.5 -51t65 -23.5q45 0 76 30.5t31 75.5v43h86 v-43q0 -80 -56.5 -136t-136.5 -56q-63 0 -109 37.5t-83 74.5t-80 37q-45 0 -76 -30.5t-31 -75.5v-43h-86z" />
<glyph unicode="&#xf2;" horiz-adv-x="1081" d="M102 438v113q0 182 129 310t309.5 128t309.5 -128t129 -310v-113q0 -180 -129 -309t-309.5 -129t-309.5 129t-129 309zM186 438q0 -145 104.5 -249.5t250 -104.5t249 104.5t103.5 249.5v113q0 145 -103.5 249.5t-249 104.5t-250 -104.5t-104.5 -249.5v-113zM403 1311 l43 71l230 -135l-43 -71z" />
<glyph unicode="&#xf3;" horiz-adv-x="1081" d="M102 438v113q0 182 129 310t309.5 128t309.5 -128t129 -310v-113q0 -180 -129 -309t-309.5 -129t-309.5 129t-129 309zM186 438q0 -145 104.5 -249.5t250 -104.5t249 104.5t103.5 249.5v113q0 145 -103.5 249.5t-249 104.5t-250 -104.5t-104.5 -249.5v-113zM383 1247 l229 135l43 -71l-229 -135z" />
<glyph unicode="&#xf4;" horiz-adv-x="1081" d="M102 438v113q0 182 129 310t309.5 128t309.5 -128t129 -310v-113q0 -180 -129 -309t-309.5 -129t-309.5 129t-129 309zM186 438q0 -145 104.5 -249.5t250 -104.5t249 104.5t103.5 249.5v113q0 145 -103.5 249.5t-249 104.5t-250 -104.5t-104.5 -249.5v-113zM305 1245 l230 135h16l229 -135l-43 -71l-194 114l-195 -114z" />
<glyph unicode="&#xf5;" horiz-adv-x="1081" d="M102 438v113q0 182 129 310t309.5 128t309.5 -128t129 -310v-113q0 -180 -129 -309t-309.5 -129t-309.5 129t-129 309zM186 438q0 -145 104.5 -249.5t250 -104.5t249 104.5t103.5 249.5v113q0 145 -103.5 249.5t-249 104.5t-250 -104.5t-104.5 -249.5v-113zM209 1176v43 q0 80 56.5 136t135.5 56q63 0 109.5 -38t83.5 -74.5t80 -36.5q45 0 75.5 30.5t30.5 75.5v43h86v-43q0 -80 -56 -136t-136 -56q-51 0 -91 23.5t-62.5 51t-53.5 51t-66 23.5q-45 0 -75.5 -30.5t-30.5 -75.5v-43h-86z" />
<glyph unicode="&#xf6;" horiz-adv-x="1081" d="M102 438v113q0 182 129 310t309.5 128t309.5 -128t129 -310v-113q0 -180 -129 -309t-309.5 -129t-309.5 129t-129 309zM186 438q0 -145 104.5 -249.5t250 -104.5t249 104.5t103.5 249.5v113q0 145 -103.5 249.5t-249 104.5t-250 -104.5t-104.5 -249.5v-113zM367 1174v268 h84v-268h-84zM631 1174v268h84v-268h-84z" />
<glyph unicode="&#xf7;" horiz-adv-x="1112" d="M61 453v84h990v-84h-990zM512 0v225h86v-225h-86zM512 762v227h86v-227h-86z" />
<glyph unicode="&#xf8;" horiz-adv-x="1081" d="M102 438v113q0 182 129 310t310 128q141 0 258 -84l55 84h33l-68 -100q160 -129 160 -338v-113q0 -180 -129 -309t-309 -129q-141 0 -258 84l-56 -84h-32l65 100q-158 131 -158 338zM186 438q0 -160 123 -266l443 664q-96 70 -211 69q-145 0 -250 -104.5t-105 -249.5 v-113zM330 154q96 -70 211 -70q145 0 248.5 104.5t103.5 249.5v113q0 166 -121 266z" />
<glyph unicode="&#xf9;" horiz-adv-x="1173" d="M133 438v551h84v-551q0 -145 104.5 -249.5t250 -104.5t249 104.5t103.5 249.5v551h86v-989h-86v178q-59 -82 -152.5 -130t-200.5 -48q-182 0 -310 129t-128 309zM424 1311l43 71l229 -135l-43 -71z" />
<glyph unicode="&#xfa;" horiz-adv-x="1173" d="M133 438v551h84v-551q0 -145 104.5 -249.5t250 -104.5t249 104.5t103.5 249.5v551h86v-989h-86v178q-59 -82 -152.5 -130t-200.5 -48q-182 0 -310 129t-128 309zM424 1247l229 135l43 -71l-229 -135z" />
<glyph unicode="&#xfb;" horiz-adv-x="1173" d="M133 438v551h84v-551q0 -145 104.5 -249.5t250 -104.5t249 104.5t103.5 249.5v551h86v-989h-86v178q-59 -82 -152.5 -130t-200.5 -48q-182 0 -310 129t-128 309zM334 1245l229 135h17l229 -135l-43 -71l-195 114l-194 -114z" />
<glyph unicode="&#xfc;" horiz-adv-x="1173" d="M133 438v551h84v-551q0 -145 104.5 -249.5t250 -104.5t249 104.5t103.5 249.5v551h86v-989h-86v178q-59 -82 -152.5 -130t-200.5 -48q-182 0 -310 129t-128 309zM397 1174v268h84v-268h-84zM662 1174v268h83v-268h-83z" />
<glyph unicode="&#xfd;" horiz-adv-x="1019" d="M31 989h92l387 -883l387 883h92l-631 -1442h-92l197 453zM362 1247l230 135l43 -71l-229 -135z" />
<glyph unicode="&#xfe;" horiz-adv-x="1153" d="M174 -453v1895h84v-631q61 82 154.5 130t199.5 48q182 0 310.5 -128t128.5 -310v-113q0 -180 -128 -309t-311 -129q-106 0 -199.5 48t-154.5 130v-631h-84zM258 438q0 -145 104.5 -249.5t250 -104.5t249 104.5t103.5 249.5v113q0 145 -103.5 249.5t-249 104.5 t-250 -104.5t-104.5 -249.5v-113z" />
<glyph unicode="&#xff;" horiz-adv-x="1013" d="M31 989h92l387 -883l379 883h94l-623 -1442h-92l195 453zM338 1174v268h84v-268h-84zM602 1174v268h84v-268h-84z" />
<glyph unicode="&#x152;" horiz-adv-x="2170" d="M133 496v450q0 205 144.5 350.5t351.5 145.5q125 0 232.5 -58.5t176.5 -158.5v217h990v-86h-906v-592h906v-86h-906v-594h906v-84h-990v217q-70 -100 -177 -158.5t-232 -58.5q-207 0 -351.5 145.5t-144.5 350.5zM217 496q0 -170 121 -291t291 -121t289.5 121t119.5 291 v450q0 170 -119.5 291t-289.5 121t-291 -121t-121 -291v-450z" />
<glyph unicode="&#x153;" horiz-adv-x="1871" d="M102 438v113q0 182 129 310t310 128q129 0 235.5 -68.5t159.5 -181.5q55 113 160.5 181.5t234.5 68.5q182 0 310 -128t128 -310v-98h-790v-15q0 -145 103.5 -249.5t248.5 -104.5q104 0 190.5 56.5t129.5 146.5l78 -37q-55 -113 -162 -181.5t-236 -68.5t-234.5 68.5 t-160.5 181.5q-53 -113 -159.5 -181.5t-235.5 -68.5q-180 0 -309.5 129t-129.5 309zM186 438q0 -145 104.5 -249.5t250 -104.5t249 104.5t103.5 249.5v113q0 145 -103.5 249.5t-249 104.5t-250 -104.5t-104.5 -249.5v-113zM979 537h707v14q0 145 -103.5 249.5t-251.5 104.5 q-145 0 -248.5 -104.5t-103.5 -249.5v-14z" />
<glyph unicode="&#x178;" horiz-adv-x="1083" d="M10 1442h103l430 -645l430 645h100l-489 -733v-709h-84v709zM369 1567v268h84v-268h-84zM633 1567v268h84v-268h-84z" />
<glyph unicode="&#x2c6;" horiz-adv-x="577" d="M51 1245l230 135h16l229 -135l-43 -71l-194 114l-195 -114z" />
<glyph unicode="&#x2dc;" horiz-adv-x="862" d="M102 1206v43q0 80 56.5 136.5t136.5 56.5q51 0 91 -23.5t62.5 -51.5t53 -51.5t65.5 -23.5q45 0 76 31t31 76v43h86v-43q0 -80 -56.5 -136.5t-136.5 -56.5q-63 0 -109 38t-83 75t-80 37q-45 0 -76 -31t-31 -76v-43h-86z" />
<glyph unicode="&#x2000;" horiz-adv-x="958" />
<glyph unicode="&#x2001;" horiz-adv-x="1916" />
<glyph unicode="&#x2002;" horiz-adv-x="958" />
<glyph unicode="&#x2003;" horiz-adv-x="1916" />
<glyph unicode="&#x2004;" horiz-adv-x="638" />
<glyph unicode="&#x2005;" horiz-adv-x="479" />
<glyph unicode="&#x2006;" horiz-adv-x="319" />
<glyph unicode="&#x2007;" horiz-adv-x="319" />
<glyph unicode="&#x2008;" horiz-adv-x="239" />
<glyph unicode="&#x2009;" horiz-adv-x="382" />
<glyph unicode="&#x200a;" horiz-adv-x="106" />
<glyph unicode="&#x2010;" horiz-adv-x="718" d="M113 453v84h493v-84h-493z" />
<glyph unicode="&#x2011;" horiz-adv-x="718" d="M113 453v84h493v-84h-493z" />
<glyph unicode="&#x2012;" horiz-adv-x="718" d="M113 453v84h493v-84h-493z" />
<glyph unicode="&#x2013;" horiz-adv-x="1214" d="M113 453v84h989v-84h-989z" />
<glyph unicode="&#x2014;" horiz-adv-x="2121" d="M113 453v84h1896v-84h-1896z" />
<glyph unicode="&#x2018;" horiz-adv-x="309" d="M113 989v266q0 113 84 187v-62q-41 -53 -41 -125v-41h41v-225h-84z" />
<glyph unicode="&#x2019;" horiz-adv-x="309" d="M113 989v62q43 55 43 125v41h-43v225h84v-266q0 -115 -84 -187z" />
<glyph unicode="&#x201a;" horiz-adv-x="350" d="M133 0v227h84v-266q0 -117 -84 -188v61q43 53 43 166h-43z" />
<glyph unicode="&#x201c;" horiz-adv-x="520" d="M133 989v266q0 113 84 187v-62q-41 -53 -41 -125v-41h41v-225h-84zM301 989v266q0 113 86 187v-62q-43 -55 -43 -125v-41h43v-225h-86z" />
<glyph unicode="&#x201d;" horiz-adv-x="520" d="M133 989v62q43 55 43 125v41h-43v225h84v-266q0 -115 -84 -187zM301 1217v225h86v-266q0 -113 -84 -187v62q41 53 41 125v41h-43z" />
<glyph unicode="&#x201e;" horiz-adv-x="520" d="M133 -2v225h84v-266q0 -115 -84 -186v61q43 55 43 125v41h-43zM301 -2v225h86v-266q0 -113 -84 -186v61q41 53 41 125v41h-43z" />
<glyph unicode="&#x2022;" horiz-adv-x="882" d="M92 631v16q0 141 100.5 241.5t241.5 100.5h15q141 0 241.5 -100.5t100.5 -241.5v-16q0 -141 -100.5 -240.5t-241.5 -99.5h-15q-141 0 -241.5 99.5t-100.5 240.5z" />
<glyph unicode="&#x2026;" horiz-adv-x="782" d="M133 0v225h84v-225h-84zM348 0v225h84v-225h-84zM565 0v225h84v-225h-84z" />
<glyph unicode="&#x202f;" horiz-adv-x="382" />
<glyph unicode="&#x2039;" horiz-adv-x="661" d="M82 467v55l405 467h113l-430 -493l430 -496h-113z" />
<glyph unicode="&#x203a;" horiz-adv-x="661" d="M61 0l431 496l-431 493h113l406 -467v-55l-406 -467h-113z" />
<glyph unicode="&#x205f;" horiz-adv-x="479" />
<glyph unicode="&#x20ac;" horiz-adv-x="1284" d="M31 453v84h299v368h-299v84h299q16 190 158.5 321.5t334.5 131.5q135 0 250 -67.5t180 -180.5l-73 -43q-55 94 -150.5 150.5t-206.5 56.5q-158 0 -274.5 -106.5t-132.5 -262.5h604v-84h-606v-368h606v-84h-604q16 -156 133 -262.5t274 -106.5q111 0 206 56.5t151 150.5 l71 -43q-63 -113 -178 -180.5t-250 -67.5q-193 0 -335 131t-158 322h-299z" />
<glyph unicode="&#x2122;" horiz-adv-x="858" d="M51 1415v27h311v-27h-143v-426h-26v426h-142zM401 989v453h29l174 -408l174 408h29v-453h-27v385l-164 -385h-24l-164 385v-385h-27z" />
<glyph unicode="&#xe000;" horiz-adv-x="990" d="M0 990h990v-990h-990v990z" />
<glyph unicode="&#xfb01;" horiz-adv-x="1021" d="M10 905v84h223v185q0 111 79 189.5t190 78.5h37v-86h-37q-76 0 -130.5 -53.5t-54.5 -128.5v-185h531v-989h-84v905h-447v-905h-84v905h-223zM764 1174v268h84v-268h-84z" />
<glyph unicode="&#xfb02;" horiz-adv-x="1021" d="M10 905v84h223v185q0 111 79 189.5t190 78.5h346v-1442h-84v1356h-262q-76 0 -130.5 -53.5t-54.5 -128.5v-185h222v-84h-222v-905h-84v905h-223z" />
<glyph unicode="&#xfb03;" horiz-adv-x="1591" d="M1344 0v989h84v-989h-84zM1344 1174v268h84v-268h-84zM600 905v84h223v185q0 111 79 189.5t190 78.5h37v-86h-37q-76 0 -130.5 -53.5t-54.5 -128.5v-185h222v-84h-222v-905h-84v905h-223zM10 905v84h223v185q0 111 79 189.5t190 78.5h37v-86h-37q-76 0 -130.5 -53.5 t-54.5 -128.5v-185h222v-84h-222v-905h-84v905h-223z" />
<glyph unicode="&#xfb04;" horiz-adv-x="1591" d="M1344 0v1442h84v-1442h-84zM600 905v84h223v185q0 111 79 189.5t190 78.5h37v-86h-37q-76 0 -130.5 -53.5t-54.5 -128.5v-185h222v-84h-222v-905h-84v905h-223zM10 905v84h223v185q0 111 79 189.5t190 78.5h37v-86h-37q-76 0 -130.5 -53.5t-54.5 -128.5v-185h222v-84 h-222v-905h-84v905h-223z" />
<glyph horiz-adv-x="0" />
</font>
</defs>
</svg>
